<?xml version="1.0" encoding="UTF-8" standalone="no"?><svg xmlns="http://www.w3.org/2000/svg" xmlns:xlink="http://www.w3.org/1999/xlink" contentScriptType="application/ecmascript" contentStyleType="text/css" height="4371px" preserveAspectRatio="none" style="width:949px;height:4371px;" version="1.1" viewBox="0 0 949 4371" width="949px" zoomAndPan="magnify"><defs/><g><rect fill="#EEEEEE" height="4346.4844" style="stroke: #EEEEEE; stroke-width: 1.0;" width="158" x="10" y="12.7451"/><rect fill="#FFFFFF" height="33.9688" rx="12.5" ry="12.5" style="stroke: #666666; stroke-width: 1.5;" width="76" x="51.5" y="38.6982"/><text fill="#666666" font-family="monospace" font-size="12" lengthAdjust="spacingAndGlyphs" textLength="56" x="61.5" y="59.8369">Register</text><rect fill="#FFFFFF" height="33.9688" rx="12.5" ry="12.5" style="stroke: #666666; stroke-width: 1.5;" width="76" x="51.5" y="426.3232"/><text fill="#666666" font-family="monospace" font-size="12" lengthAdjust="spacingAndGlyphs" textLength="56" x="61.5" y="447.4619">Add Room</text><rect fill="#FFFFFF" height="33.9688" rx="12.5" ry="12.5" style="stroke: #666666; stroke-width: 1.5;" width="83" x="48" y="882.917"/><text fill="#666666" font-family="monospace" font-size="12" lengthAdjust="spacingAndGlyphs" textLength="63" x="58" y="904.0557">Book Room</text><rect fill="#FFFFFF" height="33.9688" rx="12.5" ry="12.5" style="stroke: #666666; stroke-width: 1.5;" width="90" x="44.5" y="1408.4795"/><text fill="#666666" font-family="monospace" font-size="12" lengthAdjust="spacingAndGlyphs" textLength="70" x="54.5" y="1429.6182">Ready Room</text><rect fill="#FFFFFF" height="33.9688" rx="12.5" ry="12.5" style="stroke: #666666; stroke-width: 1.5;" width="76" x="51.5" y="1989.042"/><text fill="#666666" font-family="monospace" font-size="12" lengthAdjust="spacingAndGlyphs" textLength="56" x="61.5" y="2010.1807">Check In</text><rect fill="#FFFFFF" height="33.9688" rx="12.5" ry="12.5" style="stroke: #666666; stroke-width: 1.5;" width="125" x="27" y="2514.6045"/><text fill="#666666" font-family="monospace" font-size="12" lengthAdjust="spacingAndGlyphs" textLength="105" x="37" y="2535.7432">Payment Request</text><rect fill="#FFFFFF" height="33.9688" rx="12.5" ry="12.5" style="stroke: #666666; stroke-width: 1.5;" width="139" x="20" y="2971.1982"/><text fill="#666666" font-family="monospace" font-size="12" lengthAdjust="spacingAndGlyphs" textLength="119" x="30" y="2992.3369">Payment Succeeded</text><rect fill="#FFFFFF" height="33.9688" rx="12.5" ry="12.5" style="stroke: #666666; stroke-width: 1.5;" width="132" x="23.5" y="3495.8857"/><text fill="#666666" font-family="monospace" font-size="12" lengthAdjust="spacingAndGlyphs" textLength="112" x="33.5" y="3517.0244">Guest Left Hotel</text><rect fill="#FFFFFF" height="33.9688" rx="12.5" ry="12.5" style="stroke: #666666; stroke-width: 1.5;" width="83" x="48" y="3938.5107"/><text fill="#666666" font-family="monospace" font-size="12" lengthAdjust="spacingAndGlyphs" textLength="63" x="58" y="3959.6494">Check Out</text><rect fill="#FFFFFF" height="4346.4844" style="stroke: #FFFFFF; stroke-width: 1.0;" width="165" x="168" y="12.7451"/><rect fill="#FFFFFF" height="103.8125" rx="12.5" ry="12.5" style="stroke: #666666; stroke-width: 1.5;" width="132" x="185" y="107.667"/><text fill="#666666" font-family="monospace" font-size="12" lengthAdjust="spacingAndGlyphs" textLength="0" x="202" y="128.8057"/><text fill="#666666" font-family="monospace" font-size="12" font-weight="bold" lengthAdjust="spacingAndGlyphs" textLength="35" x="195" y="142.7744">Guest</text><text fill="#666666" font-family="monospace" font-size="12" lengthAdjust="spacingAndGlyphs" textLength="98" x="195" y="156.7432">Username: Text</text><text fill="#666666" font-family="monospace" font-size="12" lengthAdjust="spacingAndGlyphs" textLength="98" x="195" y="170.7119">Password: Text</text><text fill="#666666" font-family="monospace" font-size="12" lengthAdjust="spacingAndGlyphs" textLength="112" x="195" y="184.6807">Register: Button</text><text fill="#666666" font-family="monospace" font-size="12" lengthAdjust="spacingAndGlyphs" textLength="0" x="202" y="198.6494"/><rect fill="#FFFFFF" height="103.8125" rx="12.5" ry="12.5" style="stroke: #666666; stroke-width: 1.5;" width="132" x="185" y="495.292"/><text fill="#666666" font-family="monospace" font-size="12" lengthAdjust="spacingAndGlyphs" textLength="0" x="202" y="516.4307"/><text fill="#666666" font-family="monospace" font-size="12" font-weight="bold" lengthAdjust="spacingAndGlyphs" textLength="49" x="195" y="530.3994">Manager</text><text fill="#666666" font-family="monospace" font-size="12" lengthAdjust="spacingAndGlyphs" textLength="91" x="195" y="544.3682">Field 1: Text</text><text fill="#666666" font-family="monospace" font-size="12" lengthAdjust="spacingAndGlyphs" textLength="91" x="195" y="558.3369">Field 2: Text</text><text fill="#666666" font-family="monospace" font-size="12" lengthAdjust="spacingAndGlyphs" textLength="112" x="195" y="572.3057">Add Room: Button</text><text fill="#666666" font-family="monospace" font-size="12" lengthAdjust="spacingAndGlyphs" textLength="0" x="202" y="586.2744"/><rect fill="#FFFFFF" height="103.8125" rx="12.5" ry="12.5" style="stroke: #666666; stroke-width: 1.5;" width="139" x="181.5" y="1020.8545"/><text fill="#666666" font-family="monospace" font-size="12" lengthAdjust="spacingAndGlyphs" textLength="0" x="198.5" y="1041.9932"/><text fill="#666666" font-family="monospace" font-size="12" font-weight="bold" lengthAdjust="spacingAndGlyphs" textLength="35" x="191.5" y="1055.9619">Guest</text><text fill="#666666" font-family="monospace" font-size="12" lengthAdjust="spacingAndGlyphs" textLength="84" x="191.5" y="1069.9307">Date: Picker</text><text fill="#666666" font-family="monospace" font-size="12" lengthAdjust="spacingAndGlyphs" textLength="77" x="191.5" y="1083.8994">Rooms: List</text><text fill="#666666" font-family="monospace" font-size="12" lengthAdjust="spacingAndGlyphs" textLength="119" x="191.5" y="1097.8682">Book Room: Button</text><text fill="#666666" font-family="monospace" font-size="12" lengthAdjust="spacingAndGlyphs" textLength="0" x="198.5" y="1111.8369"/><rect fill="#FFFFFF" height="89.8438" rx="12.5" ry="12.5" style="stroke: #666666; stroke-width: 1.5;" width="146" x="178" y="1546.417"/><text fill="#666666" font-family="monospace" font-size="12" lengthAdjust="spacingAndGlyphs" textLength="0" x="195" y="1567.5557"/><text fill="#666666" font-family="monospace" font-size="12" font-weight="bold" lengthAdjust="spacingAndGlyphs" textLength="49" x="188" y="1581.5244">Manager</text><text fill="#666666" font-family="monospace" font-size="12" lengthAdjust="spacingAndGlyphs" textLength="77" x="188" y="1595.4932">Tasks: List</text><text fill="#666666" font-family="monospace" font-size="12" lengthAdjust="spacingAndGlyphs" textLength="126" x="188" y="1609.4619">Ready Room: Button</text><text fill="#666666" font-family="monospace" font-size="12" lengthAdjust="spacingAndGlyphs" textLength="0" x="195" y="1623.4307"/><rect fill="#FFFFFF" height="103.8125" rx="12.5" ry="12.5" style="stroke: #666666; stroke-width: 1.5;" width="132" x="185" y="2126.9795"/><text fill="#666666" font-family="monospace" font-size="12" lengthAdjust="spacingAndGlyphs" textLength="0" x="202" y="2148.1182"/><text fill="#666666" font-family="monospace" font-size="12" font-weight="bold" lengthAdjust="spacingAndGlyphs" textLength="49" x="195" y="2162.0869">Manager</text><text fill="#666666" font-family="monospace" font-size="12" lengthAdjust="spacingAndGlyphs" textLength="84" x="195" y="2176.0557">Field1: Text</text><text fill="#666666" font-family="monospace" font-size="12" lengthAdjust="spacingAndGlyphs" textLength="84" x="195" y="2190.0244">Field2: Text</text><text fill="#666666" font-family="monospace" font-size="12" lengthAdjust="spacingAndGlyphs" textLength="112" x="195" y="2203.9932">Check In: Button</text><text fill="#666666" font-family="monospace" font-size="12" lengthAdjust="spacingAndGlyphs" textLength="0" x="202" y="2217.9619"/><rect fill="#FFFFFF" height="103.8125" rx="12.5" ry="12.5" style="stroke: #666666; stroke-width: 1.5;" width="139" x="181.5" y="2583.5732"/><text fill="#666666" font-family="monospace" font-size="12" lengthAdjust="spacingAndGlyphs" textLength="0" x="198.5" y="2604.7119"/><text fill="#666666" font-family="monospace" font-size="12" font-weight="bold" lengthAdjust="spacingAndGlyphs" textLength="35" x="191.5" y="2618.6807">Guest</text><text fill="#666666" font-family="monospace" font-size="12" lengthAdjust="spacingAndGlyphs" textLength="119" x="191.5" y="2632.6494">Card Number: Text</text><text fill="#666666" font-family="monospace" font-size="12" lengthAdjust="spacingAndGlyphs" textLength="112" x="191.5" y="2646.6182">Amount: Currency</text><text fill="#666666" font-family="monospace" font-size="12" lengthAdjust="spacingAndGlyphs" textLength="77" x="191.5" y="2660.5869">Pay: Button</text><text fill="#666666" font-family="monospace" font-size="12" lengthAdjust="spacingAndGlyphs" textLength="0" x="198.5" y="2674.5557"/><rect fill="#FFFFFF" height="33.9688" rx="12.5" ry="12.5" style="stroke: #666666; stroke-width: 1.5;" width="139" x="181.5" y="3109.1357"/><text fill="#666666" font-family="monospace" font-size="12" lengthAdjust="spacingAndGlyphs" textLength="119" x="191.5" y="3130.2744">Payment Processor</text><rect fill="#FFFFFF" height="33.9688" rx="12.5" ry="12.5" style="stroke: #666666; stroke-width: 1.5;" width="146" x="178" y="4076.4482"/><text fill="#666666" font-family="monospace" font-size="12" lengthAdjust="spacingAndGlyphs" textLength="126" x="188" y="4097.5869">Checkout Processor</text><rect fill="#DBE8F9" height="4346.4844" style="stroke: #DBE8F9; stroke-width: 1.0;" width="165" x="333" y="12.7451"/><rect fill="#FFFFFF" height="75.875" rx="12.5" ry="12.5" style="stroke: #666666; stroke-width: 1.5;" width="76" x="378" y="246.4795"/><text fill="#666666" font-family="monospace" font-size="12" lengthAdjust="spacingAndGlyphs" textLength="0" x="395" y="267.6182"/><text fill="#666666" font-family="monospace" font-size="12" font-weight="bold" lengthAdjust="spacingAndGlyphs" textLength="28" x="388" y="281.5869">Auth</text><text fill="#666666" font-family="monospace" font-size="12" lengthAdjust="spacingAndGlyphs" textLength="56" x="388" y="295.5557">Register</text><text fill="#666666" font-family="monospace" font-size="12" lengthAdjust="spacingAndGlyphs" textLength="0" x="395" y="309.5244"/><rect fill="#FFFFFF" height="75.875" rx="12.5" ry="12.5" style="stroke: #666666; stroke-width: 1.5;" width="83" x="374.5" y="634.1045"/><text fill="#666666" font-family="monospace" font-size="12" lengthAdjust="spacingAndGlyphs" textLength="0" x="391.5" y="655.2432"/><text fill="#666666" font-family="monospace" font-size="12" font-weight="bold" lengthAdjust="spacingAndGlyphs" textLength="63" x="384.5" y="669.2119">Inventory</text><text fill="#666666" font-family="monospace" font-size="12" lengthAdjust="spacingAndGlyphs" textLength="56" x="384.5" y="683.1807">Add Room</text><text fill="#666666" font-family="monospace" font-size="12" lengthAdjust="spacingAndGlyphs" textLength="0" x="391.5" y="697.1494"/><rect fill="#FFFFFF" height="75.875" rx="12.5" ry="12.5" style="stroke: #666666; stroke-width: 1.5;" width="83" x="374.5" y="1159.667"/><text fill="#666666" font-family="monospace" font-size="12" lengthAdjust="spacingAndGlyphs" textLength="0" x="391.5" y="1180.8057"/><text fill="#666666" font-family="monospace" font-size="12" font-weight="bold" lengthAdjust="spacingAndGlyphs" textLength="63" x="384.5" y="1194.7744">Inventory</text><text fill="#666666" font-family="monospace" font-size="12" lengthAdjust="spacingAndGlyphs" textLength="63" x="384.5" y="1208.7432">Book Room</text><text fill="#666666" font-family="monospace" font-size="12" lengthAdjust="spacingAndGlyphs" textLength="0" x="391.5" y="1222.7119"/><rect fill="#FFFFFF" height="75.875" rx="12.5" ry="12.5" style="stroke: #666666; stroke-width: 1.5;" width="90" x="371" y="1671.2607"/><text fill="#666666" font-family="monospace" font-size="12" lengthAdjust="spacingAndGlyphs" textLength="0" x="388" y="1692.3994"/><text fill="#666666" font-family="monospace" font-size="12" font-weight="bold" lengthAdjust="spacingAndGlyphs" textLength="63" x="381" y="1706.3682">Inventory</text><text fill="#666666" font-family="monospace" font-size="12" lengthAdjust="spacingAndGlyphs" textLength="70" x="381" y="1720.3369">Ready Room</text><text fill="#666666" font-family="monospace" font-size="12" lengthAdjust="spacingAndGlyphs" textLength="0" x="388" y="1734.3057"/><rect fill="#FFFFFF" height="75.875" rx="12.5" ry="12.5" style="stroke: #666666; stroke-width: 1.5;" width="83" x="374.5" y="2265.792"/><text fill="#666666" font-family="monospace" font-size="12" lengthAdjust="spacingAndGlyphs" textLength="0" x="391.5" y="2286.9307"/><text fill="#666666" font-family="monospace" font-size="12" font-weight="bold" lengthAdjust="spacingAndGlyphs" textLength="63" x="384.5" y="2300.8994">Inventory</text><text fill="#666666" font-family="monospace" font-size="12" lengthAdjust="spacingAndGlyphs" textLength="56" x="384.5" y="2314.8682">Check In</text><text fill="#666666" font-family="monospace" font-size="12" lengthAdjust="spacingAndGlyphs" textLength="0" x="391.5" y="2328.8369"/><rect fill="#FFFFFF" height="75.875" rx="12.5" ry="12.5" style="stroke: #666666; stroke-width: 1.5;" width="69" x="381.5" y="2722.3857"/><text fill="#666666" font-family="monospace" font-size="12" lengthAdjust="spacingAndGlyphs" textLength="0" x="398.5" y="2743.5244"/><text fill="#666666" font-family="monospace" font-size="12" font-weight="bold" lengthAdjust="spacingAndGlyphs" textLength="49" x="391.5" y="2757.4932">Payment</text><text fill="#666666" font-family="monospace" font-size="12" lengthAdjust="spacingAndGlyphs" textLength="21" x="391.5" y="2771.4619">Pay</text><text fill="#666666" font-family="monospace" font-size="12" lengthAdjust="spacingAndGlyphs" textLength="0" x="398.5" y="2785.4307"/><rect fill="#FFFFFF" height="75.875" rx="12.5" ry="12.5" style="stroke: #666666; stroke-width: 1.5;" width="125" x="353.5" y="3178.1045"/><text fill="#666666" font-family="monospace" font-size="12" lengthAdjust="spacingAndGlyphs" textLength="0" x="370.5" y="3199.2432"/><text fill="#666666" font-family="monospace" font-size="12" font-weight="bold" lengthAdjust="spacingAndGlyphs" textLength="49" x="363.5" y="3213.2119">Payment</text><text fill="#666666" font-family="monospace" font-size="12" lengthAdjust="spacingAndGlyphs" textLength="105" x="363.5" y="3227.1807">Process Payment</text><text fill="#666666" font-family="monospace" font-size="12" lengthAdjust="spacingAndGlyphs" textLength="0" x="370.5" y="3241.1494"/><rect fill="#FFFFFF" height="75.875" rx="12.5" ry="12.5" style="stroke: #666666; stroke-width: 1.5;" width="146" x="343" y="3689.6982"/><text fill="#666666" font-family="monospace" font-size="12" lengthAdjust="spacingAndGlyphs" textLength="0" x="360" y="3710.8369"/><text fill="#666666" font-family="monospace" font-size="12" font-weight="bold" lengthAdjust="spacingAndGlyphs" textLength="63" x="353" y="3724.8057">Inventory</text><text fill="#666666" font-family="monospace" font-size="12" lengthAdjust="spacingAndGlyphs" textLength="126" x="353" y="3738.7744">Translate Location</text><text fill="#666666" font-family="monospace" font-size="12" lengthAdjust="spacingAndGlyphs" textLength="0" x="360" y="3752.7432"/><rect fill="#FFFFFF" height="75.875" rx="12.5" ry="12.5" style="stroke: #666666; stroke-width: 1.5;" width="83" x="374.5" y="4145.417"/><text fill="#666666" font-family="monospace" font-size="12" lengthAdjust="spacingAndGlyphs" textLength="0" x="391.5" y="4166.5557"/><text fill="#666666" font-family="monospace" font-size="12" font-weight="bold" lengthAdjust="spacingAndGlyphs" textLength="63" x="384.5" y="4180.5244">Inventory</text><text fill="#666666" font-family="monospace" font-size="12" lengthAdjust="spacingAndGlyphs" textLength="63" x="384.5" y="4194.4932">Check Out</text><text fill="#666666" font-family="monospace" font-size="12" lengthAdjust="spacingAndGlyphs" textLength="0" x="391.5" y="4208.4619"/><rect fill="#FFE5D8" height="4346.4844" style="stroke: #FFE5D8; stroke-width: 1.0;" width="158" x="498" y="12.7451"/><rect fill="#FFFFFF" height="33.9688" rx="12.5" ry="12.5" style="stroke: #666666; stroke-width: 1.5;" width="90" x="532.5" y="357.3545"/><text fill="#666666" font-family="monospace" font-size="12" lengthAdjust="spacingAndGlyphs" textLength="70" x="542.5" y="378.4932">Registered</text><rect fill="#FFFFFF" height="33.9688" rx="12.5" ry="12.5" style="stroke: #666666; stroke-width: 1.5;" width="90" x="532.5" y="744.9795"/><text fill="#666666" font-family="monospace" font-size="12" lengthAdjust="spacingAndGlyphs" textLength="70" x="542.5" y="766.1182">Room Added</text><rect fill="#FFFFFF" height="33.9688" rx="12.5" ry="12.5" style="stroke: #666666; stroke-width: 1.5;" width="97" x="529" y="1270.542"/><text fill="#666666" font-family="monospace" font-size="12" lengthAdjust="spacingAndGlyphs" textLength="77" x="539" y="1291.6807">Room Booked</text><rect fill="#FFFFFF" height="33.9688" rx="12.5" ry="12.5" style="stroke: #666666; stroke-width: 1.5;" width="104" x="525.5" y="1782.1357"/><text fill="#666666" font-family="monospace" font-size="12" lengthAdjust="spacingAndGlyphs" textLength="84" x="535.5" y="1803.2744">Room Readied</text><rect fill="#FFFFFF" height="33.9688" rx="12.5" ry="12.5" style="stroke: #666666; stroke-width: 1.5;" width="90" x="532.5" y="2376.667"/><text fill="#666666" font-family="monospace" font-size="12" lengthAdjust="spacingAndGlyphs" textLength="70" x="542.5" y="2397.8057">Checked In</text><rect fill="#FFFFFF" height="33.9688" rx="12.5" ry="12.5" style="stroke: #666666; stroke-width: 1.5;" width="139" x="508" y="2833.2607"/><text fill="#666666" font-family="monospace" font-size="12" lengthAdjust="spacingAndGlyphs" textLength="119" x="518" y="2854.3994">Payment Requested</text><rect fill="#FFFFFF" height="33.9688" rx="12.5" ry="12.5" style="stroke: #666666; stroke-width: 1.5;" width="139" x="508" y="3288.9795"/><text fill="#666666" font-family="monospace" font-size="12" lengthAdjust="spacingAndGlyphs" textLength="119" x="518" y="3310.1182">Payment Succeeded</text><rect fill="#FFFFFF" height="33.9688" rx="12.5" ry="12.5" style="stroke: #666666; stroke-width: 1.5;" width="132" x="511.5" y="3800.5732"/><text fill="#666666" font-family="monospace" font-size="12" lengthAdjust="spacingAndGlyphs" textLength="112" x="521.5" y="3821.7119">Guest Left Hotel</text><rect fill="#FFFFFF" height="33.9688" rx="12.5" ry="12.5" style="stroke: #666666; stroke-width: 1.5;" width="97" x="529" y="4256.292"/><text fill="#666666" font-family="monospace" font-size="12" lengthAdjust="spacingAndGlyphs" textLength="77" x="539" y="4277.4307">Checked Out</text><rect fill="#E8FBE8" height="4346.4844" style="stroke: #E8FBE8; stroke-width: 1.0;" width="172" x="656" y="12.7451"/><rect fill="#FFFFFF" height="33.9688" rx="12.5" ry="12.5" style="stroke: #666666; stroke-width: 1.5;" width="139" x="673" y="813.9482"/><text fill="#666666" font-family="monospace" font-size="12" lengthAdjust="spacingAndGlyphs" textLength="119" x="683" y="835.0869">Room Availability</text><rect fill="#FFFFFF" height="33.9688" rx="12.5" ry="12.5" style="stroke: #666666; stroke-width: 1.5;" width="139" x="673" y="951.8857"/><text fill="#666666" font-family="monospace" font-size="12" lengthAdjust="spacingAndGlyphs" textLength="119" x="683" y="973.0244">Room Availability</text><rect fill="#FFFFFF" height="33.9688" rx="12.5" ry="12.5" style="stroke: #666666; stroke-width: 1.5;" width="139" x="673" y="1339.5107"/><text fill="#666666" font-family="monospace" font-size="12" lengthAdjust="spacingAndGlyphs" textLength="119" x="683" y="1360.6494">Cleaning Schedule</text><rect fill="#FFFFFF" height="33.9688" rx="12.5" ry="12.5" style="stroke: #666666; stroke-width: 1.5;" width="139" x="673" y="1477.4482"/><text fill="#666666" font-family="monospace" font-size="12" lengthAdjust="spacingAndGlyphs" textLength="119" x="683" y="1498.5869">Cleaning Schedule</text><rect fill="#FFFFFF" height="33.9688" rx="12.5" ry="12.5" style="stroke: #666666; stroke-width: 1.5;" width="139" x="673" y="1851.1045"/><text fill="#666666" font-family="monospace" font-size="12" lengthAdjust="spacingAndGlyphs" textLength="119" x="683" y="1872.2432">Cleaning Schedule</text><rect fill="#FFFFFF" height="33.9688" rx="12.5" ry="12.5" style="stroke: #666666; stroke-width: 1.5;" width="104" x="690.5" y="1920.0732"/><text fill="#666666" font-family="monospace" font-size="12" lengthAdjust="spacingAndGlyphs" textLength="84" x="700.5" y="1941.2119">Guest Roster</text><rect fill="#FFFFFF" height="33.9688" rx="12.5" ry="12.5" style="stroke: #666666; stroke-width: 1.5;" width="104" x="690.5" y="2058.0107"/><text fill="#666666" font-family="monospace" font-size="12" lengthAdjust="spacingAndGlyphs" textLength="84" x="700.5" y="2079.1494">Guest Roster</text><rect fill="#FFFFFF" height="33.9688" rx="12.5" ry="12.5" style="stroke: #666666; stroke-width: 1.5;" width="104" x="690.5" y="2445.6357"/><text fill="#666666" font-family="monospace" font-size="12" lengthAdjust="spacingAndGlyphs" textLength="84" x="700.5" y="2466.7744">Guest Roster</text><rect fill="#FFFFFF" height="33.9688" rx="12.5" ry="12.5" style="stroke: #666666; stroke-width: 1.5;" width="153" x="666" y="2902.2295"/><text fill="#666666" font-family="monospace" font-size="12" lengthAdjust="spacingAndGlyphs" textLength="133" x="676" y="2923.3682">Payments to Process</text><rect fill="#FFFFFF" height="33.9688" rx="12.5" ry="12.5" style="stroke: #666666; stroke-width: 1.5;" width="153" x="666" y="3040.167"/><text fill="#666666" font-family="monospace" font-size="12" lengthAdjust="spacingAndGlyphs" textLength="133" x="676" y="3061.3057">Payments to Process</text><rect fill="#FFFFFF" height="33.9688" rx="12.5" ry="12.5" style="stroke: #666666; stroke-width: 1.5;" width="153" x="666" y="3357.9482"/><text fill="#666666" font-family="monospace" font-size="12" lengthAdjust="spacingAndGlyphs" textLength="133" x="676" y="3379.0869">Payments to Process</text><rect fill="#FFFFFF" height="33.9688" rx="12.5" ry="12.5" style="stroke: #666666; stroke-width: 1.5;" width="104" x="690.5" y="3426.917"/><text fill="#666666" font-family="monospace" font-size="12" lengthAdjust="spacingAndGlyphs" textLength="84" x="700.5" y="3448.0557">Sales Report</text><rect fill="#FFFFFF" height="33.9688" rx="12.5" ry="12.5" style="stroke: #666666; stroke-width: 1.5;" width="104" x="690.5" y="3869.542"/><text fill="#666666" font-family="monospace" font-size="12" lengthAdjust="spacingAndGlyphs" textLength="84" x="700.5" y="3890.6807">Guest Roster</text><rect fill="#FFFFFF" height="33.9688" rx="12.5" ry="12.5" style="stroke: #666666; stroke-width: 1.5;" width="104" x="690.5" y="4007.4795"/><text fill="#666666" font-family="monospace" font-size="12" lengthAdjust="spacingAndGlyphs" textLength="84" x="700.5" y="4028.6182">Guest Roster</text><rect fill="#FFFFFF" height="33.9688" rx="12.5" ry="12.5" style="stroke: #666666; stroke-width: 1.5;" width="104" x="690.5" y="4325.2607"/><text fill="#666666" font-family="monospace" font-size="12" lengthAdjust="spacingAndGlyphs" textLength="84" x="700.5" y="4346.3994">Guest Roster</text><rect fill="#FFFFFF" height="4346.4844" style="stroke: #FFFFFF; stroke-width: 1.0;" width="109" x="828" y="12.7451"/><rect fill="#FFFFFF" height="89.8438" rx="12.5" ry="12.5" style="stroke: #666666; stroke-width: 1.5;" width="90" x="838" y="3564.8545"/><text fill="#666666" font-family="monospace" font-size="12" lengthAdjust="spacingAndGlyphs" textLength="0" x="855" y="3585.9932"/><text fill="#666666" font-family="monospace" font-size="12" font-weight="bold" lengthAdjust="spacingAndGlyphs" textLength="21" x="848" y="3599.9619">GPS</text><text fill="#666666" font-family="monospace" font-size="12" lengthAdjust="spacingAndGlyphs" textLength="63" x="848" y="3613.9307">Lat: Text</text><text fill="#666666" font-family="monospace" font-size="12" lengthAdjust="spacingAndGlyphs" textLength="70" x="848" y="3627.8994">Long: Text</text><text fill="#666666" font-family="monospace" font-size="12" lengthAdjust="spacingAndGlyphs" textLength="0" x="855" y="3641.8682"/><line style="stroke: #666666; stroke-width: 1.5;" x1="742.5" x2="742.5" y1="1885.0732" y2="1920.0732"/><polygon fill="#666666" points="738.5,1910.0732,742.5,1920.0732,746.5,1910.0732,742.5,1914.0732" style="stroke: #666666; stroke-width: 1.0;"/><line style="stroke: #666666; stroke-width: 1.5;" x1="742.5" x2="742.5" y1="3391.917" y2="3426.917"/><polygon fill="#666666" points="738.5,3416.917,742.5,3426.917,746.5,3416.917,742.5,3420.917" style="stroke: #666666; stroke-width: 1.0;"/><line style="stroke: #666666; stroke-width: 1.5;" x1="89.5" x2="89.5" y1="72.667" y2="90.167"/><line style="stroke: #666666; stroke-width: 1.5;" x1="89.5" x2="251" y1="90.167" y2="90.167"/><line style="stroke: #666666; stroke-width: 1.5;" x1="251" x2="251" y1="90.167" y2="107.667"/><polygon fill="#666666" points="247,97.667,251,107.667,255,97.667,251,101.667" style="stroke: #666666; stroke-width: 1.0;"/><line style="stroke: #666666; stroke-width: 1.5;" x1="251" x2="251" y1="211.4795" y2="228.9795"/><line style="stroke: #666666; stroke-width: 1.5;" x1="251" x2="416" y1="228.9795" y2="228.9795"/><line style="stroke: #666666; stroke-width: 1.5;" x1="416" x2="416" y1="228.9795" y2="246.4795"/><polygon fill="#666666" points="412,236.4795,416,246.4795,420,236.4795,416,240.4795" style="stroke: #666666; stroke-width: 1.0;"/><line style="stroke: #666666; stroke-width: 1.5;" x1="416" x2="416" y1="322.3545" y2="339.8545"/><line style="stroke: #666666; stroke-width: 1.5;" x1="416" x2="577.5" y1="339.8545" y2="339.8545"/><line style="stroke: #666666; stroke-width: 1.5;" x1="577.5" x2="577.5" y1="339.8545" y2="357.3545"/><polygon fill="#666666" points="573.5,347.3545,577.5,357.3545,581.5,347.3545,577.5,351.3545" style="stroke: #666666; stroke-width: 1.0;"/><line style="stroke: #666666; stroke-width: 1.5;" x1="89.5" x2="89.5" y1="460.292" y2="477.792"/><line style="stroke: #666666; stroke-width: 1.5;" x1="89.5" x2="251" y1="477.792" y2="477.792"/><line style="stroke: #666666; stroke-width: 1.5;" x1="251" x2="251" y1="477.792" y2="495.292"/><polygon fill="#666666" points="247,485.292,251,495.292,255,485.292,251,489.292" style="stroke: #666666; stroke-width: 1.0;"/><line style="stroke: #666666; stroke-width: 1.5;" x1="251" x2="251" y1="599.1045" y2="616.6045"/><line style="stroke: #666666; stroke-width: 1.5;" x1="251" x2="416" y1="616.6045" y2="616.6045"/><line style="stroke: #666666; stroke-width: 1.5;" x1="416" x2="416" y1="616.6045" y2="634.1045"/><polygon fill="#666666" points="412,624.1045,416,634.1045,420,624.1045,416,628.1045" style="stroke: #666666; stroke-width: 1.0;"/><line style="stroke: #666666; stroke-width: 1.5;" x1="416" x2="416" y1="709.9795" y2="727.4795"/><line style="stroke: #666666; stroke-width: 1.5;" x1="416" x2="577.5" y1="727.4795" y2="727.4795"/><line style="stroke: #666666; stroke-width: 1.5;" x1="577.5" x2="577.5" y1="727.4795" y2="744.9795"/><polygon fill="#666666" points="573.5,734.9795,577.5,744.9795,581.5,734.9795,577.5,738.9795" style="stroke: #666666; stroke-width: 1.0;"/><line style="stroke: #666666; stroke-width: 1.5;" x1="577.5" x2="577.5" y1="778.9482" y2="796.4482"/><line style="stroke: #666666; stroke-width: 1.5;" x1="577.5" x2="742.5" y1="796.4482" y2="796.4482"/><line style="stroke: #666666; stroke-width: 1.5;" x1="742.5" x2="742.5" y1="796.4482" y2="813.9482"/><polygon fill="#666666" points="738.5,803.9482,742.5,813.9482,746.5,803.9482,742.5,807.9482" style="stroke: #666666; stroke-width: 1.0;"/><line style="stroke: #666666; stroke-width: 1.5;" x1="89.5" x2="89.5" y1="916.8857" y2="934.3857"/><line style="stroke: #666666; stroke-width: 1.5;" x1="89.5" x2="742.5" y1="934.3857" y2="934.3857"/><line style="stroke: #666666; stroke-width: 1.5;" x1="742.5" x2="742.5" y1="934.3857" y2="951.8857"/><polygon fill="#666666" points="738.5,941.8857,742.5,951.8857,746.5,941.8857,742.5,945.8857" style="stroke: #666666; stroke-width: 1.0;"/><line style="stroke: #666666; stroke-width: 1.5;" x1="742.5" x2="742.5" y1="985.8545" y2="1003.3545"/><line style="stroke: #666666; stroke-width: 1.5;" x1="742.5" x2="251" y1="1003.3545" y2="1003.3545"/><line style="stroke: #666666; stroke-width: 1.5;" x1="251" x2="251" y1="1003.3545" y2="1020.8545"/><polygon fill="#666666" points="247,1010.8545,251,1020.8545,255,1010.8545,251,1014.8545" style="stroke: #666666; stroke-width: 1.0;"/><line style="stroke: #666666; stroke-width: 1.5;" x1="251" x2="251" y1="1124.667" y2="1142.167"/><line style="stroke: #666666; stroke-width: 1.5;" x1="251" x2="416" y1="1142.167" y2="1142.167"/><line style="stroke: #666666; stroke-width: 1.5;" x1="416" x2="416" y1="1142.167" y2="1159.667"/><polygon fill="#666666" points="412,1149.667,416,1159.667,420,1149.667,416,1153.667" style="stroke: #666666; stroke-width: 1.0;"/><line style="stroke: #666666; stroke-width: 1.5;" x1="416" x2="416" y1="1235.542" y2="1253.042"/><line style="stroke: #666666; stroke-width: 1.5;" x1="416" x2="577.5" y1="1253.042" y2="1253.042"/><line style="stroke: #666666; stroke-width: 1.5;" x1="577.5" x2="577.5" y1="1253.042" y2="1270.542"/><polygon fill="#666666" points="573.5,1260.542,577.5,1270.542,581.5,1260.542,577.5,1264.542" style="stroke: #666666; stroke-width: 1.0;"/><line style="stroke: #666666; stroke-width: 1.5;" x1="577.5" x2="577.5" y1="1304.5107" y2="1322.0107"/><line style="stroke: #666666; stroke-width: 1.5;" x1="577.5" x2="742.5" y1="1322.0107" y2="1322.0107"/><line style="stroke: #666666; stroke-width: 1.5;" x1="742.5" x2="742.5" y1="1322.0107" y2="1339.5107"/><polygon fill="#666666" points="738.5,1329.5107,742.5,1339.5107,746.5,1329.5107,742.5,1333.5107" style="stroke: #666666; stroke-width: 1.0;"/><line style="stroke: #666666; stroke-width: 1.5;" x1="89.5" x2="89.5" y1="1442.4482" y2="1459.9482"/><line style="stroke: #666666; stroke-width: 1.5;" x1="89.5" x2="742.5" y1="1459.9482" y2="1459.9482"/><line style="stroke: #666666; stroke-width: 1.5;" x1="742.5" x2="742.5" y1="1459.9482" y2="1477.4482"/><polygon fill="#666666" points="738.5,1467.4482,742.5,1477.4482,746.5,1467.4482,742.5,1471.4482" style="stroke: #666666; stroke-width: 1.0;"/><line style="stroke: #666666; stroke-width: 1.5;" x1="742.5" x2="742.5" y1="1511.417" y2="1528.917"/><line style="stroke: #666666; stroke-width: 1.5;" x1="742.5" x2="251" y1="1528.917" y2="1528.917"/><line style="stroke: #666666; stroke-width: 1.5;" x1="251" x2="251" y1="1528.917" y2="1546.417"/><polygon fill="#666666" points="247,1536.417,251,1546.417,255,1536.417,251,1540.417" style="stroke: #666666; stroke-width: 1.0;"/><line style="stroke: #666666; stroke-width: 1.5;" x1="251" x2="251" y1="1636.2607" y2="1653.7607"/><line style="stroke: #666666; stroke-width: 1.5;" x1="251" x2="416" y1="1653.7607" y2="1653.7607"/><line style="stroke: #666666; stroke-width: 1.5;" x1="416" x2="416" y1="1653.7607" y2="1671.2607"/><polygon fill="#666666" points="412,1661.2607,416,1671.2607,420,1661.2607,416,1665.2607" style="stroke: #666666; stroke-width: 1.0;"/><line style="stroke: #666666; stroke-width: 1.5;" x1="416" x2="416" y1="1747.1357" y2="1764.6357"/><line style="stroke: #666666; stroke-width: 1.5;" x1="416" x2="577.5" y1="1764.6357" y2="1764.6357"/><line style="stroke: #666666; stroke-width: 1.5;" x1="577.5" x2="577.5" y1="1764.6357" y2="1782.1357"/><polygon fill="#666666" points="573.5,1772.1357,577.5,1782.1357,581.5,1772.1357,577.5,1776.1357" style="stroke: #666666; stroke-width: 1.0;"/><line style="stroke: #666666; stroke-width: 1.5;" x1="577.5" x2="577.5" y1="1816.1045" y2="1833.6045"/><line style="stroke: #666666; stroke-width: 1.5;" x1="577.5" x2="742.5" y1="1833.6045" y2="1833.6045"/><line style="stroke: #666666; stroke-width: 1.5;" x1="742.5" x2="742.5" y1="1833.6045" y2="1851.1045"/><polygon fill="#666666" points="738.5,1841.1045,742.5,1851.1045,746.5,1841.1045,742.5,1845.1045" style="stroke: #666666; stroke-width: 1.0;"/><line style="stroke: #666666; stroke-width: 1.5;" x1="89.5" x2="89.5" y1="2023.0107" y2="2040.5107"/><line style="stroke: #666666; stroke-width: 1.5;" x1="89.5" x2="742.5" y1="2040.5107" y2="2040.5107"/><line style="stroke: #666666; stroke-width: 1.5;" x1="742.5" x2="742.5" y1="2040.5107" y2="2058.0107"/><polygon fill="#666666" points="738.5,2048.0107,742.5,2058.0107,746.5,2048.0107,742.5,2052.0107" style="stroke: #666666; stroke-width: 1.0;"/><line style="stroke: #666666; stroke-width: 1.5;" x1="742.5" x2="742.5" y1="2091.9795" y2="2109.4795"/><line style="stroke: #666666; stroke-width: 1.5;" x1="742.5" x2="251" y1="2109.4795" y2="2109.4795"/><line style="stroke: #666666; stroke-width: 1.5;" x1="251" x2="251" y1="2109.4795" y2="2126.9795"/><polygon fill="#666666" points="247,2116.9795,251,2126.9795,255,2116.9795,251,2120.9795" style="stroke: #666666; stroke-width: 1.0;"/><line style="stroke: #666666; stroke-width: 1.5;" x1="251" x2="251" y1="2230.792" y2="2248.292"/><line style="stroke: #666666; stroke-width: 1.5;" x1="251" x2="416" y1="2248.292" y2="2248.292"/><line style="stroke: #666666; stroke-width: 1.5;" x1="416" x2="416" y1="2248.292" y2="2265.792"/><polygon fill="#666666" points="412,2255.792,416,2265.792,420,2255.792,416,2259.792" style="stroke: #666666; stroke-width: 1.0;"/><line style="stroke: #666666; stroke-width: 1.5;" x1="416" x2="416" y1="2341.667" y2="2359.167"/><line style="stroke: #666666; stroke-width: 1.5;" x1="416" x2="577.5" y1="2359.167" y2="2359.167"/><line style="stroke: #666666; stroke-width: 1.5;" x1="577.5" x2="577.5" y1="2359.167" y2="2376.667"/><polygon fill="#666666" points="573.5,2366.667,577.5,2376.667,581.5,2366.667,577.5,2370.667" style="stroke: #666666; stroke-width: 1.0;"/><line style="stroke: #666666; stroke-width: 1.5;" x1="577.5" x2="577.5" y1="2410.6357" y2="2428.1357"/><line style="stroke: #666666; stroke-width: 1.5;" x1="577.5" x2="742.5" y1="2428.1357" y2="2428.1357"/><line style="stroke: #666666; stroke-width: 1.5;" x1="742.5" x2="742.5" y1="2428.1357" y2="2445.6357"/><polygon fill="#666666" points="738.5,2435.6357,742.5,2445.6357,746.5,2435.6357,742.5,2439.6357" style="stroke: #666666; stroke-width: 1.0;"/><line style="stroke: #666666; stroke-width: 1.5;" x1="89.5" x2="89.5" y1="2548.5732" y2="2566.0732"/><line style="stroke: #666666; stroke-width: 1.5;" x1="89.5" x2="251" y1="2566.0732" y2="2566.0732"/><line style="stroke: #666666; stroke-width: 1.5;" x1="251" x2="251" y1="2566.0732" y2="2583.5732"/><polygon fill="#666666" points="247,2573.5732,251,2583.5732,255,2573.5732,251,2577.5732" style="stroke: #666666; stroke-width: 1.0;"/><line style="stroke: #666666; stroke-width: 1.5;" x1="251" x2="251" y1="2687.3857" y2="2704.8857"/><line style="stroke: #666666; stroke-width: 1.5;" x1="251" x2="416" y1="2704.8857" y2="2704.8857"/><line style="stroke: #666666; stroke-width: 1.5;" x1="416" x2="416" y1="2704.8857" y2="2722.3857"/><polygon fill="#666666" points="412,2712.3857,416,2722.3857,420,2712.3857,416,2716.3857" style="stroke: #666666; stroke-width: 1.0;"/><line style="stroke: #666666; stroke-width: 1.5;" x1="416" x2="416" y1="2798.2607" y2="2815.7607"/><line style="stroke: #666666; stroke-width: 1.5;" x1="416" x2="577.5" y1="2815.7607" y2="2815.7607"/><line style="stroke: #666666; stroke-width: 1.5;" x1="577.5" x2="577.5" y1="2815.7607" y2="2833.2607"/><polygon fill="#666666" points="573.5,2823.2607,577.5,2833.2607,581.5,2823.2607,577.5,2827.2607" style="stroke: #666666; stroke-width: 1.0;"/><line style="stroke: #666666; stroke-width: 1.5;" x1="577.5" x2="577.5" y1="2867.2295" y2="2884.7295"/><line style="stroke: #666666; stroke-width: 1.5;" x1="577.5" x2="742.5" y1="2884.7295" y2="2884.7295"/><line style="stroke: #666666; stroke-width: 1.5;" x1="742.5" x2="742.5" y1="2884.7295" y2="2902.2295"/><polygon fill="#666666" points="738.5,2892.2295,742.5,2902.2295,746.5,2892.2295,742.5,2896.2295" style="stroke: #666666; stroke-width: 1.0;"/><line style="stroke: #666666; stroke-width: 1.5;" x1="89.5" x2="89.5" y1="3005.167" y2="3022.667"/><line style="stroke: #666666; stroke-width: 1.5;" x1="89.5" x2="742.5" y1="3022.667" y2="3022.667"/><line style="stroke: #666666; stroke-width: 1.5;" x1="742.5" x2="742.5" y1="3022.667" y2="3040.167"/><polygon fill="#666666" points="738.5,3030.167,742.5,3040.167,746.5,3030.167,742.5,3034.167" style="stroke: #666666; stroke-width: 1.0;"/><line style="stroke: #666666; stroke-width: 1.5;" x1="742.5" x2="742.5" y1="3074.1357" y2="3091.6357"/><line style="stroke: #666666; stroke-width: 1.5;" x1="742.5" x2="251" y1="3091.6357" y2="3091.6357"/><line style="stroke: #666666; stroke-width: 1.5;" x1="251" x2="251" y1="3091.6357" y2="3109.1357"/><polygon fill="#666666" points="247,3099.1357,251,3109.1357,255,3099.1357,251,3103.1357" style="stroke: #666666; stroke-width: 1.0;"/><line style="stroke: #666666; stroke-width: 1.5;" x1="251" x2="251" y1="3143.1045" y2="3160.6045"/><line style="stroke: #666666; stroke-width: 1.5;" x1="251" x2="416" y1="3160.6045" y2="3160.6045"/><line style="stroke: #666666; stroke-width: 1.5;" x1="416" x2="416" y1="3160.6045" y2="3178.1045"/><polygon fill="#666666" points="412,3168.1045,416,3178.1045,420,3168.1045,416,3172.1045" style="stroke: #666666; stroke-width: 1.0;"/><line style="stroke: #666666; stroke-width: 1.5;" x1="416" x2="416" y1="3253.9795" y2="3271.4795"/><line style="stroke: #666666; stroke-width: 1.5;" x1="416" x2="577.5" y1="3271.4795" y2="3271.4795"/><line style="stroke: #666666; stroke-width: 1.5;" x1="577.5" x2="577.5" y1="3271.4795" y2="3288.9795"/><polygon fill="#666666" points="573.5,3278.9795,577.5,3288.9795,581.5,3278.9795,577.5,3282.9795" style="stroke: #666666; stroke-width: 1.0;"/><line style="stroke: #666666; stroke-width: 1.5;" x1="577.5" x2="577.5" y1="3322.9482" y2="3340.4482"/><line style="stroke: #666666; stroke-width: 1.5;" x1="577.5" x2="742.5" y1="3340.4482" y2="3340.4482"/><line style="stroke: #666666; stroke-width: 1.5;" x1="742.5" x2="742.5" y1="3340.4482" y2="3357.9482"/><polygon fill="#666666" points="738.5,3347.9482,742.5,3357.9482,746.5,3347.9482,742.5,3351.9482" style="stroke: #666666; stroke-width: 1.0;"/><line style="stroke: #666666; stroke-width: 1.5;" x1="89.5" x2="89.5" y1="3529.8545" y2="3547.3545"/><line style="stroke: #666666; stroke-width: 1.5;" x1="89.5" x2="883" y1="3547.3545" y2="3547.3545"/><line style="stroke: #666666; stroke-width: 1.5;" x1="883" x2="883" y1="3547.3545" y2="3564.8545"/><polygon fill="#666666" points="879,3554.8545,883,3564.8545,887,3554.8545,883,3558.8545" style="stroke: #666666; stroke-width: 1.0;"/><line style="stroke: #666666; stroke-width: 1.5;" x1="883" x2="883" y1="3654.6982" y2="3672.1982"/><line style="stroke: #666666; stroke-width: 1.5;" x1="883" x2="416" y1="3672.1982" y2="3672.1982"/><line style="stroke: #666666; stroke-width: 1.5;" x1="416" x2="416" y1="3672.1982" y2="3689.6982"/><polygon fill="#666666" points="412,3679.6982,416,3689.6982,420,3679.6982,416,3683.6982" style="stroke: #666666; stroke-width: 1.0;"/><line style="stroke: #666666; stroke-width: 1.5;" x1="416" x2="416" y1="3765.5732" y2="3783.0732"/><line style="stroke: #666666; stroke-width: 1.5;" x1="416" x2="577.5" y1="3783.0732" y2="3783.0732"/><line style="stroke: #666666; stroke-width: 1.5;" x1="577.5" x2="577.5" y1="3783.0732" y2="3800.5732"/><polygon fill="#666666" points="573.5,3790.5732,577.5,3800.5732,581.5,3790.5732,577.5,3794.5732" style="stroke: #666666; stroke-width: 1.0;"/><line style="stroke: #666666; stroke-width: 1.5;" x1="577.5" x2="577.5" y1="3834.542" y2="3852.042"/><line style="stroke: #666666; stroke-width: 1.5;" x1="577.5" x2="742.5" y1="3852.042" y2="3852.042"/><line style="stroke: #666666; stroke-width: 1.5;" x1="742.5" x2="742.5" y1="3852.042" y2="3869.542"/><polygon fill="#666666" points="738.5,3859.542,742.5,3869.542,746.5,3859.542,742.5,3863.542" style="stroke: #666666; stroke-width: 1.0;"/><line style="stroke: #666666; stroke-width: 1.5;" x1="89.5" x2="89.5" y1="3972.4795" y2="3989.9795"/><line style="stroke: #666666; stroke-width: 1.5;" x1="89.5" x2="742.5" y1="3989.9795" y2="3989.9795"/><line style="stroke: #666666; stroke-width: 1.5;" x1="742.5" x2="742.5" y1="3989.9795" y2="4007.4795"/><polygon fill="#666666" points="738.5,3997.4795,742.5,4007.4795,746.5,3997.4795,742.5,4001.4795" style="stroke: #666666; stroke-width: 1.0;"/><line style="stroke: #666666; stroke-width: 1.5;" x1="742.5" x2="742.5" y1="4041.4482" y2="4058.9482"/><line style="stroke: #666666; stroke-width: 1.5;" x1="742.5" x2="251" y1="4058.9482" y2="4058.9482"/><line style="stroke: #666666; stroke-width: 1.5;" x1="251" x2="251" y1="4058.9482" y2="4076.4482"/><polygon fill="#666666" points="247,4066.4482,251,4076.4482,255,4066.4482,251,4070.4482" style="stroke: #666666; stroke-width: 1.0;"/><line style="stroke: #666666; stroke-width: 1.5;" x1="251" x2="251" y1="4110.417" y2="4127.917"/><line style="stroke: #666666; stroke-width: 1.5;" x1="251" x2="416" y1="4127.917" y2="4127.917"/><line style="stroke: #666666; stroke-width: 1.5;" x1="416" x2="416" y1="4127.917" y2="4145.417"/><polygon fill="#666666" points="412,4135.417,416,4145.417,420,4135.417,416,4139.417" style="stroke: #666666; stroke-width: 1.0;"/><line style="stroke: #666666; stroke-width: 1.5;" x1="416" x2="416" y1="4221.292" y2="4238.792"/><line style="stroke: #666666; stroke-width: 1.5;" x1="416" x2="577.5" y1="4238.792" y2="4238.792"/><line style="stroke: #666666; stroke-width: 1.5;" x1="577.5" x2="577.5" y1="4238.792" y2="4256.292"/><polygon fill="#666666" points="573.5,4246.292,577.5,4256.292,581.5,4246.292,577.5,4250.292" style="stroke: #666666; stroke-width: 1.0;"/><line style="stroke: #666666; stroke-width: 1.5;" x1="577.5" x2="577.5" y1="4290.2607" y2="4307.7607"/><line style="stroke: #666666; stroke-width: 1.5;" x1="577.5" x2="742.5" y1="4307.7607" y2="4307.7607"/><line style="stroke: #666666; stroke-width: 1.5;" x1="742.5" x2="742.5" y1="4307.7607" y2="4325.2607"/><polygon fill="#666666" points="738.5,4315.2607,742.5,4325.2607,746.5,4315.2607,742.5,4319.2607" style="stroke: #666666; stroke-width: 1.0;"/><text fill="#333333" font-family="monospace" font-size="18" lengthAdjust="spacingAndGlyphs" textLength="88" x="45" y="29.4531">Scenario</text><text fill="#333333" font-family="monospace" font-size="18" lengthAdjust="spacingAndGlyphs" textLength="66" x="217.5" y="29.4531">Client</text><text fill="#333333" font-family="monospace" font-size="18" lengthAdjust="spacingAndGlyphs" textLength="77" x="377" y="29.4531">Command</text><text fill="#333333" font-family="monospace" font-size="18" lengthAdjust="spacingAndGlyphs" textLength="55" x="549.5" y="29.4531">Event</text><text fill="#333333" font-family="monospace" font-size="18" lengthAdjust="spacingAndGlyphs" textLength="44" x="720" y="29.4531">View</text><text fill="#333333" font-family="monospace" font-size="18" lengthAdjust="spacingAndGlyphs" textLength="88" x="838.5" y="29.4531">Provider</text><line style="stroke: #BBBBBB; stroke-width: 2.0;" x1="10" x2="10" y1="12.7451" y2="4359.2295"/><line style="stroke: #BBBBBB; stroke-width: 2.0;" x1="168" x2="168" y1="12.7451" y2="4359.2295"/><line style="stroke: #BBBBBB; stroke-width: 2.0;" x1="333" x2="333" y1="12.7451" y2="4359.2295"/><line style="stroke: #BBBBBB; stroke-width: 2.0;" x1="498" x2="498" y1="12.7451" y2="4359.2295"/><line style="stroke: #BBBBBB; stroke-width: 2.0;" x1="656" x2="656" y1="12.7451" y2="4359.2295"/><line style="stroke: #BBBBBB; stroke-width: 2.0;" x1="828" x2="828" y1="12.7451" y2="4359.2295"/><line style="stroke: #BBBBBB; stroke-width: 2.0;" x1="937" x2="937" y1="12.7451" y2="4359.2295"/><!--MD5=[6ada339fc45559e6b4f1441d157b5c88]
@startuml


skinparam Default {
  FontName          Monospaced
  FontColor         #666666
  FontSize          12
}

skinparam Arrow {
  Color             #666666
}

skinparam Activity {
  BackgroundColor   #FFFFFF
  BorderColor       #666666
}

skinparam Swimlane {
  TitleFontColor    #333333
  TitleFontSize     18
  BorderColor       #BBBBBB
}

skinparam Shadowing	false

|#EEEEEE|Scenario|
|#FFFFFF|Client|
|#DBE8F9|Command|
|#FFE5D8|Event|
|#E8FBE8|View|
|#FFFFFF|Provider|



|Scenario|
:Register;
|Client|
:
**Guest**
Username: Text
Password: Text
Register: Button
;
|Command|
:
**Auth**
Register
;
|Event|
:Registered;
detach


|Scenario|
:Add Room;
|Client|
:
**Manager**
Field 1: Text
Field 2: Text
Add Room: Button
;
|Command|
:
**Inventory**
Add Room
;
|Event|
:Room Added;
|View|
:Room Availability;
detach


|Scenario|
:Book Room;
|View|
:Room Availability;
|Client|
:
**Guest**
Date: Picker
Rooms: List
Book Room: Button
;
|Command|
:
**Inventory**
Book Room
;
|Event|
:Room Booked;
|View|
:Cleaning Schedule;
detach


|Scenario|
:Ready Room;
|View|
:Cleaning Schedule;
|Client|
:
**Manager**
Tasks: List
Ready Room: Button
;
|Command|
:
**Inventory**
Ready Room
;
|Event|
:Room Readied;
|View|
:Cleaning Schedule;
:Guest Roster;
detach


|Scenario|
:Check In;
|View|
:Guest Roster;
|Client|
:
**Manager**
Field1: Text
Field2: Text
Check In: Button
;
|Command|
:
**Inventory**
Check In
;
|Event|
:Checked In;
|View|
:Guest Roster;
detach


|Scenario|
:Payment Request;
|Client|
:
**Guest**
Card Number: Text
Amount: Currency
Pay: Button
;
|Command|
:
**Payment**
Pay
;
|Event|
:Payment Requested;
|View|
:Payments to Process;
detach


|Scenario|
:Payment Succeeded;
|View|
:Payments to Process;
|Client|
:Payment Processor;
|Command|
:
**Payment**
Process Payment
;
|Event|
:Payment Succeeded;
|View|
:Payments to Process;
:Sales Report;
detach


|Scenario|
:Guest Left Hotel;
|Provider|
:
**GPS**
Lat: Text
Long: Text
;
|Command|
:
**Inventory**
Translate Location
;
|Event|
:Guest Left Hotel;
|View|
:Guest Roster;
detach


|Scenario|
:Check Out;
|View|
:Guest Roster;
|Client|
:Checkout Processor;
|Command|
:
**Inventory**
Check Out
;
|Event|
:Checked Out;
|View|
:Guest Roster;
detach
@enduml

PlantUML version 1.2019.11(Sun Sep 22 12:02:15 CEST 2019)
(GPL source distribution)
Java Runtime: OpenJDK Runtime Environment
JVM: OpenJDK 64-Bit Server VM
Java Version: 1.8.0_222-8u222-b10-1ubuntu1~16.04.1-b10
Operating System: Linux
Default Encoding: UTF-8
Language: en
Country: US
--></g></svg>