<?xml version="1.0" encoding="UTF-8" standalone="no"?><svg xmlns="http://www.w3.org/2000/svg" xmlns:xlink="http://www.w3.org/1999/xlink" contentScriptType="application/ecmascript" contentStyleType="text/css" height="4131px" preserveAspectRatio="none" style="width:1267px;height:4131px;" version="1.1" viewBox="0 0 1267 4131" width="1267px" zoomAndPan="magnify"><defs/><g><rect fill="#EEEEEE" height="4106.3906" style="stroke: #EEEEEE; stroke-width: 1.0;" width="221" x="10" y="12.7451"/><rect fill="#FFFFFF" height="33.9688" rx="12.5" ry="12.5" style="stroke: #666666; stroke-width: 1.5;" width="139" x="51.5" y="38.6982"/><text fill="#666666" font-family="monospace" font-size="12" lengthAdjust="spacingAndGlyphs" textLength="119" x="61.5" y="59.8369">Manager adds room</text><rect fill="#FFFFFF" height="33.9688" rx="12.5" ry="12.5" style="stroke: #666666; stroke-width: 1.5;" width="146" x="48" y="439.417"/><text fill="#666666" font-family="monospace" font-size="12" lengthAdjust="spacingAndGlyphs" textLength="126" x="58" y="460.5557">Guest registration</text><rect fill="#FFFFFF" height="33.9688" rx="12.5" ry="12.5" style="stroke: #666666; stroke-width: 1.5;" width="132" x="55" y="771.167"/><text fill="#666666" font-family="monospace" font-size="12" lengthAdjust="spacingAndGlyphs" textLength="112" x="65" y="792.3057">Guest books room</text><rect fill="#FFFFFF" height="47.9375" rx="12.5" ry="12.5" style="stroke: #666666; stroke-width: 1.5;" width="118" x="62" y="1309.8232"/><text fill="#666666" font-family="monospace" font-size="12" lengthAdjust="spacingAndGlyphs" textLength="98" x="72" y="1330.9619">Get room ready</text><text fill="#666666" font-family="monospace" font-size="12" lengthAdjust="spacingAndGlyphs" textLength="63" x="72" y="1344.9307">for guest</text><rect fill="#FFFFFF" height="33.9688" rx="12.5" ry="12.5" style="stroke: #666666; stroke-width: 1.5;" width="125" x="58.5" y="1848.4795"/><text fill="#666666" font-family="monospace" font-size="12" lengthAdjust="spacingAndGlyphs" textLength="105" x="68.5" y="1869.6182">Guest checks in</text><rect fill="#FFFFFF" height="33.9688" rx="12.5" ry="12.5" style="stroke: #666666; stroke-width: 1.5;" width="181" x="30.5" y="2318.167"/><text fill="#666666" font-family="monospace" font-size="12" lengthAdjust="spacingAndGlyphs" textLength="161" x="40.5" y="2339.3057">Guest initiates payment</text><rect fill="#FFFFFF" height="33.9688" rx="12.5" ry="12.5" style="stroke: #666666; stroke-width: 1.5;" width="181" x="30.5" y="2787.8545"/><text fill="#666666" font-family="monospace" font-size="12" lengthAdjust="spacingAndGlyphs" textLength="161" x="40.5" y="2808.9932">Guest paid successfully</text><rect fill="#FFFFFF" height="33.9688" rx="12.5" ry="12.5" style="stroke: #666666; stroke-width: 1.5;" width="202" x="20" y="3270.6357"/><text fill="#666666" font-family="monospace" font-size="12" lengthAdjust="spacingAndGlyphs" textLength="182" x="30" y="3291.7744">Guest left hotel proximity</text><rect fill="#FFFFFF" height="33.9688" rx="12.5" ry="12.5" style="stroke: #666666; stroke-width: 1.5;" width="132" x="55" y="3740.3232"/><text fill="#666666" font-family="monospace" font-size="12" lengthAdjust="spacingAndGlyphs" textLength="112" x="65" y="3761.4619">Process checkout</text><rect fill="#FFFFFF" height="89.8438" rx="12.5" ry="12.5" style="stroke: #666666; stroke-width: 1.5;" width="132" x="244.5" y="508.3857"/><text fill="#666666" font-family="monospace" font-size="12" lengthAdjust="spacingAndGlyphs" textLength="0" x="261.5" y="529.5244"/><text fill="#666666" font-family="monospace" font-size="12" lengthAdjust="spacingAndGlyphs" textLength="98" x="254.5" y="543.4932">Username: Text</text><text fill="#666666" font-family="monospace" font-size="12" lengthAdjust="spacingAndGlyphs" textLength="98" x="254.5" y="557.4619">Password: Text</text><text fill="#666666" font-family="monospace" font-size="12" lengthAdjust="spacingAndGlyphs" textLength="112" x="254.5" y="571.4307">Register: Button</text><text fill="#666666" font-family="monospace" font-size="12" lengthAdjust="spacingAndGlyphs" textLength="0" x="261.5" y="585.3994"/><rect fill="#E8FBE8" height="33.9688" rx="12.5" ry="12.5" style="stroke: #666666; stroke-width: 1.5;" width="139" x="241" y="840.1357"/><text fill="#666666" font-family="monospace" font-size="12" lengthAdjust="spacingAndGlyphs" textLength="119" x="251" y="861.2744">Room Availability</text><rect fill="#FFFFFF" height="89.8438" rx="12.5" ry="12.5" style="stroke: #666666; stroke-width: 1.5;" width="139" x="241" y="909.1045"/><text fill="#666666" font-family="monospace" font-size="12" lengthAdjust="spacingAndGlyphs" textLength="0" x="258" y="930.2432"/><text fill="#666666" font-family="monospace" font-size="12" lengthAdjust="spacingAndGlyphs" textLength="84" x="251" y="944.2119">Date: Picker</text><text fill="#666666" font-family="monospace" font-size="12" lengthAdjust="spacingAndGlyphs" textLength="77" x="251" y="958.1807">Rooms: List</text><text fill="#666666" font-family="monospace" font-size="12" lengthAdjust="spacingAndGlyphs" textLength="119" x="251" y="972.1494">Book Room: Button</text><text fill="#666666" font-family="monospace" font-size="12" lengthAdjust="spacingAndGlyphs" textLength="0" x="258" y="986.1182"/><rect fill="#E8FBE8" height="33.9688" rx="12.5" ry="12.5" style="stroke: #666666; stroke-width: 1.5;" width="111" x="255" y="2387.1357"/><text fill="#666666" font-family="monospace" font-size="12" lengthAdjust="spacingAndGlyphs" textLength="91" x="265" y="2408.2744">Guest Invoice</text><rect fill="#FFFFFF" height="89.8438" rx="12.5" ry="12.5" style="stroke: #666666; stroke-width: 1.5;" width="139" x="241" y="2456.1045"/><text fill="#666666" font-family="monospace" font-size="12" lengthAdjust="spacingAndGlyphs" textLength="0" x="258" y="2477.2432"/><text fill="#666666" font-family="monospace" font-size="12" lengthAdjust="spacingAndGlyphs" textLength="119" x="251" y="2491.2119">Card Number: Text</text><text fill="#666666" font-family="monospace" font-size="12" lengthAdjust="spacingAndGlyphs" textLength="112" x="251" y="2505.1807">Amount: Currency</text><text fill="#666666" font-family="monospace" font-size="12" lengthAdjust="spacingAndGlyphs" textLength="77" x="251" y="2519.1494">Pay: Button</text><text fill="#666666" font-family="monospace" font-size="12" lengthAdjust="spacingAndGlyphs" textLength="0" x="258" y="2533.1182"/><rect fill="#FFFFFF" height="89.8438" rx="12.5" ry="12.5" style="stroke: #666666; stroke-width: 1.5;" width="132" x="397" y="107.667"/><text fill="#666666" font-family="monospace" font-size="12" lengthAdjust="spacingAndGlyphs" textLength="0" x="414" y="128.8057"/><text fill="#666666" font-family="monospace" font-size="12" lengthAdjust="spacingAndGlyphs" textLength="91" x="407" y="142.7744">Field 1: Text</text><text fill="#666666" font-family="monospace" font-size="12" lengthAdjust="spacingAndGlyphs" textLength="91" x="407" y="156.7432">Field 2: Text</text><text fill="#666666" font-family="monospace" font-size="12" lengthAdjust="spacingAndGlyphs" textLength="112" x="407" y="170.7119">Add Room: Button</text><text fill="#666666" font-family="monospace" font-size="12" lengthAdjust="spacingAndGlyphs" textLength="0" x="414" y="184.6807"/><rect fill="#E8FBE8" height="33.9688" rx="12.5" ry="12.5" style="stroke: #666666; stroke-width: 1.5;" width="139" x="393.5" y="1392.7607"/><text fill="#666666" font-family="monospace" font-size="12" lengthAdjust="spacingAndGlyphs" textLength="119" x="403.5" y="1413.8994">Cleaning Schedule</text><rect fill="#FFFFFF" height="75.875" rx="12.5" ry="12.5" style="stroke: #666666; stroke-width: 1.5;" width="146" x="390" y="1461.7295"/><text fill="#666666" font-family="monospace" font-size="12" lengthAdjust="spacingAndGlyphs" textLength="0" x="407" y="1482.8682"/><text fill="#666666" font-family="monospace" font-size="12" lengthAdjust="spacingAndGlyphs" textLength="77" x="400" y="1496.8369">Tasks: List</text><text fill="#666666" font-family="monospace" font-size="12" lengthAdjust="spacingAndGlyphs" textLength="126" x="400" y="1510.8057">Ready Room: Button</text><text fill="#666666" font-family="monospace" font-size="12" lengthAdjust="spacingAndGlyphs" textLength="0" x="407" y="1524.7744"/><rect fill="#E8FBE8" height="33.9688" rx="12.5" ry="12.5" style="stroke: #666666; stroke-width: 1.5;" width="104" x="411" y="1917.4482"/><text fill="#666666" font-family="monospace" font-size="12" lengthAdjust="spacingAndGlyphs" textLength="84" x="421" y="1938.5869">Guest Roster</text><rect fill="#FFFFFF" height="89.8438" rx="12.5" ry="12.5" style="stroke: #666666; stroke-width: 1.5;" width="132" x="397" y="1986.417"/><text fill="#666666" font-family="monospace" font-size="12" lengthAdjust="spacingAndGlyphs" textLength="0" x="414" y="2007.5557"/><text fill="#666666" font-family="monospace" font-size="12" lengthAdjust="spacingAndGlyphs" textLength="84" x="407" y="2021.5244">Field1: Text</text><text fill="#666666" font-family="monospace" font-size="12" lengthAdjust="spacingAndGlyphs" textLength="84" x="407" y="2035.4932">Field2: Text</text><text fill="#666666" font-family="monospace" font-size="12" lengthAdjust="spacingAndGlyphs" textLength="112" x="407" y="2049.4619">Check In: Button</text><text fill="#666666" font-family="monospace" font-size="12" lengthAdjust="spacingAndGlyphs" textLength="0" x="414" y="2063.4307"/><rect fill="#DBE8F9" height="33.9688" rx="12.5" ry="12.5" style="stroke: #666666; stroke-width: 1.5;" width="76" x="588" y="232.5107"/><text fill="#666666" font-family="monospace" font-size="12" lengthAdjust="spacingAndGlyphs" textLength="56" x="598" y="253.6494">Add Room</text><rect fill="#FFE5D8" height="33.9688" rx="12.5" ry="12.5" style="stroke: #666666; stroke-width: 1.5;" width="90" x="581" y="301.4795"/><text fill="#666666" font-family="monospace" font-size="12" lengthAdjust="spacingAndGlyphs" textLength="70" x="591" y="322.6182">Room Added</text><rect fill="#E8FBE8" height="33.9688" rx="12.5" ry="12.5" style="stroke: #666666; stroke-width: 1.5;" width="139" x="556.5" y="370.4482"/><text fill="#666666" font-family="monospace" font-size="12" lengthAdjust="spacingAndGlyphs" textLength="119" x="566.5" y="391.5869">Room Availability</text><rect fill="#DBE8F9" height="33.9688" rx="12.5" ry="12.5" style="stroke: #666666; stroke-width: 1.5;" width="83" x="584.5" y="1033.9482"/><text fill="#666666" font-family="monospace" font-size="12" lengthAdjust="spacingAndGlyphs" textLength="63" x="594.5" y="1055.0869">Book Room</text><rect fill="#FFE5D8" height="33.9688" rx="12.5" ry="12.5" style="stroke: #666666; stroke-width: 1.5;" width="97" x="577.5" y="1102.917"/><text fill="#666666" font-family="monospace" font-size="12" lengthAdjust="spacingAndGlyphs" textLength="77" x="587.5" y="1124.0557">Room Booked</text><rect fill="#E8FBE8" height="33.9688" rx="12.5" ry="12.5" style="stroke: #666666; stroke-width: 1.5;" width="139" x="556.5" y="1171.8857"/><text fill="#666666" font-family="monospace" font-size="12" lengthAdjust="spacingAndGlyphs" textLength="119" x="566.5" y="1193.0244">Room Availability</text><rect fill="#E8FBE8" height="33.9688" rx="12.5" ry="12.5" style="stroke: #666666; stroke-width: 1.5;" width="139" x="556.5" y="1240.8545"/><text fill="#666666" font-family="monospace" font-size="12" lengthAdjust="spacingAndGlyphs" textLength="119" x="566.5" y="1261.9932">Cleaning Schedule</text><rect fill="#DBE8F9" height="33.9688" rx="12.5" ry="12.5" style="stroke: #666666; stroke-width: 1.5;" width="90" x="581" y="1572.6045"/><text fill="#666666" font-family="monospace" font-size="12" lengthAdjust="spacingAndGlyphs" textLength="70" x="591" y="1593.7432">Ready Room</text><rect fill="#FFE5D8" height="33.9688" rx="12.5" ry="12.5" style="stroke: #666666; stroke-width: 1.5;" width="104" x="574" y="1641.5732"/><text fill="#666666" font-family="monospace" font-size="12" lengthAdjust="spacingAndGlyphs" textLength="84" x="584" y="1662.7119">Room Readied</text><rect fill="#E8FBE8" height="33.9688" rx="12.5" ry="12.5" style="stroke: #666666; stroke-width: 1.5;" width="139" x="556.5" y="1710.542"/><text fill="#666666" font-family="monospace" font-size="12" lengthAdjust="spacingAndGlyphs" textLength="119" x="566.5" y="1731.6807">Cleaning Schedule</text><rect fill="#E8FBE8" height="33.9688" rx="12.5" ry="12.5" style="stroke: #666666; stroke-width: 1.5;" width="104" x="574" y="1779.5107"/><text fill="#666666" font-family="monospace" font-size="12" lengthAdjust="spacingAndGlyphs" textLength="84" x="584" y="1800.6494">Guest Roster</text><rect fill="#DBE8F9" height="33.9688" rx="12.5" ry="12.5" style="stroke: #666666; stroke-width: 1.5;" width="76" x="588" y="2111.2607"/><text fill="#666666" font-family="monospace" font-size="12" lengthAdjust="spacingAndGlyphs" textLength="56" x="598" y="2132.3994">Check In</text><rect fill="#FFE5D8" height="33.9688" rx="12.5" ry="12.5" style="stroke: #666666; stroke-width: 1.5;" width="90" x="581" y="2180.2295"/><text fill="#666666" font-family="monospace" font-size="12" lengthAdjust="spacingAndGlyphs" textLength="70" x="591" y="2201.3682">Checked In</text><rect fill="#E8FBE8" height="33.9688" rx="12.5" ry="12.5" style="stroke: #666666; stroke-width: 1.5;" width="104" x="574" y="2249.1982"/><text fill="#666666" font-family="monospace" font-size="12" lengthAdjust="spacingAndGlyphs" textLength="84" x="584" y="2270.3369">Guest Roster</text><rect fill="#FFE5D8" height="33.9688" rx="12.5" ry="12.5" style="stroke: #666666; stroke-width: 1.5;" width="160" x="546" y="3464.4482"/><text fill="#666666" font-family="monospace" font-size="12" lengthAdjust="spacingAndGlyphs" textLength="140" x="556" y="3485.5869">GPS Location Updated</text><rect fill="#DBE8F9" height="33.9688" rx="12.5" ry="12.5" style="stroke: #666666; stroke-width: 1.5;" width="146" x="553" y="3533.417"/><text fill="#666666" font-family="monospace" font-size="12" lengthAdjust="spacingAndGlyphs" textLength="126" x="563" y="3554.5557">Translate Location</text><rect fill="#FFE5D8" height="33.9688" rx="12.5" ry="12.5" style="stroke: #666666; stroke-width: 1.5;" width="132" x="560" y="3602.3857"/><text fill="#666666" font-family="monospace" font-size="12" lengthAdjust="spacingAndGlyphs" textLength="112" x="570" y="3623.5244">Guest Left Hotel</text><rect fill="#E8FBE8" height="33.9688" rx="12.5" ry="12.5" style="stroke: #666666; stroke-width: 1.5;" width="104" x="574" y="3671.3545"/><text fill="#666666" font-family="monospace" font-size="12" lengthAdjust="spacingAndGlyphs" textLength="84" x="584" y="3692.4932">Guest Roster</text><rect fill="#DBE8F9" height="33.9688" rx="12.5" ry="12.5" style="stroke: #666666; stroke-width: 1.5;" width="83" x="584.5" y="3947.2295"/><text fill="#666666" font-family="monospace" font-size="12" lengthAdjust="spacingAndGlyphs" textLength="63" x="594.5" y="3968.3682">Check Out</text><rect fill="#FFE5D8" height="33.9688" rx="12.5" ry="12.5" style="stroke: #666666; stroke-width: 1.5;" width="97" x="577.5" y="4016.1982"/><text fill="#666666" font-family="monospace" font-size="12" lengthAdjust="spacingAndGlyphs" textLength="77" x="587.5" y="4037.3369">Checked Out</text><rect fill="#E8FBE8" height="33.9688" rx="12.5" ry="12.5" style="stroke: #666666; stroke-width: 1.5;" width="104" x="574" y="4085.167"/><text fill="#666666" font-family="monospace" font-size="12" lengthAdjust="spacingAndGlyphs" textLength="84" x="584" y="4106.3057">Guest Roster</text><rect fill="#DBE8F9" height="33.9688" rx="12.5" ry="12.5" style="stroke: #666666; stroke-width: 1.5;" width="76" x="723" y="633.2295"/><text fill="#666666" font-family="monospace" font-size="12" lengthAdjust="spacingAndGlyphs" textLength="56" x="733" y="654.3682">Register</text><rect fill="#FFE5D8" height="33.9688" rx="12.5" ry="12.5" style="stroke: #666666; stroke-width: 1.5;" width="90" x="716" y="702.1982"/><text fill="#666666" font-family="monospace" font-size="12" lengthAdjust="spacingAndGlyphs" textLength="70" x="726" y="723.3369">Registered</text><rect fill="#DBE8F9" height="33.9688" rx="12.5" ry="12.5" style="stroke: #666666; stroke-width: 1.5;" width="41" x="872" y="2580.9482"/><text fill="#666666" font-family="monospace" font-size="12" lengthAdjust="spacingAndGlyphs" textLength="21" x="882" y="2602.0869">Pay</text><rect fill="#FFE5D8" height="33.9688" rx="12.5" ry="12.5" style="stroke: #666666; stroke-width: 1.5;" width="139" x="823" y="2649.917"/><text fill="#666666" font-family="monospace" font-size="12" lengthAdjust="spacingAndGlyphs" textLength="119" x="833" y="2671.0557">Payment Requested</text><rect fill="#E8FBE8" height="33.9688" rx="12.5" ry="12.5" style="stroke: #666666; stroke-width: 1.5;" width="153" x="816" y="2718.8857"/><text fill="#666666" font-family="monospace" font-size="12" lengthAdjust="spacingAndGlyphs" textLength="133" x="826" y="2740.0244">Payments to Process</text><rect fill="#DBE8F9" height="33.9688" rx="12.5" ry="12.5" style="stroke: #666666; stroke-width: 1.5;" width="125" x="830" y="2994.7607"/><text fill="#666666" font-family="monospace" font-size="12" lengthAdjust="spacingAndGlyphs" textLength="105" x="840" y="3015.8994">Process Payment</text><rect fill="#FFE5D8" height="33.9688" rx="12.5" ry="12.5" style="stroke: #666666; stroke-width: 1.5;" width="139" x="823" y="3063.7295"/><text fill="#666666" font-family="monospace" font-size="12" lengthAdjust="spacingAndGlyphs" textLength="119" x="833" y="3084.8682">Payment Succeeded</text><rect fill="#E8FBE8" height="33.9688" rx="12.5" ry="12.5" style="stroke: #666666; stroke-width: 1.5;" width="153" x="816" y="3132.6982"/><text fill="#666666" font-family="monospace" font-size="12" lengthAdjust="spacingAndGlyphs" textLength="133" x="826" y="3153.8369">Payments to Process</text><rect fill="#E8FBE8" height="33.9688" rx="12.5" ry="12.5" style="stroke: #666666; stroke-width: 1.5;" width="104" x="840.5" y="3201.667"/><text fill="#666666" font-family="monospace" font-size="12" lengthAdjust="spacingAndGlyphs" textLength="84" x="850.5" y="3222.8057">Sales Report</text><rect fill="#E8FBE8" height="33.9688" rx="12.5" ry="12.5" style="stroke: #666666; stroke-width: 1.5;" width="153" x="979" y="2856.8232"/><text fill="#666666" font-family="monospace" font-size="12" lengthAdjust="spacingAndGlyphs" textLength="133" x="989" y="2877.9619">Payments to Process</text><rect fill="#FFFFFF" height="33.9688" rx="12.5" ry="12.5" style="stroke: #666666; stroke-width: 1.5;" width="139" x="986" y="2925.792"/><text fill="#666666" font-family="monospace" font-size="12" lengthAdjust="spacingAndGlyphs" textLength="119" x="996" y="2946.9307">Payment Processor</text><rect fill="#E8FBE8" height="33.9688" rx="12.5" ry="12.5" style="stroke: #666666; stroke-width: 1.5;" width="104" x="1003.5" y="3809.292"/><text fill="#666666" font-family="monospace" font-size="12" lengthAdjust="spacingAndGlyphs" textLength="84" x="1013.5" y="3830.4307">Guest Roster</text><rect fill="#FFFFFF" height="33.9688" rx="12.5" ry="12.5" style="stroke: #666666; stroke-width: 1.5;" width="146" x="982.5" y="3878.2607"/><text fill="#666666" font-family="monospace" font-size="12" lengthAdjust="spacingAndGlyphs" textLength="126" x="992.5" y="3899.3994">Checkout Processor</text><rect fill="#FFFFFF" height="89.8438" rx="12.5" ry="12.5" style="stroke: #666666; stroke-width: 1.5;" width="104" x="1142" y="3339.6045"/><text fill="#666666" font-family="monospace" font-size="12" lengthAdjust="spacingAndGlyphs" textLength="0" x="1159" y="3360.7432"/><text fill="#666666" font-family="monospace" font-size="12" font-weight="bold" lengthAdjust="spacingAndGlyphs" textLength="84" x="1152" y="3374.7119">GPS Location</text><text fill="#666666" font-family="monospace" font-size="12" lengthAdjust="spacingAndGlyphs" textLength="63" x="1152" y="3388.6807">Lat: Text</text><text fill="#666666" font-family="monospace" font-size="12" lengthAdjust="spacingAndGlyphs" textLength="70" x="1152" y="3402.6494">Long: Text</text><text fill="#666666" font-family="monospace" font-size="12" lengthAdjust="spacingAndGlyphs" textLength="0" x="1159" y="3416.6182"/><line style="stroke: #666666; stroke-width: 1.5;" x1="310.5" x2="310.5" y1="874.1045" y2="909.1045"/><polygon fill="#666666" points="306.5,899.1045,310.5,909.1045,314.5,899.1045,310.5,903.1045" style="stroke: #666666; stroke-width: 1.0;"/><line style="stroke: #666666; stroke-width: 1.5;" x1="310.5" x2="310.5" y1="2421.1045" y2="2456.1045"/><polygon fill="#666666" points="306.5,2446.1045,310.5,2456.1045,314.5,2446.1045,310.5,2450.1045" style="stroke: #666666; stroke-width: 1.0;"/><line style="stroke: #666666; stroke-width: 1.5;" x1="463" x2="463" y1="1426.7295" y2="1461.7295"/><polygon fill="#666666" points="459,1451.7295,463,1461.7295,467,1451.7295,463,1455.7295" style="stroke: #666666; stroke-width: 1.0;"/><line style="stroke: #666666; stroke-width: 1.5;" x1="463" x2="463" y1="1951.417" y2="1986.417"/><polygon fill="#666666" points="459,1976.417,463,1986.417,467,1976.417,463,1980.417" style="stroke: #666666; stroke-width: 1.0;"/><line style="stroke: #666666; stroke-width: 1.5;" x1="626" x2="626" y1="266.4795" y2="301.4795"/><polygon fill="#666666" points="622,291.4795,626,301.4795,630,291.4795,626,295.4795" style="stroke: #666666; stroke-width: 1.0;"/><line style="stroke: #666666; stroke-width: 1.5;" x1="626" x2="626" y1="335.4482" y2="370.4482"/><polygon fill="#666666" points="622,360.4482,626,370.4482,630,360.4482,626,364.4482" style="stroke: #666666; stroke-width: 1.0;"/><line style="stroke: #666666; stroke-width: 1.5;" x1="626" x2="626" y1="1067.917" y2="1102.917"/><polygon fill="#666666" points="622,1092.917,626,1102.917,630,1092.917,626,1096.917" style="stroke: #666666; stroke-width: 1.0;"/><line style="stroke: #666666; stroke-width: 1.5;" x1="626" x2="626" y1="1136.8857" y2="1171.8857"/><polygon fill="#666666" points="622,1161.8857,626,1171.8857,630,1161.8857,626,1165.8857" style="stroke: #666666; stroke-width: 1.0;"/><line style="stroke: #666666; stroke-width: 1.5;" x1="626" x2="626" y1="1205.8545" y2="1240.8545"/><polygon fill="#666666" points="622,1230.8545,626,1240.8545,630,1230.8545,626,1234.8545" style="stroke: #666666; stroke-width: 1.0;"/><line style="stroke: #666666; stroke-width: 1.5;" x1="626" x2="626" y1="1606.5732" y2="1641.5732"/><polygon fill="#666666" points="622,1631.5732,626,1641.5732,630,1631.5732,626,1635.5732" style="stroke: #666666; stroke-width: 1.0;"/><line style="stroke: #666666; stroke-width: 1.5;" x1="626" x2="626" y1="1675.542" y2="1710.542"/><polygon fill="#666666" points="622,1700.542,626,1710.542,630,1700.542,626,1704.542" style="stroke: #666666; stroke-width: 1.0;"/><line style="stroke: #666666; stroke-width: 1.5;" x1="626" x2="626" y1="1744.5107" y2="1779.5107"/><polygon fill="#666666" points="622,1769.5107,626,1779.5107,630,1769.5107,626,1773.5107" style="stroke: #666666; stroke-width: 1.0;"/><line style="stroke: #666666; stroke-width: 1.5;" x1="626" x2="626" y1="2145.2295" y2="2180.2295"/><polygon fill="#666666" points="622,2170.2295,626,2180.2295,630,2170.2295,626,2174.2295" style="stroke: #666666; stroke-width: 1.0;"/><line style="stroke: #666666; stroke-width: 1.5;" x1="626" x2="626" y1="2214.1982" y2="2249.1982"/><polygon fill="#666666" points="622,2239.1982,626,2249.1982,630,2239.1982,626,2243.1982" style="stroke: #666666; stroke-width: 1.0;"/><line style="stroke: #666666; stroke-width: 1.5;" x1="626" x2="626" y1="3498.417" y2="3533.417"/><polygon fill="#666666" points="622,3523.417,626,3533.417,630,3523.417,626,3527.417" style="stroke: #666666; stroke-width: 1.0;"/><line style="stroke: #666666; stroke-width: 1.5;" x1="626" x2="626" y1="3567.3857" y2="3602.3857"/><polygon fill="#666666" points="622,3592.3857,626,3602.3857,630,3592.3857,626,3596.3857" style="stroke: #666666; stroke-width: 1.0;"/><line style="stroke: #666666; stroke-width: 1.5;" x1="626" x2="626" y1="3636.3545" y2="3671.3545"/><polygon fill="#666666" points="622,3661.3545,626,3671.3545,630,3661.3545,626,3665.3545" style="stroke: #666666; stroke-width: 1.0;"/><line style="stroke: #666666; stroke-width: 1.5;" x1="626" x2="626" y1="3981.1982" y2="4016.1982"/><polygon fill="#666666" points="622,4006.1982,626,4016.1982,630,4006.1982,626,4010.1982" style="stroke: #666666; stroke-width: 1.0;"/><line style="stroke: #666666; stroke-width: 1.5;" x1="626" x2="626" y1="4050.167" y2="4085.167"/><polygon fill="#666666" points="622,4075.167,626,4085.167,630,4075.167,626,4079.167" style="stroke: #666666; stroke-width: 1.0;"/><line style="stroke: #666666; stroke-width: 1.5;" x1="761" x2="761" y1="667.1982" y2="702.1982"/><polygon fill="#666666" points="757,692.1982,761,702.1982,765,692.1982,761,696.1982" style="stroke: #666666; stroke-width: 1.0;"/><line style="stroke: #666666; stroke-width: 1.5;" x1="892.5" x2="892.5" y1="2614.917" y2="2649.917"/><polygon fill="#666666" points="888.5,2639.917,892.5,2649.917,896.5,2639.917,892.5,2643.917" style="stroke: #666666; stroke-width: 1.0;"/><line style="stroke: #666666; stroke-width: 1.5;" x1="892.5" x2="892.5" y1="2683.8857" y2="2718.8857"/><polygon fill="#666666" points="888.5,2708.8857,892.5,2718.8857,896.5,2708.8857,892.5,2712.8857" style="stroke: #666666; stroke-width: 1.0;"/><line style="stroke: #666666; stroke-width: 1.5;" x1="892.5" x2="892.5" y1="3028.7295" y2="3063.7295"/><polygon fill="#666666" points="888.5,3053.7295,892.5,3063.7295,896.5,3053.7295,892.5,3057.7295" style="stroke: #666666; stroke-width: 1.0;"/><line style="stroke: #666666; stroke-width: 1.5;" x1="892.5" x2="892.5" y1="3097.6982" y2="3132.6982"/><polygon fill="#666666" points="888.5,3122.6982,892.5,3132.6982,896.5,3122.6982,892.5,3126.6982" style="stroke: #666666; stroke-width: 1.0;"/><line style="stroke: #666666; stroke-width: 1.5;" x1="892.5" x2="892.5" y1="3166.667" y2="3201.667"/><polygon fill="#666666" points="888.5,3191.667,892.5,3201.667,896.5,3191.667,892.5,3195.667" style="stroke: #666666; stroke-width: 1.0;"/><line style="stroke: #666666; stroke-width: 1.5;" x1="1055.5" x2="1055.5" y1="2890.792" y2="2925.792"/><polygon fill="#666666" points="1051.5,2915.792,1055.5,2925.792,1059.5,2915.792,1055.5,2919.792" style="stroke: #666666; stroke-width: 1.0;"/><line style="stroke: #666666; stroke-width: 1.5;" x1="1055.5" x2="1055.5" y1="3843.2607" y2="3878.2607"/><polygon fill="#666666" points="1051.5,3868.2607,1055.5,3878.2607,1059.5,3868.2607,1055.5,3872.2607" style="stroke: #666666; stroke-width: 1.0;"/><line style="stroke: #666666; stroke-width: 1.5;" x1="121" x2="121" y1="72.667" y2="90.167"/><line style="stroke: #666666; stroke-width: 1.5;" x1="121" x2="463" y1="90.167" y2="90.167"/><line style="stroke: #666666; stroke-width: 1.5;" x1="463" x2="463" y1="90.167" y2="107.667"/><polygon fill="#666666" points="459,97.667,463,107.667,467,97.667,463,101.667" style="stroke: #666666; stroke-width: 1.0;"/><line style="stroke: #666666; stroke-width: 1.5;" x1="463" x2="463" y1="197.5107" y2="215.0107"/><line style="stroke: #666666; stroke-width: 1.5;" x1="463" x2="626" y1="215.0107" y2="215.0107"/><line style="stroke: #666666; stroke-width: 1.5;" x1="626" x2="626" y1="215.0107" y2="232.5107"/><polygon fill="#666666" points="622,222.5107,626,232.5107,630,222.5107,626,226.5107" style="stroke: #666666; stroke-width: 1.0;"/><line style="stroke: #666666; stroke-width: 1.5;" x1="121" x2="121" y1="473.3857" y2="490.8857"/><line style="stroke: #666666; stroke-width: 1.5;" x1="121" x2="310.5" y1="490.8857" y2="490.8857"/><line style="stroke: #666666; stroke-width: 1.5;" x1="310.5" x2="310.5" y1="490.8857" y2="508.3857"/><polygon fill="#666666" points="306.5,498.3857,310.5,508.3857,314.5,498.3857,310.5,502.3857" style="stroke: #666666; stroke-width: 1.0;"/><line style="stroke: #666666; stroke-width: 1.5;" x1="310.5" x2="310.5" y1="598.2295" y2="615.7295"/><line style="stroke: #666666; stroke-width: 1.5;" x1="310.5" x2="761" y1="615.7295" y2="615.7295"/><line style="stroke: #666666; stroke-width: 1.5;" x1="761" x2="761" y1="615.7295" y2="633.2295"/><polygon fill="#666666" points="757,623.2295,761,633.2295,765,623.2295,761,627.2295" style="stroke: #666666; stroke-width: 1.0;"/><line style="stroke: #666666; stroke-width: 1.5;" x1="121" x2="121" y1="805.1357" y2="822.6357"/><line style="stroke: #666666; stroke-width: 1.5;" x1="121" x2="310.5" y1="822.6357" y2="822.6357"/><line style="stroke: #666666; stroke-width: 1.5;" x1="310.5" x2="310.5" y1="822.6357" y2="840.1357"/><polygon fill="#666666" points="306.5,830.1357,310.5,840.1357,314.5,830.1357,310.5,834.1357" style="stroke: #666666; stroke-width: 1.0;"/><line style="stroke: #666666; stroke-width: 1.5;" x1="310.5" x2="310.5" y1="998.9482" y2="1016.4482"/><line style="stroke: #666666; stroke-width: 1.5;" x1="310.5" x2="626" y1="1016.4482" y2="1016.4482"/><line style="stroke: #666666; stroke-width: 1.5;" x1="626" x2="626" y1="1016.4482" y2="1033.9482"/><polygon fill="#666666" points="622,1023.9482,626,1033.9482,630,1023.9482,626,1027.9482" style="stroke: #666666; stroke-width: 1.0;"/><line style="stroke: #666666; stroke-width: 1.5;" x1="121" x2="121" y1="1357.7607" y2="1375.2607"/><line style="stroke: #666666; stroke-width: 1.5;" x1="121" x2="463" y1="1375.2607" y2="1375.2607"/><line style="stroke: #666666; stroke-width: 1.5;" x1="463" x2="463" y1="1375.2607" y2="1392.7607"/><polygon fill="#666666" points="459,1382.7607,463,1392.7607,467,1382.7607,463,1386.7607" style="stroke: #666666; stroke-width: 1.0;"/><line style="stroke: #666666; stroke-width: 1.5;" x1="463" x2="463" y1="1537.6045" y2="1555.1045"/><line style="stroke: #666666; stroke-width: 1.5;" x1="463" x2="626" y1="1555.1045" y2="1555.1045"/><line style="stroke: #666666; stroke-width: 1.5;" x1="626" x2="626" y1="1555.1045" y2="1572.6045"/><polygon fill="#666666" points="622,1562.6045,626,1572.6045,630,1562.6045,626,1566.6045" style="stroke: #666666; stroke-width: 1.0;"/><line style="stroke: #666666; stroke-width: 1.5;" x1="121" x2="121" y1="1882.4482" y2="1899.9482"/><line style="stroke: #666666; stroke-width: 1.5;" x1="121" x2="463" y1="1899.9482" y2="1899.9482"/><line style="stroke: #666666; stroke-width: 1.5;" x1="463" x2="463" y1="1899.9482" y2="1917.4482"/><polygon fill="#666666" points="459,1907.4482,463,1917.4482,467,1907.4482,463,1911.4482" style="stroke: #666666; stroke-width: 1.0;"/><line style="stroke: #666666; stroke-width: 1.5;" x1="463" x2="463" y1="2076.2607" y2="2093.7607"/><line style="stroke: #666666; stroke-width: 1.5;" x1="463" x2="626" y1="2093.7607" y2="2093.7607"/><line style="stroke: #666666; stroke-width: 1.5;" x1="626" x2="626" y1="2093.7607" y2="2111.2607"/><polygon fill="#666666" points="622,2101.2607,626,2111.2607,630,2101.2607,626,2105.2607" style="stroke: #666666; stroke-width: 1.0;"/><line style="stroke: #666666; stroke-width: 1.5;" x1="121" x2="121" y1="2352.1357" y2="2369.6357"/><line style="stroke: #666666; stroke-width: 1.5;" x1="121" x2="310.5" y1="2369.6357" y2="2369.6357"/><line style="stroke: #666666; stroke-width: 1.5;" x1="310.5" x2="310.5" y1="2369.6357" y2="2387.1357"/><polygon fill="#666666" points="306.5,2377.1357,310.5,2387.1357,314.5,2377.1357,310.5,2381.1357" style="stroke: #666666; stroke-width: 1.0;"/><line style="stroke: #666666; stroke-width: 1.5;" x1="310.5" x2="310.5" y1="2545.9482" y2="2563.4482"/><line style="stroke: #666666; stroke-width: 1.5;" x1="310.5" x2="892.5" y1="2563.4482" y2="2563.4482"/><line style="stroke: #666666; stroke-width: 1.5;" x1="892.5" x2="892.5" y1="2563.4482" y2="2580.9482"/><polygon fill="#666666" points="888.5,2570.9482,892.5,2580.9482,896.5,2570.9482,892.5,2574.9482" style="stroke: #666666; stroke-width: 1.0;"/><line style="stroke: #666666; stroke-width: 1.5;" x1="121" x2="121" y1="2821.8232" y2="2839.3232"/><line style="stroke: #666666; stroke-width: 1.5;" x1="121" x2="1055.5" y1="2839.3232" y2="2839.3232"/><line style="stroke: #666666; stroke-width: 1.5;" x1="1055.5" x2="1055.5" y1="2839.3232" y2="2856.8232"/><polygon fill="#666666" points="1051.5,2846.8232,1055.5,2856.8232,1059.5,2846.8232,1055.5,2850.8232" style="stroke: #666666; stroke-width: 1.0;"/><line style="stroke: #666666; stroke-width: 1.5;" x1="1055.5" x2="1055.5" y1="2959.7607" y2="2977.2607"/><line style="stroke: #666666; stroke-width: 1.5;" x1="1055.5" x2="892.5" y1="2977.2607" y2="2977.2607"/><line style="stroke: #666666; stroke-width: 1.5;" x1="892.5" x2="892.5" y1="2977.2607" y2="2994.7607"/><polygon fill="#666666" points="888.5,2984.7607,892.5,2994.7607,896.5,2984.7607,892.5,2988.7607" style="stroke: #666666; stroke-width: 1.0;"/><line style="stroke: #666666; stroke-width: 1.5;" x1="121" x2="121" y1="3304.6045" y2="3322.1045"/><line style="stroke: #666666; stroke-width: 1.5;" x1="121" x2="1194" y1="3322.1045" y2="3322.1045"/><line style="stroke: #666666; stroke-width: 1.5;" x1="1194" x2="1194" y1="3322.1045" y2="3339.6045"/><polygon fill="#666666" points="1190,3329.6045,1194,3339.6045,1198,3329.6045,1194,3333.6045" style="stroke: #666666; stroke-width: 1.0;"/><line style="stroke: #666666; stroke-width: 1.5;" x1="1194" x2="1194" y1="3429.4482" y2="3446.9482"/><line style="stroke: #666666; stroke-width: 1.5;" x1="1194" x2="626" y1="3446.9482" y2="3446.9482"/><line style="stroke: #666666; stroke-width: 1.5;" x1="626" x2="626" y1="3446.9482" y2="3464.4482"/><polygon fill="#666666" points="622,3454.4482,626,3464.4482,630,3454.4482,626,3458.4482" style="stroke: #666666; stroke-width: 1.0;"/><line style="stroke: #666666; stroke-width: 1.5;" x1="121" x2="121" y1="3774.292" y2="3791.792"/><line style="stroke: #666666; stroke-width: 1.5;" x1="121" x2="1055.5" y1="3791.792" y2="3791.792"/><line style="stroke: #666666; stroke-width: 1.5;" x1="1055.5" x2="1055.5" y1="3791.792" y2="3809.292"/><polygon fill="#666666" points="1051.5,3799.292,1055.5,3809.292,1059.5,3799.292,1055.5,3803.292" style="stroke: #666666; stroke-width: 1.0;"/><line style="stroke: #666666; stroke-width: 1.5;" x1="1055.5" x2="1055.5" y1="3912.2295" y2="3929.7295"/><line style="stroke: #666666; stroke-width: 1.5;" x1="1055.5" x2="626" y1="3929.7295" y2="3929.7295"/><line style="stroke: #666666; stroke-width: 1.5;" x1="626" x2="626" y1="3929.7295" y2="3947.2295"/><polygon fill="#666666" points="622,3937.2295,626,3947.2295,630,3937.2295,626,3941.2295" style="stroke: #666666; stroke-width: 1.0;"/><text fill="#333333" font-family="monospace" font-size="18" lengthAdjust="spacingAndGlyphs" textLength="88" x="76.5" y="29.4531">Scenario</text><text fill="#333333" font-family="monospace" font-size="18" lengthAdjust="spacingAndGlyphs" textLength="77" x="271.5" y="29.4531">GuestUI</text><text fill="#333333" font-family="monospace" font-size="18" lengthAdjust="spacingAndGlyphs" textLength="99" x="413" y="29.4531">ManagerUI</text><text fill="#333333" font-family="monospace" font-size="18" lengthAdjust="spacingAndGlyphs" textLength="99" x="576" y="29.4531">Inventory</text><text fill="#333333" font-family="monospace" font-size="18" lengthAdjust="spacingAndGlyphs" textLength="44" x="738.5" y="29.4531">Auth</text><text fill="#333333" font-family="monospace" font-size="18" lengthAdjust="spacingAndGlyphs" textLength="77" x="853.5" y="29.4531">Payment</text><text fill="#333333" font-family="monospace" font-size="18" lengthAdjust="spacingAndGlyphs" textLength="44" x="1033" y="29.4531">Jobs</text><text fill="#333333" font-family="monospace" font-size="18" lengthAdjust="spacingAndGlyphs" textLength="99" x="1144" y="29.4531">Providers</text><line style="stroke: #BBBBBB; stroke-width: 2.0;" x1="10" x2="10" y1="12.7451" y2="4119.1357"/><line style="stroke: #BBBBBB; stroke-width: 2.0;" x1="231" x2="231" y1="12.7451" y2="4119.1357"/><line style="stroke: #BBBBBB; stroke-width: 2.0;" x1="385" x2="385" y1="12.7451" y2="4119.1357"/><line style="stroke: #BBBBBB; stroke-width: 2.0;" x1="541" x2="541" y1="12.7451" y2="4119.1357"/><line style="stroke: #BBBBBB; stroke-width: 2.0;" x1="711" x2="711" y1="12.7451" y2="4119.1357"/><line style="stroke: #BBBBBB; stroke-width: 2.0;" x1="811" x2="811" y1="12.7451" y2="4119.1357"/><line style="stroke: #BBBBBB; stroke-width: 2.0;" x1="974" x2="974" y1="12.7451" y2="4119.1357"/><line style="stroke: #BBBBBB; stroke-width: 2.0;" x1="1137" x2="1137" y1="12.7451" y2="4119.1357"/><line style="stroke: #BBBBBB; stroke-width: 2.0;" x1="1255" x2="1255" y1="12.7451" y2="4119.1357"/><!--MD5=[d477cf154073f8625e30abc4391649cf]
@startuml



skinparam Default {
  FontName          Monospaced
  FontColor         #666666
  FontSize          12
}

skinparam Arrow {
  Color             #666666
}

skinparam Activity {
  BackgroundColor   #FFFFFF
  BorderColor       #666666
}

skinparam Swimlane {
  TitleFontColor    #333333
  TitleFontSize     18
  BorderColor       #BBBBBB
}

skinparam Shadowing	false

|#EEEEEE|Scenario|


|GuestUI|
|ManagerUI|
|Inventory|
|Auth|
|Payment|
|Jobs|
|Providers|


|Scenario|
:Manager adds room;
|ManagerUI|
:
Field 1: Text
Field 2: Text
Add Room: Button
;
|Inventory|
#DBE8F9:Add Room;
#FFE5D8:Room Added;
#E8FBE8:Room Availability;
detach


|Scenario|
:Guest registration;
|GuestUI|
:
Username: Text
Password: Text
Register: Button
;
|Auth|
#DBE8F9:Register;
#FFE5D8:Registered;
detach


|Scenario|
:Guest books room;
|GuestUI|
#E8FBE8:Room Availability;
:
Date: Picker
Rooms: List
Book Room: Button
;
|Inventory|
#DBE8F9:Book Room;
#FFE5D8:Room Booked;
#E8FBE8:Room Availability;
#E8FBE8:Cleaning Schedule;
detach


|Scenario|
:Get room ready
for guest;
|ManagerUI|
#E8FBE8:Cleaning Schedule;
:
Tasks: List
Ready Room: Button
;
|Inventory|
#DBE8F9:Ready Room;
#FFE5D8:Room Readied;
#E8FBE8:Cleaning Schedule;
#E8FBE8:Guest Roster;
detach


|Scenario|
:Guest checks in;
|ManagerUI|
#E8FBE8:Guest Roster;
:
Field1: Text
Field2: Text
Check In: Button
;
|Inventory|
#DBE8F9:Check In;
#FFE5D8:Checked In;
#E8FBE8:Guest Roster;
detach


|Scenario|
:Guest initiates payment;
|GuestUI|
#E8FBE8:Guest Invoice;
:
Card Number: Text
Amount: Currency
Pay: Button
;
|Payment|
#DBE8F9:Pay;
#FFE5D8:Payment Requested;
#E8FBE8:Payments to Process;
detach


|Scenario|
:Guest paid successfully;
|Jobs|
#E8FBE8:Payments to Process;
#FFFFFF:Payment Processor;
|Payment|
#DBE8F9:Process Payment;
#FFE5D8:Payment Succeeded;
#E8FBE8:Payments to Process;
#E8FBE8:Sales Report;
detach


|Scenario|
:Guest left hotel proximity;
|Providers|
:
**GPS Location**
Lat: Text
Long: Text
;
|Inventory|
#FFE5D8:GPS Location Updated;
#DBE8F9:Translate Location;
#FFE5D8:Guest Left Hotel;
#E8FBE8:Guest Roster;
detach


|Scenario|
:Process checkout;
|Jobs|
#E8FBE8:Guest Roster;
#FFFFFF:Checkout Processor;
|Inventory|
#DBE8F9:Check Out;
#FFE5D8:Checked Out;
#E8FBE8:Guest Roster;
detach
@enduml

PlantUML version 1.2019.11(Sun Sep 22 12:02:15 CEST 2019)
(GPL source distribution)
Java Runtime: OpenJDK Runtime Environment
JVM: OpenJDK 64-Bit Server VM
Java Version: 1.8.0_222-8u222-b10-1ubuntu1~16.04.1-b10
Operating System: Linux
Default Encoding: UTF-8
Language: en
Country: US
--></g></svg>