<?xml version="1.0" encoding="UTF-8" standalone="no"?><svg xmlns="http://www.w3.org/2000/svg" xmlns:xlink="http://www.w3.org/1999/xlink" contentScriptType="application/ecmascript" contentStyleType="text/css" height="4117px" preserveAspectRatio="none" style="width:1176px;height:4117px;" version="1.1" viewBox="0 0 1176 4117" width="1176px" zoomAndPan="magnify"><defs/><g><rect fill="#EEEEEE" height="4092.4219" style="stroke: #EEEEEE; stroke-width: 1.0;" width="158" x="10" y="12.7451"/><rect fill="#FFFFFF" height="33.9688" rx="12.5" ry="12.5" style="stroke: #666666; stroke-width: 1.5;" width="76" x="51.5" y="38.6982"/><text fill="#666666" font-family="monospace" font-size="12" lengthAdjust="spacingAndGlyphs" textLength="56" x="61.5" y="59.8369">Register</text><rect fill="#FFFFFF" height="33.9688" rx="12.5" ry="12.5" style="stroke: #666666; stroke-width: 1.5;" width="76" x="51.5" y="370.4482"/><text fill="#666666" font-family="monospace" font-size="12" lengthAdjust="spacingAndGlyphs" textLength="56" x="61.5" y="391.5869">Add Room</text><rect fill="#FFFFFF" height="33.9688" rx="12.5" ry="12.5" style="stroke: #666666; stroke-width: 1.5;" width="83" x="48" y="771.167"/><text fill="#666666" font-family="monospace" font-size="12" lengthAdjust="spacingAndGlyphs" textLength="63" x="58" y="792.3057">Book Room</text><rect fill="#FFFFFF" height="33.9688" rx="12.5" ry="12.5" style="stroke: #666666; stroke-width: 1.5;" width="90" x="44.5" y="1309.8232"/><text fill="#666666" font-family="monospace" font-size="12" lengthAdjust="spacingAndGlyphs" textLength="70" x="54.5" y="1330.9619">Ready Room</text><rect fill="#FFFFFF" height="33.9688" rx="12.5" ry="12.5" style="stroke: #666666; stroke-width: 1.5;" width="76" x="51.5" y="1834.5107"/><text fill="#666666" font-family="monospace" font-size="12" lengthAdjust="spacingAndGlyphs" textLength="56" x="61.5" y="1855.6494">Check In</text><rect fill="#FFFFFF" height="33.9688" rx="12.5" ry="12.5" style="stroke: #666666; stroke-width: 1.5;" width="125" x="27" y="2304.1982"/><text fill="#666666" font-family="monospace" font-size="12" lengthAdjust="spacingAndGlyphs" textLength="105" x="37" y="2325.3369">Payment Request</text><rect fill="#FFFFFF" height="33.9688" rx="12.5" ry="12.5" style="stroke: #666666; stroke-width: 1.5;" width="139" x="20" y="2773.8857"/><text fill="#666666" font-family="monospace" font-size="12" lengthAdjust="spacingAndGlyphs" textLength="119" x="30" y="2795.0244">Payment Succeeded</text><rect fill="#FFFFFF" height="33.9688" rx="12.5" ry="12.5" style="stroke: #666666; stroke-width: 1.5;" width="132" x="23.5" y="3256.667"/><text fill="#666666" font-family="monospace" font-size="12" lengthAdjust="spacingAndGlyphs" textLength="112" x="33.5" y="3277.8057">Guest Left Hotel</text><rect fill="#FFFFFF" height="33.9688" rx="12.5" ry="12.5" style="stroke: #666666; stroke-width: 1.5;" width="83" x="48" y="3726.3545"/><text fill="#666666" font-family="monospace" font-size="12" lengthAdjust="spacingAndGlyphs" textLength="63" x="58" y="3747.4932">Check Out</text><rect fill="#FFFFFF" height="89.8438" rx="12.5" ry="12.5" style="stroke: #666666; stroke-width: 1.5;" width="132" x="181.5" y="107.667"/><text fill="#666666" font-family="monospace" font-size="12" lengthAdjust="spacingAndGlyphs" textLength="0" x="198.5" y="128.8057"/><text fill="#666666" font-family="monospace" font-size="12" lengthAdjust="spacingAndGlyphs" textLength="98" x="191.5" y="142.7744">Username: Text</text><text fill="#666666" font-family="monospace" font-size="12" lengthAdjust="spacingAndGlyphs" textLength="98" x="191.5" y="156.7432">Password: Text</text><text fill="#666666" font-family="monospace" font-size="12" lengthAdjust="spacingAndGlyphs" textLength="112" x="191.5" y="170.7119">Register: Button</text><text fill="#666666" font-family="monospace" font-size="12" lengthAdjust="spacingAndGlyphs" textLength="0" x="198.5" y="184.6807"/><rect fill="#E8FBE8" height="33.9688" rx="12.5" ry="12.5" style="stroke: #666666; stroke-width: 1.5;" width="139" x="178" y="840.1357"/><text fill="#666666" font-family="monospace" font-size="12" lengthAdjust="spacingAndGlyphs" textLength="119" x="188" y="861.2744">Room Availability</text><rect fill="#FFFFFF" height="89.8438" rx="12.5" ry="12.5" style="stroke: #666666; stroke-width: 1.5;" width="139" x="178" y="909.1045"/><text fill="#666666" font-family="monospace" font-size="12" lengthAdjust="spacingAndGlyphs" textLength="0" x="195" y="930.2432"/><text fill="#666666" font-family="monospace" font-size="12" lengthAdjust="spacingAndGlyphs" textLength="84" x="188" y="944.2119">Date: Picker</text><text fill="#666666" font-family="monospace" font-size="12" lengthAdjust="spacingAndGlyphs" textLength="77" x="188" y="958.1807">Rooms: List</text><text fill="#666666" font-family="monospace" font-size="12" lengthAdjust="spacingAndGlyphs" textLength="119" x="188" y="972.1494">Book Room: Button</text><text fill="#666666" font-family="monospace" font-size="12" lengthAdjust="spacingAndGlyphs" textLength="0" x="195" y="986.1182"/><rect fill="#E8FBE8" height="33.9688" rx="12.5" ry="12.5" style="stroke: #666666; stroke-width: 1.5;" width="111" x="192" y="2373.167"/><text fill="#666666" font-family="monospace" font-size="12" lengthAdjust="spacingAndGlyphs" textLength="91" x="202" y="2394.3057">Guest Invoice</text><rect fill="#FFFFFF" height="89.8438" rx="12.5" ry="12.5" style="stroke: #666666; stroke-width: 1.5;" width="139" x="178" y="2442.1357"/><text fill="#666666" font-family="monospace" font-size="12" lengthAdjust="spacingAndGlyphs" textLength="0" x="195" y="2463.2744"/><text fill="#666666" font-family="monospace" font-size="12" lengthAdjust="spacingAndGlyphs" textLength="119" x="188" y="2477.2432">Card Number: Text</text><text fill="#666666" font-family="monospace" font-size="12" lengthAdjust="spacingAndGlyphs" textLength="112" x="188" y="2491.2119">Amount: Currency</text><text fill="#666666" font-family="monospace" font-size="12" lengthAdjust="spacingAndGlyphs" textLength="77" x="188" y="2505.1807">Pay: Button</text><text fill="#666666" font-family="monospace" font-size="12" lengthAdjust="spacingAndGlyphs" textLength="0" x="195" y="2519.1494"/><rect fill="#FFFFFF" height="89.8438" rx="12.5" ry="12.5" style="stroke: #666666; stroke-width: 1.5;" width="132" x="334" y="439.417"/><text fill="#666666" font-family="monospace" font-size="12" lengthAdjust="spacingAndGlyphs" textLength="0" x="351" y="460.5557"/><text fill="#666666" font-family="monospace" font-size="12" lengthAdjust="spacingAndGlyphs" textLength="91" x="344" y="474.5244">Field 1: Text</text><text fill="#666666" font-family="monospace" font-size="12" lengthAdjust="spacingAndGlyphs" textLength="91" x="344" y="488.4932">Field 2: Text</text><text fill="#666666" font-family="monospace" font-size="12" lengthAdjust="spacingAndGlyphs" textLength="112" x="344" y="502.4619">Add Room: Button</text><text fill="#666666" font-family="monospace" font-size="12" lengthAdjust="spacingAndGlyphs" textLength="0" x="351" y="516.4307"/><rect fill="#E8FBE8" height="33.9688" rx="12.5" ry="12.5" style="stroke: #666666; stroke-width: 1.5;" width="139" x="330.5" y="1378.792"/><text fill="#666666" font-family="monospace" font-size="12" lengthAdjust="spacingAndGlyphs" textLength="119" x="340.5" y="1399.9307">Cleaning Schedule</text><rect fill="#FFFFFF" height="75.875" rx="12.5" ry="12.5" style="stroke: #666666; stroke-width: 1.5;" width="146" x="327" y="1447.7607"/><text fill="#666666" font-family="monospace" font-size="12" lengthAdjust="spacingAndGlyphs" textLength="0" x="344" y="1468.8994"/><text fill="#666666" font-family="monospace" font-size="12" lengthAdjust="spacingAndGlyphs" textLength="77" x="337" y="1482.8682">Tasks: List</text><text fill="#666666" font-family="monospace" font-size="12" lengthAdjust="spacingAndGlyphs" textLength="126" x="337" y="1496.8369">Ready Room: Button</text><text fill="#666666" font-family="monospace" font-size="12" lengthAdjust="spacingAndGlyphs" textLength="0" x="344" y="1510.8057"/><rect fill="#E8FBE8" height="33.9688" rx="12.5" ry="12.5" style="stroke: #666666; stroke-width: 1.5;" width="104" x="348" y="1903.4795"/><text fill="#666666" font-family="monospace" font-size="12" lengthAdjust="spacingAndGlyphs" textLength="84" x="358" y="1924.6182">Guest Roster</text><rect fill="#FFFFFF" height="89.8438" rx="12.5" ry="12.5" style="stroke: #666666; stroke-width: 1.5;" width="132" x="334" y="1972.4482"/><text fill="#666666" font-family="monospace" font-size="12" lengthAdjust="spacingAndGlyphs" textLength="0" x="351" y="1993.5869"/><text fill="#666666" font-family="monospace" font-size="12" lengthAdjust="spacingAndGlyphs" textLength="84" x="344" y="2007.5557">Field1: Text</text><text fill="#666666" font-family="monospace" font-size="12" lengthAdjust="spacingAndGlyphs" textLength="84" x="344" y="2021.5244">Field2: Text</text><text fill="#666666" font-family="monospace" font-size="12" lengthAdjust="spacingAndGlyphs" textLength="112" x="344" y="2035.4932">Check In: Button</text><text fill="#666666" font-family="monospace" font-size="12" lengthAdjust="spacingAndGlyphs" textLength="0" x="351" y="2049.4619"/><rect fill="#DBE8F9" height="33.9688" rx="12.5" ry="12.5" style="stroke: #666666; stroke-width: 1.5;" width="76" x="518" y="564.2607"/><text fill="#666666" font-family="monospace" font-size="12" lengthAdjust="spacingAndGlyphs" textLength="56" x="528" y="585.3994">Add Room</text><rect fill="#FFE5D8" height="33.9688" rx="12.5" ry="12.5" style="stroke: #666666; stroke-width: 1.5;" width="90" x="511" y="633.2295"/><text fill="#666666" font-family="monospace" font-size="12" lengthAdjust="spacingAndGlyphs" textLength="70" x="521" y="654.3682">Room Added</text><rect fill="#E8FBE8" height="33.9688" rx="12.5" ry="12.5" style="stroke: #666666; stroke-width: 1.5;" width="139" x="486.5" y="702.1982"/><text fill="#666666" font-family="monospace" font-size="12" lengthAdjust="spacingAndGlyphs" textLength="119" x="496.5" y="723.3369">Room Availability</text><rect fill="#DBE8F9" height="33.9688" rx="12.5" ry="12.5" style="stroke: #666666; stroke-width: 1.5;" width="83" x="514.5" y="1033.9482"/><text fill="#666666" font-family="monospace" font-size="12" lengthAdjust="spacingAndGlyphs" textLength="63" x="524.5" y="1055.0869">Book Room</text><rect fill="#FFE5D8" height="33.9688" rx="12.5" ry="12.5" style="stroke: #666666; stroke-width: 1.5;" width="97" x="507.5" y="1102.917"/><text fill="#666666" font-family="monospace" font-size="12" lengthAdjust="spacingAndGlyphs" textLength="77" x="517.5" y="1124.0557">Room Booked</text><rect fill="#E8FBE8" height="33.9688" rx="12.5" ry="12.5" style="stroke: #666666; stroke-width: 1.5;" width="139" x="486.5" y="1171.8857"/><text fill="#666666" font-family="monospace" font-size="12" lengthAdjust="spacingAndGlyphs" textLength="119" x="496.5" y="1193.0244">Room Availability</text><rect fill="#E8FBE8" height="33.9688" rx="12.5" ry="12.5" style="stroke: #666666; stroke-width: 1.5;" width="139" x="486.5" y="1240.8545"/><text fill="#666666" font-family="monospace" font-size="12" lengthAdjust="spacingAndGlyphs" textLength="119" x="496.5" y="1261.9932">Cleaning Schedule</text><rect fill="#DBE8F9" height="33.9688" rx="12.5" ry="12.5" style="stroke: #666666; stroke-width: 1.5;" width="90" x="511" y="1558.6357"/><text fill="#666666" font-family="monospace" font-size="12" lengthAdjust="spacingAndGlyphs" textLength="70" x="521" y="1579.7744">Ready Room</text><rect fill="#FFE5D8" height="33.9688" rx="12.5" ry="12.5" style="stroke: #666666; stroke-width: 1.5;" width="104" x="504" y="1627.6045"/><text fill="#666666" font-family="monospace" font-size="12" lengthAdjust="spacingAndGlyphs" textLength="84" x="514" y="1648.7432">Room Readied</text><rect fill="#E8FBE8" height="33.9688" rx="12.5" ry="12.5" style="stroke: #666666; stroke-width: 1.5;" width="139" x="486.5" y="1696.5732"/><text fill="#666666" font-family="monospace" font-size="12" lengthAdjust="spacingAndGlyphs" textLength="119" x="496.5" y="1717.7119">Cleaning Schedule</text><rect fill="#E8FBE8" height="33.9688" rx="12.5" ry="12.5" style="stroke: #666666; stroke-width: 1.5;" width="104" x="504" y="1765.542"/><text fill="#666666" font-family="monospace" font-size="12" lengthAdjust="spacingAndGlyphs" textLength="84" x="514" y="1786.6807">Guest Roster</text><rect fill="#DBE8F9" height="33.9688" rx="12.5" ry="12.5" style="stroke: #666666; stroke-width: 1.5;" width="76" x="518" y="2097.292"/><text fill="#666666" font-family="monospace" font-size="12" lengthAdjust="spacingAndGlyphs" textLength="56" x="528" y="2118.4307">Check In</text><rect fill="#FFE5D8" height="33.9688" rx="12.5" ry="12.5" style="stroke: #666666; stroke-width: 1.5;" width="90" x="511" y="2166.2607"/><text fill="#666666" font-family="monospace" font-size="12" lengthAdjust="spacingAndGlyphs" textLength="70" x="521" y="2187.3994">Checked In</text><rect fill="#E8FBE8" height="33.9688" rx="12.5" ry="12.5" style="stroke: #666666; stroke-width: 1.5;" width="104" x="504" y="2235.2295"/><text fill="#666666" font-family="monospace" font-size="12" lengthAdjust="spacingAndGlyphs" textLength="84" x="514" y="2256.3682">Guest Roster</text><rect fill="#FFE5D8" height="33.9688" rx="12.5" ry="12.5" style="stroke: #666666; stroke-width: 1.5;" width="90" x="511" y="3450.4795"/><text fill="#666666" font-family="monospace" font-size="12" lengthAdjust="spacingAndGlyphs" textLength="70" x="521" y="3471.6182">GPS Update</text><rect fill="#DBE8F9" height="33.9688" rx="12.5" ry="12.5" style="stroke: #666666; stroke-width: 1.5;" width="146" x="483" y="3519.4482"/><text fill="#666666" font-family="monospace" font-size="12" lengthAdjust="spacingAndGlyphs" textLength="126" x="493" y="3540.5869">Translate Location</text><rect fill="#FFE5D8" height="33.9688" rx="12.5" ry="12.5" style="stroke: #666666; stroke-width: 1.5;" width="132" x="490" y="3588.417"/><text fill="#666666" font-family="monospace" font-size="12" lengthAdjust="spacingAndGlyphs" textLength="112" x="500" y="3609.5557">Guest Left Hotel</text><rect fill="#E8FBE8" height="33.9688" rx="12.5" ry="12.5" style="stroke: #666666; stroke-width: 1.5;" width="104" x="504" y="3657.3857"/><text fill="#666666" font-family="monospace" font-size="12" lengthAdjust="spacingAndGlyphs" textLength="84" x="514" y="3678.5244">Guest Roster</text><rect fill="#DBE8F9" height="33.9688" rx="12.5" ry="12.5" style="stroke: #666666; stroke-width: 1.5;" width="83" x="514.5" y="3933.2607"/><text fill="#666666" font-family="monospace" font-size="12" lengthAdjust="spacingAndGlyphs" textLength="63" x="524.5" y="3954.3994">Check Out</text><rect fill="#FFE5D8" height="33.9688" rx="12.5" ry="12.5" style="stroke: #666666; stroke-width: 1.5;" width="97" x="507.5" y="4002.2295"/><text fill="#666666" font-family="monospace" font-size="12" lengthAdjust="spacingAndGlyphs" textLength="77" x="517.5" y="4023.3682">Checked Out</text><rect fill="#E8FBE8" height="33.9688" rx="12.5" ry="12.5" style="stroke: #666666; stroke-width: 1.5;" width="104" x="504" y="4071.1982"/><text fill="#666666" font-family="monospace" font-size="12" lengthAdjust="spacingAndGlyphs" textLength="84" x="514" y="4092.3369">Guest Roster</text><rect fill="#DBE8F9" height="33.9688" rx="12.5" ry="12.5" style="stroke: #666666; stroke-width: 1.5;" width="76" x="646" y="232.5107"/><text fill="#666666" font-family="monospace" font-size="12" lengthAdjust="spacingAndGlyphs" textLength="56" x="656" y="253.6494">Register</text><rect fill="#FFE5D8" height="33.9688" rx="12.5" ry="12.5" style="stroke: #666666; stroke-width: 1.5;" width="90" x="639" y="301.4795"/><text fill="#666666" font-family="monospace" font-size="12" lengthAdjust="spacingAndGlyphs" textLength="70" x="649" y="322.6182">Registered</text><rect fill="#DBE8F9" height="33.9688" rx="12.5" ry="12.5" style="stroke: #666666; stroke-width: 1.5;" width="41" x="795" y="2566.9795"/><text fill="#666666" font-family="monospace" font-size="12" lengthAdjust="spacingAndGlyphs" textLength="21" x="805" y="2588.1182">Pay</text><rect fill="#FFE5D8" height="33.9688" rx="12.5" ry="12.5" style="stroke: #666666; stroke-width: 1.5;" width="139" x="746" y="2635.9482"/><text fill="#666666" font-family="monospace" font-size="12" lengthAdjust="spacingAndGlyphs" textLength="119" x="756" y="2657.0869">Payment Requested</text><rect fill="#E8FBE8" height="33.9688" rx="12.5" ry="12.5" style="stroke: #666666; stroke-width: 1.5;" width="153" x="739" y="2704.917"/><text fill="#666666" font-family="monospace" font-size="12" lengthAdjust="spacingAndGlyphs" textLength="133" x="749" y="2726.0557">Payments to Process</text><rect fill="#DBE8F9" height="33.9688" rx="12.5" ry="12.5" style="stroke: #666666; stroke-width: 1.5;" width="125" x="753" y="2980.792"/><text fill="#666666" font-family="monospace" font-size="12" lengthAdjust="spacingAndGlyphs" textLength="105" x="763" y="3001.9307">Process Payment</text><rect fill="#FFE5D8" height="33.9688" rx="12.5" ry="12.5" style="stroke: #666666; stroke-width: 1.5;" width="139" x="746" y="3049.7607"/><text fill="#666666" font-family="monospace" font-size="12" lengthAdjust="spacingAndGlyphs" textLength="119" x="756" y="3070.8994">Payment Succeeded</text><rect fill="#E8FBE8" height="33.9688" rx="12.5" ry="12.5" style="stroke: #666666; stroke-width: 1.5;" width="153" x="739" y="3118.7295"/><text fill="#666666" font-family="monospace" font-size="12" lengthAdjust="spacingAndGlyphs" textLength="133" x="749" y="3139.8682">Payments to Process</text><rect fill="#E8FBE8" height="33.9688" rx="12.5" ry="12.5" style="stroke: #666666; stroke-width: 1.5;" width="104" x="763.5" y="3187.6982"/><text fill="#666666" font-family="monospace" font-size="12" lengthAdjust="spacingAndGlyphs" textLength="84" x="773.5" y="3208.8369">Sales Report</text><rect fill="#E8FBE8" height="33.9688" rx="12.5" ry="12.5" style="stroke: #666666; stroke-width: 1.5;" width="153" x="902" y="2842.8545"/><text fill="#666666" font-family="monospace" font-size="12" lengthAdjust="spacingAndGlyphs" textLength="133" x="912" y="2863.9932">Payments to Process</text><rect fill="#FFFFFF" height="33.9688" rx="12.5" ry="12.5" style="stroke: #666666; stroke-width: 1.5;" width="139" x="909" y="2911.8232"/><text fill="#666666" font-family="monospace" font-size="12" lengthAdjust="spacingAndGlyphs" textLength="119" x="919" y="2932.9619">Payment Processor</text><rect fill="#E8FBE8" height="33.9688" rx="12.5" ry="12.5" style="stroke: #666666; stroke-width: 1.5;" width="104" x="926.5" y="3795.3232"/><text fill="#666666" font-family="monospace" font-size="12" lengthAdjust="spacingAndGlyphs" textLength="84" x="936.5" y="3816.4619">Guest Roster</text><rect fill="#FFFFFF" height="33.9688" rx="12.5" ry="12.5" style="stroke: #666666; stroke-width: 1.5;" width="146" x="905.5" y="3864.292"/><text fill="#666666" font-family="monospace" font-size="12" lengthAdjust="spacingAndGlyphs" textLength="126" x="915.5" y="3885.4307">Checkout Processor</text><rect fill="#FFFFFF" height="89.8438" rx="12.5" ry="12.5" style="stroke: #666666; stroke-width: 1.5;" width="90" x="1065" y="3325.6357"/><text fill="#666666" font-family="monospace" font-size="12" lengthAdjust="spacingAndGlyphs" textLength="0" x="1082" y="3346.7744"/><text fill="#666666" font-family="monospace" font-size="12" font-weight="bold" lengthAdjust="spacingAndGlyphs" textLength="21" x="1075" y="3360.7432">GPS</text><text fill="#666666" font-family="monospace" font-size="12" lengthAdjust="spacingAndGlyphs" textLength="63" x="1075" y="3374.7119">Lat: Text</text><text fill="#666666" font-family="monospace" font-size="12" lengthAdjust="spacingAndGlyphs" textLength="70" x="1075" y="3388.6807">Long: Text</text><text fill="#666666" font-family="monospace" font-size="12" lengthAdjust="spacingAndGlyphs" textLength="0" x="1082" y="3402.6494"/><line style="stroke: #666666; stroke-width: 1.5;" x1="247.5" x2="247.5" y1="874.1045" y2="909.1045"/><polygon fill="#666666" points="243.5,899.1045,247.5,909.1045,251.5,899.1045,247.5,903.1045" style="stroke: #666666; stroke-width: 1.0;"/><line style="stroke: #666666; stroke-width: 1.5;" x1="247.5" x2="247.5" y1="2407.1357" y2="2442.1357"/><polygon fill="#666666" points="243.5,2432.1357,247.5,2442.1357,251.5,2432.1357,247.5,2436.1357" style="stroke: #666666; stroke-width: 1.0;"/><line style="stroke: #666666; stroke-width: 1.5;" x1="400" x2="400" y1="1412.7607" y2="1447.7607"/><polygon fill="#666666" points="396,1437.7607,400,1447.7607,404,1437.7607,400,1441.7607" style="stroke: #666666; stroke-width: 1.0;"/><line style="stroke: #666666; stroke-width: 1.5;" x1="400" x2="400" y1="1937.4482" y2="1972.4482"/><polygon fill="#666666" points="396,1962.4482,400,1972.4482,404,1962.4482,400,1966.4482" style="stroke: #666666; stroke-width: 1.0;"/><line style="stroke: #666666; stroke-width: 1.5;" x1="556" x2="556" y1="598.2295" y2="633.2295"/><polygon fill="#666666" points="552,623.2295,556,633.2295,560,623.2295,556,627.2295" style="stroke: #666666; stroke-width: 1.0;"/><line style="stroke: #666666; stroke-width: 1.5;" x1="556" x2="556" y1="667.1982" y2="702.1982"/><polygon fill="#666666" points="552,692.1982,556,702.1982,560,692.1982,556,696.1982" style="stroke: #666666; stroke-width: 1.0;"/><line style="stroke: #666666; stroke-width: 1.5;" x1="556" x2="556" y1="1067.917" y2="1102.917"/><polygon fill="#666666" points="552,1092.917,556,1102.917,560,1092.917,556,1096.917" style="stroke: #666666; stroke-width: 1.0;"/><line style="stroke: #666666; stroke-width: 1.5;" x1="556" x2="556" y1="1136.8857" y2="1171.8857"/><polygon fill="#666666" points="552,1161.8857,556,1171.8857,560,1161.8857,556,1165.8857" style="stroke: #666666; stroke-width: 1.0;"/><line style="stroke: #666666; stroke-width: 1.5;" x1="556" x2="556" y1="1205.8545" y2="1240.8545"/><polygon fill="#666666" points="552,1230.8545,556,1240.8545,560,1230.8545,556,1234.8545" style="stroke: #666666; stroke-width: 1.0;"/><line style="stroke: #666666; stroke-width: 1.5;" x1="556" x2="556" y1="1592.6045" y2="1627.6045"/><polygon fill="#666666" points="552,1617.6045,556,1627.6045,560,1617.6045,556,1621.6045" style="stroke: #666666; stroke-width: 1.0;"/><line style="stroke: #666666; stroke-width: 1.5;" x1="556" x2="556" y1="1661.5732" y2="1696.5732"/><polygon fill="#666666" points="552,1686.5732,556,1696.5732,560,1686.5732,556,1690.5732" style="stroke: #666666; stroke-width: 1.0;"/><line style="stroke: #666666; stroke-width: 1.5;" x1="556" x2="556" y1="1730.542" y2="1765.542"/><polygon fill="#666666" points="552,1755.542,556,1765.542,560,1755.542,556,1759.542" style="stroke: #666666; stroke-width: 1.0;"/><line style="stroke: #666666; stroke-width: 1.5;" x1="556" x2="556" y1="2131.2607" y2="2166.2607"/><polygon fill="#666666" points="552,2156.2607,556,2166.2607,560,2156.2607,556,2160.2607" style="stroke: #666666; stroke-width: 1.0;"/><line style="stroke: #666666; stroke-width: 1.5;" x1="556" x2="556" y1="2200.2295" y2="2235.2295"/><polygon fill="#666666" points="552,2225.2295,556,2235.2295,560,2225.2295,556,2229.2295" style="stroke: #666666; stroke-width: 1.0;"/><line style="stroke: #666666; stroke-width: 1.5;" x1="556" x2="556" y1="3484.4482" y2="3519.4482"/><polygon fill="#666666" points="552,3509.4482,556,3519.4482,560,3509.4482,556,3513.4482" style="stroke: #666666; stroke-width: 1.0;"/><line style="stroke: #666666; stroke-width: 1.5;" x1="556" x2="556" y1="3553.417" y2="3588.417"/><polygon fill="#666666" points="552,3578.417,556,3588.417,560,3578.417,556,3582.417" style="stroke: #666666; stroke-width: 1.0;"/><line style="stroke: #666666; stroke-width: 1.5;" x1="556" x2="556" y1="3622.3857" y2="3657.3857"/><polygon fill="#666666" points="552,3647.3857,556,3657.3857,560,3647.3857,556,3651.3857" style="stroke: #666666; stroke-width: 1.0;"/><line style="stroke: #666666; stroke-width: 1.5;" x1="556" x2="556" y1="3967.2295" y2="4002.2295"/><polygon fill="#666666" points="552,3992.2295,556,4002.2295,560,3992.2295,556,3996.2295" style="stroke: #666666; stroke-width: 1.0;"/><line style="stroke: #666666; stroke-width: 1.5;" x1="556" x2="556" y1="4036.1982" y2="4071.1982"/><polygon fill="#666666" points="552,4061.1982,556,4071.1982,560,4061.1982,556,4065.1982" style="stroke: #666666; stroke-width: 1.0;"/><line style="stroke: #666666; stroke-width: 1.5;" x1="684" x2="684" y1="266.4795" y2="301.4795"/><polygon fill="#666666" points="680,291.4795,684,301.4795,688,291.4795,684,295.4795" style="stroke: #666666; stroke-width: 1.0;"/><line style="stroke: #666666; stroke-width: 1.5;" x1="815.5" x2="815.5" y1="2600.9482" y2="2635.9482"/><polygon fill="#666666" points="811.5,2625.9482,815.5,2635.9482,819.5,2625.9482,815.5,2629.9482" style="stroke: #666666; stroke-width: 1.0;"/><line style="stroke: #666666; stroke-width: 1.5;" x1="815.5" x2="815.5" y1="2669.917" y2="2704.917"/><polygon fill="#666666" points="811.5,2694.917,815.5,2704.917,819.5,2694.917,815.5,2698.917" style="stroke: #666666; stroke-width: 1.0;"/><line style="stroke: #666666; stroke-width: 1.5;" x1="815.5" x2="815.5" y1="3014.7607" y2="3049.7607"/><polygon fill="#666666" points="811.5,3039.7607,815.5,3049.7607,819.5,3039.7607,815.5,3043.7607" style="stroke: #666666; stroke-width: 1.0;"/><line style="stroke: #666666; stroke-width: 1.5;" x1="815.5" x2="815.5" y1="3083.7295" y2="3118.7295"/><polygon fill="#666666" points="811.5,3108.7295,815.5,3118.7295,819.5,3108.7295,815.5,3112.7295" style="stroke: #666666; stroke-width: 1.0;"/><line style="stroke: #666666; stroke-width: 1.5;" x1="815.5" x2="815.5" y1="3152.6982" y2="3187.6982"/><polygon fill="#666666" points="811.5,3177.6982,815.5,3187.6982,819.5,3177.6982,815.5,3181.6982" style="stroke: #666666; stroke-width: 1.0;"/><line style="stroke: #666666; stroke-width: 1.5;" x1="978.5" x2="978.5" y1="2876.8232" y2="2911.8232"/><polygon fill="#666666" points="974.5,2901.8232,978.5,2911.8232,982.5,2901.8232,978.5,2905.8232" style="stroke: #666666; stroke-width: 1.0;"/><line style="stroke: #666666; stroke-width: 1.5;" x1="978.5" x2="978.5" y1="3829.292" y2="3864.292"/><polygon fill="#666666" points="974.5,3854.292,978.5,3864.292,982.5,3854.292,978.5,3858.292" style="stroke: #666666; stroke-width: 1.0;"/><line style="stroke: #666666; stroke-width: 1.5;" x1="89.5" x2="89.5" y1="72.667" y2="90.167"/><line style="stroke: #666666; stroke-width: 1.5;" x1="89.5" x2="247.5" y1="90.167" y2="90.167"/><line style="stroke: #666666; stroke-width: 1.5;" x1="247.5" x2="247.5" y1="90.167" y2="107.667"/><polygon fill="#666666" points="243.5,97.667,247.5,107.667,251.5,97.667,247.5,101.667" style="stroke: #666666; stroke-width: 1.0;"/><line style="stroke: #666666; stroke-width: 1.5;" x1="247.5" x2="247.5" y1="197.5107" y2="215.0107"/><line style="stroke: #666666; stroke-width: 1.5;" x1="247.5" x2="684" y1="215.0107" y2="215.0107"/><line style="stroke: #666666; stroke-width: 1.5;" x1="684" x2="684" y1="215.0107" y2="232.5107"/><polygon fill="#666666" points="680,222.5107,684,232.5107,688,222.5107,684,226.5107" style="stroke: #666666; stroke-width: 1.0;"/><line style="stroke: #666666; stroke-width: 1.5;" x1="89.5" x2="89.5" y1="404.417" y2="421.917"/><line style="stroke: #666666; stroke-width: 1.5;" x1="89.5" x2="400" y1="421.917" y2="421.917"/><line style="stroke: #666666; stroke-width: 1.5;" x1="400" x2="400" y1="421.917" y2="439.417"/><polygon fill="#666666" points="396,429.417,400,439.417,404,429.417,400,433.417" style="stroke: #666666; stroke-width: 1.0;"/><line style="stroke: #666666; stroke-width: 1.5;" x1="400" x2="400" y1="529.2607" y2="546.7607"/><line style="stroke: #666666; stroke-width: 1.5;" x1="400" x2="556" y1="546.7607" y2="546.7607"/><line style="stroke: #666666; stroke-width: 1.5;" x1="556" x2="556" y1="546.7607" y2="564.2607"/><polygon fill="#666666" points="552,554.2607,556,564.2607,560,554.2607,556,558.2607" style="stroke: #666666; stroke-width: 1.0;"/><line style="stroke: #666666; stroke-width: 1.5;" x1="89.5" x2="89.5" y1="805.1357" y2="822.6357"/><line style="stroke: #666666; stroke-width: 1.5;" x1="89.5" x2="247.5" y1="822.6357" y2="822.6357"/><line style="stroke: #666666; stroke-width: 1.5;" x1="247.5" x2="247.5" y1="822.6357" y2="840.1357"/><polygon fill="#666666" points="243.5,830.1357,247.5,840.1357,251.5,830.1357,247.5,834.1357" style="stroke: #666666; stroke-width: 1.0;"/><line style="stroke: #666666; stroke-width: 1.5;" x1="247.5" x2="247.5" y1="998.9482" y2="1016.4482"/><line style="stroke: #666666; stroke-width: 1.5;" x1="247.5" x2="556" y1="1016.4482" y2="1016.4482"/><line style="stroke: #666666; stroke-width: 1.5;" x1="556" x2="556" y1="1016.4482" y2="1033.9482"/><polygon fill="#666666" points="552,1023.9482,556,1033.9482,560,1023.9482,556,1027.9482" style="stroke: #666666; stroke-width: 1.0;"/><line style="stroke: #666666; stroke-width: 1.5;" x1="89.5" x2="89.5" y1="1343.792" y2="1361.292"/><line style="stroke: #666666; stroke-width: 1.5;" x1="89.5" x2="400" y1="1361.292" y2="1361.292"/><line style="stroke: #666666; stroke-width: 1.5;" x1="400" x2="400" y1="1361.292" y2="1378.792"/><polygon fill="#666666" points="396,1368.792,400,1378.792,404,1368.792,400,1372.792" style="stroke: #666666; stroke-width: 1.0;"/><line style="stroke: #666666; stroke-width: 1.5;" x1="400" x2="400" y1="1523.6357" y2="1541.1357"/><line style="stroke: #666666; stroke-width: 1.5;" x1="400" x2="556" y1="1541.1357" y2="1541.1357"/><line style="stroke: #666666; stroke-width: 1.5;" x1="556" x2="556" y1="1541.1357" y2="1558.6357"/><polygon fill="#666666" points="552,1548.6357,556,1558.6357,560,1548.6357,556,1552.6357" style="stroke: #666666; stroke-width: 1.0;"/><line style="stroke: #666666; stroke-width: 1.5;" x1="89.5" x2="89.5" y1="1868.4795" y2="1885.9795"/><line style="stroke: #666666; stroke-width: 1.5;" x1="89.5" x2="400" y1="1885.9795" y2="1885.9795"/><line style="stroke: #666666; stroke-width: 1.5;" x1="400" x2="400" y1="1885.9795" y2="1903.4795"/><polygon fill="#666666" points="396,1893.4795,400,1903.4795,404,1893.4795,400,1897.4795" style="stroke: #666666; stroke-width: 1.0;"/><line style="stroke: #666666; stroke-width: 1.5;" x1="400" x2="400" y1="2062.292" y2="2079.792"/><line style="stroke: #666666; stroke-width: 1.5;" x1="400" x2="556" y1="2079.792" y2="2079.792"/><line style="stroke: #666666; stroke-width: 1.5;" x1="556" x2="556" y1="2079.792" y2="2097.292"/><polygon fill="#666666" points="552,2087.292,556,2097.292,560,2087.292,556,2091.292" style="stroke: #666666; stroke-width: 1.0;"/><line style="stroke: #666666; stroke-width: 1.5;" x1="89.5" x2="89.5" y1="2338.167" y2="2355.667"/><line style="stroke: #666666; stroke-width: 1.5;" x1="89.5" x2="247.5" y1="2355.667" y2="2355.667"/><line style="stroke: #666666; stroke-width: 1.5;" x1="247.5" x2="247.5" y1="2355.667" y2="2373.167"/><polygon fill="#666666" points="243.5,2363.167,247.5,2373.167,251.5,2363.167,247.5,2367.167" style="stroke: #666666; stroke-width: 1.0;"/><line style="stroke: #666666; stroke-width: 1.5;" x1="247.5" x2="247.5" y1="2531.9795" y2="2549.4795"/><line style="stroke: #666666; stroke-width: 1.5;" x1="247.5" x2="815.5" y1="2549.4795" y2="2549.4795"/><line style="stroke: #666666; stroke-width: 1.5;" x1="815.5" x2="815.5" y1="2549.4795" y2="2566.9795"/><polygon fill="#666666" points="811.5,2556.9795,815.5,2566.9795,819.5,2556.9795,815.5,2560.9795" style="stroke: #666666; stroke-width: 1.0;"/><line style="stroke: #666666; stroke-width: 1.5;" x1="89.5" x2="89.5" y1="2807.8545" y2="2825.3545"/><line style="stroke: #666666; stroke-width: 1.5;" x1="89.5" x2="978.5" y1="2825.3545" y2="2825.3545"/><line style="stroke: #666666; stroke-width: 1.5;" x1="978.5" x2="978.5" y1="2825.3545" y2="2842.8545"/><polygon fill="#666666" points="974.5,2832.8545,978.5,2842.8545,982.5,2832.8545,978.5,2836.8545" style="stroke: #666666; stroke-width: 1.0;"/><line style="stroke: #666666; stroke-width: 1.5;" x1="978.5" x2="978.5" y1="2945.792" y2="2963.292"/><line style="stroke: #666666; stroke-width: 1.5;" x1="978.5" x2="815.5" y1="2963.292" y2="2963.292"/><line style="stroke: #666666; stroke-width: 1.5;" x1="815.5" x2="815.5" y1="2963.292" y2="2980.792"/><polygon fill="#666666" points="811.5,2970.792,815.5,2980.792,819.5,2970.792,815.5,2974.792" style="stroke: #666666; stroke-width: 1.0;"/><line style="stroke: #666666; stroke-width: 1.5;" x1="89.5" x2="89.5" y1="3290.6357" y2="3308.1357"/><line style="stroke: #666666; stroke-width: 1.5;" x1="89.5" x2="1110" y1="3308.1357" y2="3308.1357"/><line style="stroke: #666666; stroke-width: 1.5;" x1="1110" x2="1110" y1="3308.1357" y2="3325.6357"/><polygon fill="#666666" points="1106,3315.6357,1110,3325.6357,1114,3315.6357,1110,3319.6357" style="stroke: #666666; stroke-width: 1.0;"/><line style="stroke: #666666; stroke-width: 1.5;" x1="1110" x2="1110" y1="3415.4795" y2="3432.9795"/><line style="stroke: #666666; stroke-width: 1.5;" x1="1110" x2="556" y1="3432.9795" y2="3432.9795"/><line style="stroke: #666666; stroke-width: 1.5;" x1="556" x2="556" y1="3432.9795" y2="3450.4795"/><polygon fill="#666666" points="552,3440.4795,556,3450.4795,560,3440.4795,556,3444.4795" style="stroke: #666666; stroke-width: 1.0;"/><line style="stroke: #666666; stroke-width: 1.5;" x1="89.5" x2="89.5" y1="3760.3232" y2="3777.8232"/><line style="stroke: #666666; stroke-width: 1.5;" x1="89.5" x2="978.5" y1="3777.8232" y2="3777.8232"/><line style="stroke: #666666; stroke-width: 1.5;" x1="978.5" x2="978.5" y1="3777.8232" y2="3795.3232"/><polygon fill="#666666" points="974.5,3785.3232,978.5,3795.3232,982.5,3785.3232,978.5,3789.3232" style="stroke: #666666; stroke-width: 1.0;"/><line style="stroke: #666666; stroke-width: 1.5;" x1="978.5" x2="978.5" y1="3898.2607" y2="3915.7607"/><line style="stroke: #666666; stroke-width: 1.5;" x1="978.5" x2="556" y1="3915.7607" y2="3915.7607"/><line style="stroke: #666666; stroke-width: 1.5;" x1="556" x2="556" y1="3915.7607" y2="3933.2607"/><polygon fill="#666666" points="552,3923.2607,556,3933.2607,560,3923.2607,556,3927.2607" style="stroke: #666666; stroke-width: 1.0;"/><text fill="#333333" font-family="monospace" font-size="18" lengthAdjust="spacingAndGlyphs" textLength="88" x="45" y="29.4531">Scenario</text><text fill="#333333" font-family="monospace" font-size="18" lengthAdjust="spacingAndGlyphs" textLength="77" x="208.5" y="29.4531">GuestUI</text><text fill="#333333" font-family="monospace" font-size="18" lengthAdjust="spacingAndGlyphs" textLength="99" x="350" y="29.4531">ManagerUI</text><text fill="#333333" font-family="monospace" font-size="18" lengthAdjust="spacingAndGlyphs" textLength="99" x="506" y="29.4531">Inventory</text><text fill="#333333" font-family="monospace" font-size="18" lengthAdjust="spacingAndGlyphs" textLength="44" x="661.5" y="29.4531">Auth</text><text fill="#333333" font-family="monospace" font-size="18" lengthAdjust="spacingAndGlyphs" textLength="77" x="776.5" y="29.4531">Payment</text><text fill="#333333" font-family="monospace" font-size="18" lengthAdjust="spacingAndGlyphs" textLength="44" x="956" y="29.4531">Jobs</text><text fill="#333333" font-family="monospace" font-size="18" lengthAdjust="spacingAndGlyphs" textLength="88" x="1065.5" y="29.4531">Provider</text><line style="stroke: #BBBBBB; stroke-width: 2.0;" x1="10" x2="10" y1="12.7451" y2="4105.167"/><line style="stroke: #BBBBBB; stroke-width: 2.0;" x1="168" x2="168" y1="12.7451" y2="4105.167"/><line style="stroke: #BBBBBB; stroke-width: 2.0;" x1="322" x2="322" y1="12.7451" y2="4105.167"/><line style="stroke: #BBBBBB; stroke-width: 2.0;" x1="478" x2="478" y1="12.7451" y2="4105.167"/><line style="stroke: #BBBBBB; stroke-width: 2.0;" x1="634" x2="634" y1="12.7451" y2="4105.167"/><line style="stroke: #BBBBBB; stroke-width: 2.0;" x1="734" x2="734" y1="12.7451" y2="4105.167"/><line style="stroke: #BBBBBB; stroke-width: 2.0;" x1="897" x2="897" y1="12.7451" y2="4105.167"/><line style="stroke: #BBBBBB; stroke-width: 2.0;" x1="1060" x2="1060" y1="12.7451" y2="4105.167"/><line style="stroke: #BBBBBB; stroke-width: 2.0;" x1="1164" x2="1164" y1="12.7451" y2="4105.167"/><!--MD5=[287e9a06773123af1c5b189b6bda5072]
@startuml



skinparam Default {
  FontName          Monospaced
  FontColor         #666666
  FontSize          12
}

skinparam Arrow {
  Color             #666666
}

skinparam Activity {
  BackgroundColor   #FFFFFF
  BorderColor       #666666
}

skinparam Swimlane {
  TitleFontColor    #333333
  TitleFontSize     18
  BorderColor       #BBBBBB
}

skinparam Shadowing	false

|#EEEEEE|Scenario|


|GuestUI|
|ManagerUI|
|Inventory|
|Auth|
|Payment|
|Jobs|
|Provider|


|Scenario|
:Register;
|GuestUI|
:
Username: Text
Password: Text
Register: Button
;
|Auth|
#DBE8F9:Register;
#FFE5D8:Registered;
detach


|Scenario|
:Add Room;
|ManagerUI|
:
Field 1: Text
Field 2: Text
Add Room: Button
;
|Inventory|
#DBE8F9:Add Room;
#FFE5D8:Room Added;
#E8FBE8:Room Availability;
detach


|Scenario|
:Book Room;
|GuestUI|
#E8FBE8:Room Availability;
:
Date: Picker
Rooms: List
Book Room: Button
;
|Inventory|
#DBE8F9:Book Room;
#FFE5D8:Room Booked;
#E8FBE8:Room Availability;
#E8FBE8:Cleaning Schedule;
detach


|Scenario|
:Ready Room;
|ManagerUI|
#E8FBE8:Cleaning Schedule;
:
Tasks: List
Ready Room: Button
;
|Inventory|
#DBE8F9:Ready Room;
#FFE5D8:Room Readied;
#E8FBE8:Cleaning Schedule;
#E8FBE8:Guest Roster;
detach


|Scenario|
:Check In;
|ManagerUI|
#E8FBE8:Guest Roster;
:
Field1: Text
Field2: Text
Check In: Button
;
|Inventory|
#DBE8F9:Check In;
#FFE5D8:Checked In;
#E8FBE8:Guest Roster;
detach


|Scenario|
:Payment Request;
|GuestUI|
#E8FBE8:Guest Invoice;
:
Card Number: Text
Amount: Currency
Pay: Button
;
|Payment|
#DBE8F9:Pay;
#FFE5D8:Payment Requested;
#E8FBE8:Payments to Process;
detach


|Scenario|
:Payment Succeeded;
|Jobs|
#E8FBE8:Payments to Process;
#FFFFFF:Payment Processor;
|Payment|
#DBE8F9:Process Payment;
#FFE5D8:Payment Succeeded;
#E8FBE8:Payments to Process;
#E8FBE8:Sales Report;
detach


|Scenario|
:Guest Left Hotel;
|Provider|
:
**GPS**
Lat: Text
Long: Text
;
|Inventory|
#FFE5D8:GPS Update;
#DBE8F9:Translate Location;
#FFE5D8:Guest Left Hotel;
#E8FBE8:Guest Roster;
detach


|Scenario|
:Check Out;
|Jobs|
#E8FBE8:Guest Roster;
#FFFFFF:Checkout Processor;
|Inventory|
#DBE8F9:Check Out;
#FFE5D8:Checked Out;
#E8FBE8:Guest Roster;
detach
@enduml

PlantUML version 1.2019.11(Sun Sep 22 12:02:15 CEST 2019)
(GPL source distribution)
Java Runtime: OpenJDK Runtime Environment
JVM: OpenJDK 64-Bit Server VM
Java Version: 1.8.0_222-8u222-b10-1ubuntu1~16.04.1-b10
Operating System: Linux
Default Encoding: UTF-8
Language: en
Country: US
--></g></svg>