<?xml version="1.0" encoding="UTF-8" standalone="no"?><svg xmlns="http://www.w3.org/2000/svg" xmlns:xlink="http://www.w3.org/1999/xlink" contentScriptType="application/ecmascript" contentStyleType="text/css" height="4385px" preserveAspectRatio="none" style="width:1012px;height:4385px;" version="1.1" viewBox="0 0 1012 4385" width="1012px" zoomAndPan="magnify"><defs/><g><rect fill="#EEEEEE" height="4360.4531" style="stroke: #EEEEEE; stroke-width: 1.0;" width="221" x="10" y="12.7451"/><rect fill="#FFFFFF" height="33.9688" rx="12.5" ry="12.5" style="stroke: #666666; stroke-width: 1.5;" width="139" x="51.5" y="38.6982"/><text fill="#666666" font-family="monospace" font-size="12" lengthAdjust="spacingAndGlyphs" textLength="119" x="61.5" y="59.8369">Manager adds room</text><rect fill="#FFFFFF" height="33.9688" rx="12.5" ry="12.5" style="stroke: #666666; stroke-width: 1.5;" width="153" x="44.5" y="495.292"/><text fill="#666666" font-family="monospace" font-size="12" lengthAdjust="spacingAndGlyphs" textLength="133" x="54.5" y="516.4307">Client registration</text><rect fill="#FFFFFF" height="33.9688" rx="12.5" ry="12.5" style="stroke: #666666; stroke-width: 1.5;" width="132" x="55" y="882.917"/><text fill="#666666" font-family="monospace" font-size="12" lengthAdjust="spacingAndGlyphs" textLength="112" x="65" y="904.0557">Guest books room</text><rect fill="#FFFFFF" height="47.9375" rx="12.5" ry="12.5" style="stroke: #666666; stroke-width: 1.5;" width="118" x="62" y="1408.4795"/><text fill="#666666" font-family="monospace" font-size="12" lengthAdjust="spacingAndGlyphs" textLength="98" x="72" y="1429.6182">Get room ready</text><text fill="#666666" font-family="monospace" font-size="12" lengthAdjust="spacingAndGlyphs" textLength="63" x="72" y="1443.5869">for guest</text><rect fill="#FFFFFF" height="33.9688" rx="12.5" ry="12.5" style="stroke: #666666; stroke-width: 1.5;" width="125" x="58.5" y="2003.0107"/><text fill="#666666" font-family="monospace" font-size="12" lengthAdjust="spacingAndGlyphs" textLength="105" x="68.5" y="2024.1494">Guest checks in</text><rect fill="#FFFFFF" height="33.9688" rx="12.5" ry="12.5" style="stroke: #666666; stroke-width: 1.5;" width="181" x="30.5" y="2528.5732"/><text fill="#666666" font-family="monospace" font-size="12" lengthAdjust="spacingAndGlyphs" textLength="161" x="40.5" y="2549.7119">Guest initiates payment</text><rect fill="#FFFFFF" height="33.9688" rx="12.5" ry="12.5" style="stroke: #666666; stroke-width: 1.5;" width="181" x="30.5" y="2985.167"/><text fill="#666666" font-family="monospace" font-size="12" lengthAdjust="spacingAndGlyphs" textLength="161" x="40.5" y="3006.3057">Guest paid successfully</text><rect fill="#FFFFFF" height="33.9688" rx="12.5" ry="12.5" style="stroke: #666666; stroke-width: 1.5;" width="202" x="20" y="3509.8545"/><text fill="#666666" font-family="monospace" font-size="12" lengthAdjust="spacingAndGlyphs" textLength="182" x="30" y="3530.9932">Guest left hotel proximity</text><rect fill="#FFFFFF" height="33.9688" rx="12.5" ry="12.5" style="stroke: #666666; stroke-width: 1.5;" width="132" x="55" y="3952.4795"/><text fill="#666666" font-family="monospace" font-size="12" lengthAdjust="spacingAndGlyphs" textLength="112" x="65" y="3973.6182">Process checkout</text><rect fill="#FFFFFF" height="4360.4531" style="stroke: #FFFFFF; stroke-width: 1.0;" width="165" x="231" y="12.7451"/><rect fill="#FFFFFF" height="103.8125" rx="12.5" ry="12.5" style="stroke: #666666; stroke-width: 1.5;" width="132" x="248" y="107.667"/><text fill="#666666" font-family="monospace" font-size="12" lengthAdjust="spacingAndGlyphs" textLength="0" x="265" y="128.8057"/><text fill="#666666" font-family="monospace" font-size="12" font-weight="bold" lengthAdjust="spacingAndGlyphs" textLength="49" x="258" y="142.7744">Manager</text><text fill="#666666" font-family="monospace" font-size="12" lengthAdjust="spacingAndGlyphs" textLength="91" x="258" y="156.7432">Field 1: Text</text><text fill="#666666" font-family="monospace" font-size="12" lengthAdjust="spacingAndGlyphs" textLength="91" x="258" y="170.7119">Field 2: Text</text><text fill="#666666" font-family="monospace" font-size="12" lengthAdjust="spacingAndGlyphs" textLength="112" x="258" y="184.6807">Add Room: Button</text><text fill="#666666" font-family="monospace" font-size="12" lengthAdjust="spacingAndGlyphs" textLength="0" x="265" y="198.6494"/><rect fill="#FFFFFF" height="103.8125" rx="12.5" ry="12.5" style="stroke: #666666; stroke-width: 1.5;" width="132" x="248" y="564.2607"/><text fill="#666666" font-family="monospace" font-size="12" lengthAdjust="spacingAndGlyphs" textLength="0" x="265" y="585.3994"/><text fill="#666666" font-family="monospace" font-size="12" font-weight="bold" lengthAdjust="spacingAndGlyphs" textLength="35" x="258" y="599.3682">Guest</text><text fill="#666666" font-family="monospace" font-size="12" lengthAdjust="spacingAndGlyphs" textLength="98" x="258" y="613.3369">Username: Text</text><text fill="#666666" font-family="monospace" font-size="12" lengthAdjust="spacingAndGlyphs" textLength="98" x="258" y="627.3057">Password: Text</text><text fill="#666666" font-family="monospace" font-size="12" lengthAdjust="spacingAndGlyphs" textLength="112" x="258" y="641.2744">Register: Button</text><text fill="#666666" font-family="monospace" font-size="12" lengthAdjust="spacingAndGlyphs" textLength="0" x="265" y="655.2432"/><rect fill="#FFFFFF" height="103.8125" rx="12.5" ry="12.5" style="stroke: #666666; stroke-width: 1.5;" width="139" x="244.5" y="1020.8545"/><text fill="#666666" font-family="monospace" font-size="12" lengthAdjust="spacingAndGlyphs" textLength="0" x="261.5" y="1041.9932"/><text fill="#666666" font-family="monospace" font-size="12" font-weight="bold" lengthAdjust="spacingAndGlyphs" textLength="35" x="254.5" y="1055.9619">Guest</text><text fill="#666666" font-family="monospace" font-size="12" lengthAdjust="spacingAndGlyphs" textLength="84" x="254.5" y="1069.9307">Date: Picker</text><text fill="#666666" font-family="monospace" font-size="12" lengthAdjust="spacingAndGlyphs" textLength="77" x="254.5" y="1083.8994">Rooms: List</text><text fill="#666666" font-family="monospace" font-size="12" lengthAdjust="spacingAndGlyphs" textLength="119" x="254.5" y="1097.8682">Book Room: Button</text><text fill="#666666" font-family="monospace" font-size="12" lengthAdjust="spacingAndGlyphs" textLength="0" x="261.5" y="1111.8369"/><rect fill="#FFFFFF" height="89.8438" rx="12.5" ry="12.5" style="stroke: #666666; stroke-width: 1.5;" width="146" x="241" y="1560.3857"/><text fill="#666666" font-family="monospace" font-size="12" lengthAdjust="spacingAndGlyphs" textLength="0" x="258" y="1581.5244"/><text fill="#666666" font-family="monospace" font-size="12" font-weight="bold" lengthAdjust="spacingAndGlyphs" textLength="49" x="251" y="1595.4932">Manager</text><text fill="#666666" font-family="monospace" font-size="12" lengthAdjust="spacingAndGlyphs" textLength="77" x="251" y="1609.4619">Tasks: List</text><text fill="#666666" font-family="monospace" font-size="12" lengthAdjust="spacingAndGlyphs" textLength="126" x="251" y="1623.4307">Ready Room: Button</text><text fill="#666666" font-family="monospace" font-size="12" lengthAdjust="spacingAndGlyphs" textLength="0" x="258" y="1637.3994"/><rect fill="#FFFFFF" height="103.8125" rx="12.5" ry="12.5" style="stroke: #666666; stroke-width: 1.5;" width="132" x="248" y="2140.9482"/><text fill="#666666" font-family="monospace" font-size="12" lengthAdjust="spacingAndGlyphs" textLength="0" x="265" y="2162.0869"/><text fill="#666666" font-family="monospace" font-size="12" font-weight="bold" lengthAdjust="spacingAndGlyphs" textLength="49" x="258" y="2176.0557">Manager</text><text fill="#666666" font-family="monospace" font-size="12" lengthAdjust="spacingAndGlyphs" textLength="84" x="258" y="2190.0244">Field1: Text</text><text fill="#666666" font-family="monospace" font-size="12" lengthAdjust="spacingAndGlyphs" textLength="84" x="258" y="2203.9932">Field2: Text</text><text fill="#666666" font-family="monospace" font-size="12" lengthAdjust="spacingAndGlyphs" textLength="112" x="258" y="2217.9619">Check In: Button</text><text fill="#666666" font-family="monospace" font-size="12" lengthAdjust="spacingAndGlyphs" textLength="0" x="265" y="2231.9307"/><rect fill="#FFFFFF" height="103.8125" rx="12.5" ry="12.5" style="stroke: #666666; stroke-width: 1.5;" width="139" x="244.5" y="2597.542"/><text fill="#666666" font-family="monospace" font-size="12" lengthAdjust="spacingAndGlyphs" textLength="0" x="261.5" y="2618.6807"/><text fill="#666666" font-family="monospace" font-size="12" font-weight="bold" lengthAdjust="spacingAndGlyphs" textLength="35" x="254.5" y="2632.6494">Guest</text><text fill="#666666" font-family="monospace" font-size="12" lengthAdjust="spacingAndGlyphs" textLength="119" x="254.5" y="2646.6182">Card Number: Text</text><text fill="#666666" font-family="monospace" font-size="12" lengthAdjust="spacingAndGlyphs" textLength="112" x="254.5" y="2660.5869">Amount: Currency</text><text fill="#666666" font-family="monospace" font-size="12" lengthAdjust="spacingAndGlyphs" textLength="77" x="254.5" y="2674.5557">Pay: Button</text><text fill="#666666" font-family="monospace" font-size="12" lengthAdjust="spacingAndGlyphs" textLength="0" x="261.5" y="2688.5244"/><rect fill="#FFFFFF" height="33.9688" rx="12.5" ry="12.5" style="stroke: #666666; stroke-width: 1.5;" width="139" x="244.5" y="3123.1045"/><text fill="#666666" font-family="monospace" font-size="12" lengthAdjust="spacingAndGlyphs" textLength="119" x="254.5" y="3144.2432">Payment Processor</text><rect fill="#FFFFFF" height="33.9688" rx="12.5" ry="12.5" style="stroke: #666666; stroke-width: 1.5;" width="146" x="241" y="4090.417"/><text fill="#666666" font-family="monospace" font-size="12" lengthAdjust="spacingAndGlyphs" textLength="126" x="251" y="4111.5557">Checkout Processor</text><rect fill="#DBE8F9" height="4360.4531" style="stroke: #DBE8F9; stroke-width: 1.0;" width="165" x="396" y="12.7451"/><rect fill="#FFFFFF" height="75.875" rx="12.5" ry="12.5" style="stroke: #666666; stroke-width: 1.5;" width="83" x="437.5" y="246.4795"/><text fill="#666666" font-family="monospace" font-size="12" lengthAdjust="spacingAndGlyphs" textLength="0" x="454.5" y="267.6182"/><text fill="#666666" font-family="monospace" font-size="12" font-weight="bold" lengthAdjust="spacingAndGlyphs" textLength="63" x="447.5" y="281.5869">Inventory</text><text fill="#666666" font-family="monospace" font-size="12" lengthAdjust="spacingAndGlyphs" textLength="56" x="447.5" y="295.5557">Add Room</text><text fill="#666666" font-family="monospace" font-size="12" lengthAdjust="spacingAndGlyphs" textLength="0" x="454.5" y="309.5244"/><rect fill="#FFFFFF" height="75.875" rx="12.5" ry="12.5" style="stroke: #666666; stroke-width: 1.5;" width="76" x="441" y="703.0732"/><text fill="#666666" font-family="monospace" font-size="12" lengthAdjust="spacingAndGlyphs" textLength="0" x="458" y="724.2119"/><text fill="#666666" font-family="monospace" font-size="12" font-weight="bold" lengthAdjust="spacingAndGlyphs" textLength="28" x="451" y="738.1807">Auth</text><text fill="#666666" font-family="monospace" font-size="12" lengthAdjust="spacingAndGlyphs" textLength="56" x="451" y="752.1494">Register</text><text fill="#666666" font-family="monospace" font-size="12" lengthAdjust="spacingAndGlyphs" textLength="0" x="458" y="766.1182"/><rect fill="#FFFFFF" height="75.875" rx="12.5" ry="12.5" style="stroke: #666666; stroke-width: 1.5;" width="83" x="437.5" y="1159.667"/><text fill="#666666" font-family="monospace" font-size="12" lengthAdjust="spacingAndGlyphs" textLength="0" x="454.5" y="1180.8057"/><text fill="#666666" font-family="monospace" font-size="12" font-weight="bold" lengthAdjust="spacingAndGlyphs" textLength="63" x="447.5" y="1194.7744">Inventory</text><text fill="#666666" font-family="monospace" font-size="12" lengthAdjust="spacingAndGlyphs" textLength="63" x="447.5" y="1208.7432">Book Room</text><text fill="#666666" font-family="monospace" font-size="12" lengthAdjust="spacingAndGlyphs" textLength="0" x="454.5" y="1222.7119"/><rect fill="#FFFFFF" height="75.875" rx="12.5" ry="12.5" style="stroke: #666666; stroke-width: 1.5;" width="90" x="434" y="1685.2295"/><text fill="#666666" font-family="monospace" font-size="12" lengthAdjust="spacingAndGlyphs" textLength="0" x="451" y="1706.3682"/><text fill="#666666" font-family="monospace" font-size="12" font-weight="bold" lengthAdjust="spacingAndGlyphs" textLength="63" x="444" y="1720.3369">Inventory</text><text fill="#666666" font-family="monospace" font-size="12" lengthAdjust="spacingAndGlyphs" textLength="70" x="444" y="1734.3057">Ready Room</text><text fill="#666666" font-family="monospace" font-size="12" lengthAdjust="spacingAndGlyphs" textLength="0" x="451" y="1748.2744"/><rect fill="#FFFFFF" height="75.875" rx="12.5" ry="12.5" style="stroke: #666666; stroke-width: 1.5;" width="83" x="437.5" y="2279.7607"/><text fill="#666666" font-family="monospace" font-size="12" lengthAdjust="spacingAndGlyphs" textLength="0" x="454.5" y="2300.8994"/><text fill="#666666" font-family="monospace" font-size="12" font-weight="bold" lengthAdjust="spacingAndGlyphs" textLength="63" x="447.5" y="2314.8682">Inventory</text><text fill="#666666" font-family="monospace" font-size="12" lengthAdjust="spacingAndGlyphs" textLength="56" x="447.5" y="2328.8369">Check In</text><text fill="#666666" font-family="monospace" font-size="12" lengthAdjust="spacingAndGlyphs" textLength="0" x="454.5" y="2342.8057"/><rect fill="#FFFFFF" height="75.875" rx="12.5" ry="12.5" style="stroke: #666666; stroke-width: 1.5;" width="69" x="444.5" y="2736.3545"/><text fill="#666666" font-family="monospace" font-size="12" lengthAdjust="spacingAndGlyphs" textLength="0" x="461.5" y="2757.4932"/><text fill="#666666" font-family="monospace" font-size="12" font-weight="bold" lengthAdjust="spacingAndGlyphs" textLength="49" x="454.5" y="2771.4619">Payment</text><text fill="#666666" font-family="monospace" font-size="12" lengthAdjust="spacingAndGlyphs" textLength="21" x="454.5" y="2785.4307">Pay</text><text fill="#666666" font-family="monospace" font-size="12" lengthAdjust="spacingAndGlyphs" textLength="0" x="461.5" y="2799.3994"/><rect fill="#FFFFFF" height="75.875" rx="12.5" ry="12.5" style="stroke: #666666; stroke-width: 1.5;" width="125" x="416.5" y="3192.0732"/><text fill="#666666" font-family="monospace" font-size="12" lengthAdjust="spacingAndGlyphs" textLength="0" x="433.5" y="3213.2119"/><text fill="#666666" font-family="monospace" font-size="12" font-weight="bold" lengthAdjust="spacingAndGlyphs" textLength="49" x="426.5" y="3227.1807">Payment</text><text fill="#666666" font-family="monospace" font-size="12" lengthAdjust="spacingAndGlyphs" textLength="105" x="426.5" y="3241.1494">Process Payment</text><text fill="#666666" font-family="monospace" font-size="12" lengthAdjust="spacingAndGlyphs" textLength="0" x="433.5" y="3255.1182"/><rect fill="#FFFFFF" height="75.875" rx="12.5" ry="12.5" style="stroke: #666666; stroke-width: 1.5;" width="146" x="406" y="3703.667"/><text fill="#666666" font-family="monospace" font-size="12" lengthAdjust="spacingAndGlyphs" textLength="0" x="423" y="3724.8057"/><text fill="#666666" font-family="monospace" font-size="12" font-weight="bold" lengthAdjust="spacingAndGlyphs" textLength="63" x="416" y="3738.7744">Inventory</text><text fill="#666666" font-family="monospace" font-size="12" lengthAdjust="spacingAndGlyphs" textLength="126" x="416" y="3752.7432">Translate Location</text><text fill="#666666" font-family="monospace" font-size="12" lengthAdjust="spacingAndGlyphs" textLength="0" x="423" y="3766.7119"/><rect fill="#FFFFFF" height="75.875" rx="12.5" ry="12.5" style="stroke: #666666; stroke-width: 1.5;" width="83" x="437.5" y="4159.3857"/><text fill="#666666" font-family="monospace" font-size="12" lengthAdjust="spacingAndGlyphs" textLength="0" x="454.5" y="4180.5244"/><text fill="#666666" font-family="monospace" font-size="12" font-weight="bold" lengthAdjust="spacingAndGlyphs" textLength="63" x="447.5" y="4194.4932">Inventory</text><text fill="#666666" font-family="monospace" font-size="12" lengthAdjust="spacingAndGlyphs" textLength="63" x="447.5" y="4208.4619">Check Out</text><text fill="#666666" font-family="monospace" font-size="12" lengthAdjust="spacingAndGlyphs" textLength="0" x="454.5" y="4222.4307"/><rect fill="#FFE5D8" height="4360.4531" style="stroke: #FFE5D8; stroke-width: 1.0;" width="158" x="561" y="12.7451"/><rect fill="#FFFFFF" height="33.9688" rx="12.5" ry="12.5" style="stroke: #666666; stroke-width: 1.5;" width="90" x="595.5" y="357.3545"/><text fill="#666666" font-family="monospace" font-size="12" lengthAdjust="spacingAndGlyphs" textLength="70" x="605.5" y="378.4932">Room Added</text><rect fill="#FFFFFF" height="33.9688" rx="12.5" ry="12.5" style="stroke: #666666; stroke-width: 1.5;" width="90" x="595.5" y="813.9482"/><text fill="#666666" font-family="monospace" font-size="12" lengthAdjust="spacingAndGlyphs" textLength="70" x="605.5" y="835.0869">Registered</text><rect fill="#FFFFFF" height="33.9688" rx="12.5" ry="12.5" style="stroke: #666666; stroke-width: 1.5;" width="97" x="592" y="1270.542"/><text fill="#666666" font-family="monospace" font-size="12" lengthAdjust="spacingAndGlyphs" textLength="77" x="602" y="1291.6807">Room Booked</text><rect fill="#FFFFFF" height="33.9688" rx="12.5" ry="12.5" style="stroke: #666666; stroke-width: 1.5;" width="104" x="588.5" y="1796.1045"/><text fill="#666666" font-family="monospace" font-size="12" lengthAdjust="spacingAndGlyphs" textLength="84" x="598.5" y="1817.2432">Room Readied</text><rect fill="#FFFFFF" height="33.9688" rx="12.5" ry="12.5" style="stroke: #666666; stroke-width: 1.5;" width="90" x="595.5" y="2390.6357"/><text fill="#666666" font-family="monospace" font-size="12" lengthAdjust="spacingAndGlyphs" textLength="70" x="605.5" y="2411.7744">Checked In</text><rect fill="#FFFFFF" height="33.9688" rx="12.5" ry="12.5" style="stroke: #666666; stroke-width: 1.5;" width="139" x="571" y="2847.2295"/><text fill="#666666" font-family="monospace" font-size="12" lengthAdjust="spacingAndGlyphs" textLength="119" x="581" y="2868.3682">Payment Requested</text><rect fill="#FFFFFF" height="33.9688" rx="12.5" ry="12.5" style="stroke: #666666; stroke-width: 1.5;" width="139" x="571" y="3302.9482"/><text fill="#666666" font-family="monospace" font-size="12" lengthAdjust="spacingAndGlyphs" textLength="119" x="581" y="3324.0869">Payment Succeeded</text><rect fill="#FFFFFF" height="33.9688" rx="12.5" ry="12.5" style="stroke: #666666; stroke-width: 1.5;" width="132" x="574.5" y="3814.542"/><text fill="#666666" font-family="monospace" font-size="12" lengthAdjust="spacingAndGlyphs" textLength="112" x="584.5" y="3835.6807">Guest Left Hotel</text><rect fill="#FFFFFF" height="33.9688" rx="12.5" ry="12.5" style="stroke: #666666; stroke-width: 1.5;" width="97" x="592" y="4270.2607"/><text fill="#666666" font-family="monospace" font-size="12" lengthAdjust="spacingAndGlyphs" textLength="77" x="602" y="4291.3994">Checked Out</text><rect fill="#E8FBE8" height="4360.4531" style="stroke: #E8FBE8; stroke-width: 1.0;" width="172" x="719" y="12.7451"/><rect fill="#FFFFFF" height="33.9688" rx="12.5" ry="12.5" style="stroke: #666666; stroke-width: 1.5;" width="139" x="736" y="426.3232"/><text fill="#666666" font-family="monospace" font-size="12" lengthAdjust="spacingAndGlyphs" textLength="119" x="746" y="447.4619">Room Availability</text><rect fill="#FFFFFF" height="33.9688" rx="12.5" ry="12.5" style="stroke: #666666; stroke-width: 1.5;" width="139" x="736" y="951.8857"/><text fill="#666666" font-family="monospace" font-size="12" lengthAdjust="spacingAndGlyphs" textLength="119" x="746" y="973.0244">Room Availability</text><rect fill="#FFFFFF" height="33.9688" rx="12.5" ry="12.5" style="stroke: #666666; stroke-width: 1.5;" width="139" x="736" y="1339.5107"/><text fill="#666666" font-family="monospace" font-size="12" lengthAdjust="spacingAndGlyphs" textLength="119" x="746" y="1360.6494">Cleaning Schedule</text><rect fill="#FFFFFF" height="33.9688" rx="12.5" ry="12.5" style="stroke: #666666; stroke-width: 1.5;" width="139" x="736" y="1491.417"/><text fill="#666666" font-family="monospace" font-size="12" lengthAdjust="spacingAndGlyphs" textLength="119" x="746" y="1512.5557">Cleaning Schedule</text><rect fill="#FFFFFF" height="33.9688" rx="12.5" ry="12.5" style="stroke: #666666; stroke-width: 1.5;" width="139" x="736" y="1865.0732"/><text fill="#666666" font-family="monospace" font-size="12" lengthAdjust="spacingAndGlyphs" textLength="119" x="746" y="1886.2119">Cleaning Schedule</text><rect fill="#FFFFFF" height="33.9688" rx="12.5" ry="12.5" style="stroke: #666666; stroke-width: 1.5;" width="104" x="753.5" y="1934.042"/><text fill="#666666" font-family="monospace" font-size="12" lengthAdjust="spacingAndGlyphs" textLength="84" x="763.5" y="1955.1807">Guest Roster</text><rect fill="#FFFFFF" height="33.9688" rx="12.5" ry="12.5" style="stroke: #666666; stroke-width: 1.5;" width="104" x="753.5" y="2071.9795"/><text fill="#666666" font-family="monospace" font-size="12" lengthAdjust="spacingAndGlyphs" textLength="84" x="763.5" y="2093.1182">Guest Roster</text><rect fill="#FFFFFF" height="33.9688" rx="12.5" ry="12.5" style="stroke: #666666; stroke-width: 1.5;" width="104" x="753.5" y="2459.6045"/><text fill="#666666" font-family="monospace" font-size="12" lengthAdjust="spacingAndGlyphs" textLength="84" x="763.5" y="2480.7432">Guest Roster</text><rect fill="#FFFFFF" height="33.9688" rx="12.5" ry="12.5" style="stroke: #666666; stroke-width: 1.5;" width="153" x="729" y="2916.1982"/><text fill="#666666" font-family="monospace" font-size="12" lengthAdjust="spacingAndGlyphs" textLength="133" x="739" y="2937.3369">Payments to Process</text><rect fill="#FFFFFF" height="33.9688" rx="12.5" ry="12.5" style="stroke: #666666; stroke-width: 1.5;" width="153" x="729" y="3054.1357"/><text fill="#666666" font-family="monospace" font-size="12" lengthAdjust="spacingAndGlyphs" textLength="133" x="739" y="3075.2744">Payments to Process</text><rect fill="#FFFFFF" height="33.9688" rx="12.5" ry="12.5" style="stroke: #666666; stroke-width: 1.5;" width="153" x="729" y="3371.917"/><text fill="#666666" font-family="monospace" font-size="12" lengthAdjust="spacingAndGlyphs" textLength="133" x="739" y="3393.0557">Payments to Process</text><rect fill="#FFFFFF" height="33.9688" rx="12.5" ry="12.5" style="stroke: #666666; stroke-width: 1.5;" width="104" x="753.5" y="3440.8857"/><text fill="#666666" font-family="monospace" font-size="12" lengthAdjust="spacingAndGlyphs" textLength="84" x="763.5" y="3462.0244">Sales Report</text><rect fill="#FFFFFF" height="33.9688" rx="12.5" ry="12.5" style="stroke: #666666; stroke-width: 1.5;" width="104" x="753.5" y="3883.5107"/><text fill="#666666" font-family="monospace" font-size="12" lengthAdjust="spacingAndGlyphs" textLength="84" x="763.5" y="3904.6494">Guest Roster</text><rect fill="#FFFFFF" height="33.9688" rx="12.5" ry="12.5" style="stroke: #666666; stroke-width: 1.5;" width="104" x="753.5" y="4021.4482"/><text fill="#666666" font-family="monospace" font-size="12" lengthAdjust="spacingAndGlyphs" textLength="84" x="763.5" y="4042.5869">Guest Roster</text><rect fill="#FFFFFF" height="33.9688" rx="12.5" ry="12.5" style="stroke: #666666; stroke-width: 1.5;" width="104" x="753.5" y="4339.2295"/><text fill="#666666" font-family="monospace" font-size="12" lengthAdjust="spacingAndGlyphs" textLength="84" x="763.5" y="4360.3682">Guest Roster</text><rect fill="#FFFFFF" height="4360.4531" style="stroke: #FFFFFF; stroke-width: 1.0;" width="109" x="891" y="12.7451"/><rect fill="#FFFFFF" height="89.8438" rx="12.5" ry="12.5" style="stroke: #666666; stroke-width: 1.5;" width="90" x="901" y="3578.8232"/><text fill="#666666" font-family="monospace" font-size="12" lengthAdjust="spacingAndGlyphs" textLength="0" x="918" y="3599.9619"/><text fill="#666666" font-family="monospace" font-size="12" font-weight="bold" lengthAdjust="spacingAndGlyphs" textLength="21" x="911" y="3613.9307">GPS</text><text fill="#666666" font-family="monospace" font-size="12" lengthAdjust="spacingAndGlyphs" textLength="63" x="911" y="3627.8994">Lat: Text</text><text fill="#666666" font-family="monospace" font-size="12" lengthAdjust="spacingAndGlyphs" textLength="70" x="911" y="3641.8682">Long: Text</text><text fill="#666666" font-family="monospace" font-size="12" lengthAdjust="spacingAndGlyphs" textLength="0" x="918" y="3655.8369"/><line style="stroke: #666666; stroke-width: 1.5;" x1="805.5" x2="805.5" y1="1899.042" y2="1934.042"/><polygon fill="#666666" points="801.5,1924.042,805.5,1934.042,809.5,1924.042,805.5,1928.042" style="stroke: #666666; stroke-width: 1.0;"/><line style="stroke: #666666; stroke-width: 1.5;" x1="805.5" x2="805.5" y1="3405.8857" y2="3440.8857"/><polygon fill="#666666" points="801.5,3430.8857,805.5,3440.8857,809.5,3430.8857,805.5,3434.8857" style="stroke: #666666; stroke-width: 1.0;"/><line style="stroke: #666666; stroke-width: 1.5;" x1="121" x2="121" y1="72.667" y2="90.167"/><line style="stroke: #666666; stroke-width: 1.5;" x1="121" x2="314" y1="90.167" y2="90.167"/><line style="stroke: #666666; stroke-width: 1.5;" x1="314" x2="314" y1="90.167" y2="107.667"/><polygon fill="#666666" points="310,97.667,314,107.667,318,97.667,314,101.667" style="stroke: #666666; stroke-width: 1.0;"/><line style="stroke: #666666; stroke-width: 1.5;" x1="314" x2="314" y1="211.4795" y2="228.9795"/><line style="stroke: #666666; stroke-width: 1.5;" x1="314" x2="479" y1="228.9795" y2="228.9795"/><line style="stroke: #666666; stroke-width: 1.5;" x1="479" x2="479" y1="228.9795" y2="246.4795"/><polygon fill="#666666" points="475,236.4795,479,246.4795,483,236.4795,479,240.4795" style="stroke: #666666; stroke-width: 1.0;"/><line style="stroke: #666666; stroke-width: 1.5;" x1="479" x2="479" y1="322.3545" y2="339.8545"/><line style="stroke: #666666; stroke-width: 1.5;" x1="479" x2="640.5" y1="339.8545" y2="339.8545"/><line style="stroke: #666666; stroke-width: 1.5;" x1="640.5" x2="640.5" y1="339.8545" y2="357.3545"/><polygon fill="#666666" points="636.5,347.3545,640.5,357.3545,644.5,347.3545,640.5,351.3545" style="stroke: #666666; stroke-width: 1.0;"/><line style="stroke: #666666; stroke-width: 1.5;" x1="640.5" x2="640.5" y1="391.3232" y2="408.8232"/><line style="stroke: #666666; stroke-width: 1.5;" x1="640.5" x2="805.5" y1="408.8232" y2="408.8232"/><line style="stroke: #666666; stroke-width: 1.5;" x1="805.5" x2="805.5" y1="408.8232" y2="426.3232"/><polygon fill="#666666" points="801.5,416.3232,805.5,426.3232,809.5,416.3232,805.5,420.3232" style="stroke: #666666; stroke-width: 1.0;"/><line style="stroke: #666666; stroke-width: 1.5;" x1="121" x2="121" y1="529.2607" y2="546.7607"/><line style="stroke: #666666; stroke-width: 1.5;" x1="121" x2="314" y1="546.7607" y2="546.7607"/><line style="stroke: #666666; stroke-width: 1.5;" x1="314" x2="314" y1="546.7607" y2="564.2607"/><polygon fill="#666666" points="310,554.2607,314,564.2607,318,554.2607,314,558.2607" style="stroke: #666666; stroke-width: 1.0;"/><line style="stroke: #666666; stroke-width: 1.5;" x1="314" x2="314" y1="668.0732" y2="685.5732"/><line style="stroke: #666666; stroke-width: 1.5;" x1="314" x2="479" y1="685.5732" y2="685.5732"/><line style="stroke: #666666; stroke-width: 1.5;" x1="479" x2="479" y1="685.5732" y2="703.0732"/><polygon fill="#666666" points="475,693.0732,479,703.0732,483,693.0732,479,697.0732" style="stroke: #666666; stroke-width: 1.0;"/><line style="stroke: #666666; stroke-width: 1.5;" x1="479" x2="479" y1="778.9482" y2="796.4482"/><line style="stroke: #666666; stroke-width: 1.5;" x1="479" x2="640.5" y1="796.4482" y2="796.4482"/><line style="stroke: #666666; stroke-width: 1.5;" x1="640.5" x2="640.5" y1="796.4482" y2="813.9482"/><polygon fill="#666666" points="636.5,803.9482,640.5,813.9482,644.5,803.9482,640.5,807.9482" style="stroke: #666666; stroke-width: 1.0;"/><line style="stroke: #666666; stroke-width: 1.5;" x1="121" x2="121" y1="916.8857" y2="934.3857"/><line style="stroke: #666666; stroke-width: 1.5;" x1="121" x2="805.5" y1="934.3857" y2="934.3857"/><line style="stroke: #666666; stroke-width: 1.5;" x1="805.5" x2="805.5" y1="934.3857" y2="951.8857"/><polygon fill="#666666" points="801.5,941.8857,805.5,951.8857,809.5,941.8857,805.5,945.8857" style="stroke: #666666; stroke-width: 1.0;"/><line style="stroke: #666666; stroke-width: 1.5;" x1="805.5" x2="805.5" y1="985.8545" y2="1003.3545"/><line style="stroke: #666666; stroke-width: 1.5;" x1="805.5" x2="314" y1="1003.3545" y2="1003.3545"/><line style="stroke: #666666; stroke-width: 1.5;" x1="314" x2="314" y1="1003.3545" y2="1020.8545"/><polygon fill="#666666" points="310,1010.8545,314,1020.8545,318,1010.8545,314,1014.8545" style="stroke: #666666; stroke-width: 1.0;"/><line style="stroke: #666666; stroke-width: 1.5;" x1="314" x2="314" y1="1124.667" y2="1142.167"/><line style="stroke: #666666; stroke-width: 1.5;" x1="314" x2="479" y1="1142.167" y2="1142.167"/><line style="stroke: #666666; stroke-width: 1.5;" x1="479" x2="479" y1="1142.167" y2="1159.667"/><polygon fill="#666666" points="475,1149.667,479,1159.667,483,1149.667,479,1153.667" style="stroke: #666666; stroke-width: 1.0;"/><line style="stroke: #666666; stroke-width: 1.5;" x1="479" x2="479" y1="1235.542" y2="1253.042"/><line style="stroke: #666666; stroke-width: 1.5;" x1="479" x2="640.5" y1="1253.042" y2="1253.042"/><line style="stroke: #666666; stroke-width: 1.5;" x1="640.5" x2="640.5" y1="1253.042" y2="1270.542"/><polygon fill="#666666" points="636.5,1260.542,640.5,1270.542,644.5,1260.542,640.5,1264.542" style="stroke: #666666; stroke-width: 1.0;"/><line style="stroke: #666666; stroke-width: 1.5;" x1="640.5" x2="640.5" y1="1304.5107" y2="1322.0107"/><line style="stroke: #666666; stroke-width: 1.5;" x1="640.5" x2="805.5" y1="1322.0107" y2="1322.0107"/><line style="stroke: #666666; stroke-width: 1.5;" x1="805.5" x2="805.5" y1="1322.0107" y2="1339.5107"/><polygon fill="#666666" points="801.5,1329.5107,805.5,1339.5107,809.5,1329.5107,805.5,1333.5107" style="stroke: #666666; stroke-width: 1.0;"/><line style="stroke: #666666; stroke-width: 1.5;" x1="121" x2="121" y1="1456.417" y2="1473.917"/><line style="stroke: #666666; stroke-width: 1.5;" x1="121" x2="805.5" y1="1473.917" y2="1473.917"/><line style="stroke: #666666; stroke-width: 1.5;" x1="805.5" x2="805.5" y1="1473.917" y2="1491.417"/><polygon fill="#666666" points="801.5,1481.417,805.5,1491.417,809.5,1481.417,805.5,1485.417" style="stroke: #666666; stroke-width: 1.0;"/><line style="stroke: #666666; stroke-width: 1.5;" x1="805.5" x2="805.5" y1="1525.3857" y2="1542.8857"/><line style="stroke: #666666; stroke-width: 1.5;" x1="805.5" x2="314" y1="1542.8857" y2="1542.8857"/><line style="stroke: #666666; stroke-width: 1.5;" x1="314" x2="314" y1="1542.8857" y2="1560.3857"/><polygon fill="#666666" points="310,1550.3857,314,1560.3857,318,1550.3857,314,1554.3857" style="stroke: #666666; stroke-width: 1.0;"/><line style="stroke: #666666; stroke-width: 1.5;" x1="314" x2="314" y1="1650.2295" y2="1667.7295"/><line style="stroke: #666666; stroke-width: 1.5;" x1="314" x2="479" y1="1667.7295" y2="1667.7295"/><line style="stroke: #666666; stroke-width: 1.5;" x1="479" x2="479" y1="1667.7295" y2="1685.2295"/><polygon fill="#666666" points="475,1675.2295,479,1685.2295,483,1675.2295,479,1679.2295" style="stroke: #666666; stroke-width: 1.0;"/><line style="stroke: #666666; stroke-width: 1.5;" x1="479" x2="479" y1="1761.1045" y2="1778.6045"/><line style="stroke: #666666; stroke-width: 1.5;" x1="479" x2="640.5" y1="1778.6045" y2="1778.6045"/><line style="stroke: #666666; stroke-width: 1.5;" x1="640.5" x2="640.5" y1="1778.6045" y2="1796.1045"/><polygon fill="#666666" points="636.5,1786.1045,640.5,1796.1045,644.5,1786.1045,640.5,1790.1045" style="stroke: #666666; stroke-width: 1.0;"/><line style="stroke: #666666; stroke-width: 1.5;" x1="640.5" x2="640.5" y1="1830.0732" y2="1847.5732"/><line style="stroke: #666666; stroke-width: 1.5;" x1="640.5" x2="805.5" y1="1847.5732" y2="1847.5732"/><line style="stroke: #666666; stroke-width: 1.5;" x1="805.5" x2="805.5" y1="1847.5732" y2="1865.0732"/><polygon fill="#666666" points="801.5,1855.0732,805.5,1865.0732,809.5,1855.0732,805.5,1859.0732" style="stroke: #666666; stroke-width: 1.0;"/><line style="stroke: #666666; stroke-width: 1.5;" x1="121" x2="121" y1="2036.9795" y2="2054.4795"/><line style="stroke: #666666; stroke-width: 1.5;" x1="121" x2="805.5" y1="2054.4795" y2="2054.4795"/><line style="stroke: #666666; stroke-width: 1.5;" x1="805.5" x2="805.5" y1="2054.4795" y2="2071.9795"/><polygon fill="#666666" points="801.5,2061.9795,805.5,2071.9795,809.5,2061.9795,805.5,2065.9795" style="stroke: #666666; stroke-width: 1.0;"/><line style="stroke: #666666; stroke-width: 1.5;" x1="805.5" x2="805.5" y1="2105.9482" y2="2123.4482"/><line style="stroke: #666666; stroke-width: 1.5;" x1="805.5" x2="314" y1="2123.4482" y2="2123.4482"/><line style="stroke: #666666; stroke-width: 1.5;" x1="314" x2="314" y1="2123.4482" y2="2140.9482"/><polygon fill="#666666" points="310,2130.9482,314,2140.9482,318,2130.9482,314,2134.9482" style="stroke: #666666; stroke-width: 1.0;"/><line style="stroke: #666666; stroke-width: 1.5;" x1="314" x2="314" y1="2244.7607" y2="2262.2607"/><line style="stroke: #666666; stroke-width: 1.5;" x1="314" x2="479" y1="2262.2607" y2="2262.2607"/><line style="stroke: #666666; stroke-width: 1.5;" x1="479" x2="479" y1="2262.2607" y2="2279.7607"/><polygon fill="#666666" points="475,2269.7607,479,2279.7607,483,2269.7607,479,2273.7607" style="stroke: #666666; stroke-width: 1.0;"/><line style="stroke: #666666; stroke-width: 1.5;" x1="479" x2="479" y1="2355.6357" y2="2373.1357"/><line style="stroke: #666666; stroke-width: 1.5;" x1="479" x2="640.5" y1="2373.1357" y2="2373.1357"/><line style="stroke: #666666; stroke-width: 1.5;" x1="640.5" x2="640.5" y1="2373.1357" y2="2390.6357"/><polygon fill="#666666" points="636.5,2380.6357,640.5,2390.6357,644.5,2380.6357,640.5,2384.6357" style="stroke: #666666; stroke-width: 1.0;"/><line style="stroke: #666666; stroke-width: 1.5;" x1="640.5" x2="640.5" y1="2424.6045" y2="2442.1045"/><line style="stroke: #666666; stroke-width: 1.5;" x1="640.5" x2="805.5" y1="2442.1045" y2="2442.1045"/><line style="stroke: #666666; stroke-width: 1.5;" x1="805.5" x2="805.5" y1="2442.1045" y2="2459.6045"/><polygon fill="#666666" points="801.5,2449.6045,805.5,2459.6045,809.5,2449.6045,805.5,2453.6045" style="stroke: #666666; stroke-width: 1.0;"/><line style="stroke: #666666; stroke-width: 1.5;" x1="121" x2="121" y1="2562.542" y2="2580.042"/><line style="stroke: #666666; stroke-width: 1.5;" x1="121" x2="314" y1="2580.042" y2="2580.042"/><line style="stroke: #666666; stroke-width: 1.5;" x1="314" x2="314" y1="2580.042" y2="2597.542"/><polygon fill="#666666" points="310,2587.542,314,2597.542,318,2587.542,314,2591.542" style="stroke: #666666; stroke-width: 1.0;"/><line style="stroke: #666666; stroke-width: 1.5;" x1="314" x2="314" y1="2701.3545" y2="2718.8545"/><line style="stroke: #666666; stroke-width: 1.5;" x1="314" x2="479" y1="2718.8545" y2="2718.8545"/><line style="stroke: #666666; stroke-width: 1.5;" x1="479" x2="479" y1="2718.8545" y2="2736.3545"/><polygon fill="#666666" points="475,2726.3545,479,2736.3545,483,2726.3545,479,2730.3545" style="stroke: #666666; stroke-width: 1.0;"/><line style="stroke: #666666; stroke-width: 1.5;" x1="479" x2="479" y1="2812.2295" y2="2829.7295"/><line style="stroke: #666666; stroke-width: 1.5;" x1="479" x2="640.5" y1="2829.7295" y2="2829.7295"/><line style="stroke: #666666; stroke-width: 1.5;" x1="640.5" x2="640.5" y1="2829.7295" y2="2847.2295"/><polygon fill="#666666" points="636.5,2837.2295,640.5,2847.2295,644.5,2837.2295,640.5,2841.2295" style="stroke: #666666; stroke-width: 1.0;"/><line style="stroke: #666666; stroke-width: 1.5;" x1="640.5" x2="640.5" y1="2881.1982" y2="2898.6982"/><line style="stroke: #666666; stroke-width: 1.5;" x1="640.5" x2="805.5" y1="2898.6982" y2="2898.6982"/><line style="stroke: #666666; stroke-width: 1.5;" x1="805.5" x2="805.5" y1="2898.6982" y2="2916.1982"/><polygon fill="#666666" points="801.5,2906.1982,805.5,2916.1982,809.5,2906.1982,805.5,2910.1982" style="stroke: #666666; stroke-width: 1.0;"/><line style="stroke: #666666; stroke-width: 1.5;" x1="121" x2="121" y1="3019.1357" y2="3036.6357"/><line style="stroke: #666666; stroke-width: 1.5;" x1="121" x2="805.5" y1="3036.6357" y2="3036.6357"/><line style="stroke: #666666; stroke-width: 1.5;" x1="805.5" x2="805.5" y1="3036.6357" y2="3054.1357"/><polygon fill="#666666" points="801.5,3044.1357,805.5,3054.1357,809.5,3044.1357,805.5,3048.1357" style="stroke: #666666; stroke-width: 1.0;"/><line style="stroke: #666666; stroke-width: 1.5;" x1="805.5" x2="805.5" y1="3088.1045" y2="3105.6045"/><line style="stroke: #666666; stroke-width: 1.5;" x1="805.5" x2="314" y1="3105.6045" y2="3105.6045"/><line style="stroke: #666666; stroke-width: 1.5;" x1="314" x2="314" y1="3105.6045" y2="3123.1045"/><polygon fill="#666666" points="310,3113.1045,314,3123.1045,318,3113.1045,314,3117.1045" style="stroke: #666666; stroke-width: 1.0;"/><line style="stroke: #666666; stroke-width: 1.5;" x1="314" x2="314" y1="3157.0732" y2="3174.5732"/><line style="stroke: #666666; stroke-width: 1.5;" x1="314" x2="479" y1="3174.5732" y2="3174.5732"/><line style="stroke: #666666; stroke-width: 1.5;" x1="479" x2="479" y1="3174.5732" y2="3192.0732"/><polygon fill="#666666" points="475,3182.0732,479,3192.0732,483,3182.0732,479,3186.0732" style="stroke: #666666; stroke-width: 1.0;"/><line style="stroke: #666666; stroke-width: 1.5;" x1="479" x2="479" y1="3267.9482" y2="3285.4482"/><line style="stroke: #666666; stroke-width: 1.5;" x1="479" x2="640.5" y1="3285.4482" y2="3285.4482"/><line style="stroke: #666666; stroke-width: 1.5;" x1="640.5" x2="640.5" y1="3285.4482" y2="3302.9482"/><polygon fill="#666666" points="636.5,3292.9482,640.5,3302.9482,644.5,3292.9482,640.5,3296.9482" style="stroke: #666666; stroke-width: 1.0;"/><line style="stroke: #666666; stroke-width: 1.5;" x1="640.5" x2="640.5" y1="3336.917" y2="3354.417"/><line style="stroke: #666666; stroke-width: 1.5;" x1="640.5" x2="805.5" y1="3354.417" y2="3354.417"/><line style="stroke: #666666; stroke-width: 1.5;" x1="805.5" x2="805.5" y1="3354.417" y2="3371.917"/><polygon fill="#666666" points="801.5,3361.917,805.5,3371.917,809.5,3361.917,805.5,3365.917" style="stroke: #666666; stroke-width: 1.0;"/><line style="stroke: #666666; stroke-width: 1.5;" x1="121" x2="121" y1="3543.8232" y2="3561.3232"/><line style="stroke: #666666; stroke-width: 1.5;" x1="121" x2="946" y1="3561.3232" y2="3561.3232"/><line style="stroke: #666666; stroke-width: 1.5;" x1="946" x2="946" y1="3561.3232" y2="3578.8232"/><polygon fill="#666666" points="942,3568.8232,946,3578.8232,950,3568.8232,946,3572.8232" style="stroke: #666666; stroke-width: 1.0;"/><line style="stroke: #666666; stroke-width: 1.5;" x1="946" x2="946" y1="3668.667" y2="3686.167"/><line style="stroke: #666666; stroke-width: 1.5;" x1="946" x2="479" y1="3686.167" y2="3686.167"/><line style="stroke: #666666; stroke-width: 1.5;" x1="479" x2="479" y1="3686.167" y2="3703.667"/><polygon fill="#666666" points="475,3693.667,479,3703.667,483,3693.667,479,3697.667" style="stroke: #666666; stroke-width: 1.0;"/><line style="stroke: #666666; stroke-width: 1.5;" x1="479" x2="479" y1="3779.542" y2="3797.042"/><line style="stroke: #666666; stroke-width: 1.5;" x1="479" x2="640.5" y1="3797.042" y2="3797.042"/><line style="stroke: #666666; stroke-width: 1.5;" x1="640.5" x2="640.5" y1="3797.042" y2="3814.542"/><polygon fill="#666666" points="636.5,3804.542,640.5,3814.542,644.5,3804.542,640.5,3808.542" style="stroke: #666666; stroke-width: 1.0;"/><line style="stroke: #666666; stroke-width: 1.5;" x1="640.5" x2="640.5" y1="3848.5107" y2="3866.0107"/><line style="stroke: #666666; stroke-width: 1.5;" x1="640.5" x2="805.5" y1="3866.0107" y2="3866.0107"/><line style="stroke: #666666; stroke-width: 1.5;" x1="805.5" x2="805.5" y1="3866.0107" y2="3883.5107"/><polygon fill="#666666" points="801.5,3873.5107,805.5,3883.5107,809.5,3873.5107,805.5,3877.5107" style="stroke: #666666; stroke-width: 1.0;"/><line style="stroke: #666666; stroke-width: 1.5;" x1="121" x2="121" y1="3986.4482" y2="4003.9482"/><line style="stroke: #666666; stroke-width: 1.5;" x1="121" x2="805.5" y1="4003.9482" y2="4003.9482"/><line style="stroke: #666666; stroke-width: 1.5;" x1="805.5" x2="805.5" y1="4003.9482" y2="4021.4482"/><polygon fill="#666666" points="801.5,4011.4482,805.5,4021.4482,809.5,4011.4482,805.5,4015.4482" style="stroke: #666666; stroke-width: 1.0;"/><line style="stroke: #666666; stroke-width: 1.5;" x1="805.5" x2="805.5" y1="4055.417" y2="4072.917"/><line style="stroke: #666666; stroke-width: 1.5;" x1="805.5" x2="314" y1="4072.917" y2="4072.917"/><line style="stroke: #666666; stroke-width: 1.5;" x1="314" x2="314" y1="4072.917" y2="4090.417"/><polygon fill="#666666" points="310,4080.417,314,4090.417,318,4080.417,314,4084.417" style="stroke: #666666; stroke-width: 1.0;"/><line style="stroke: #666666; stroke-width: 1.5;" x1="314" x2="314" y1="4124.3857" y2="4141.8857"/><line style="stroke: #666666; stroke-width: 1.5;" x1="314" x2="479" y1="4141.8857" y2="4141.8857"/><line style="stroke: #666666; stroke-width: 1.5;" x1="479" x2="479" y1="4141.8857" y2="4159.3857"/><polygon fill="#666666" points="475,4149.3857,479,4159.3857,483,4149.3857,479,4153.3857" style="stroke: #666666; stroke-width: 1.0;"/><line style="stroke: #666666; stroke-width: 1.5;" x1="479" x2="479" y1="4235.2607" y2="4252.7607"/><line style="stroke: #666666; stroke-width: 1.5;" x1="479" x2="640.5" y1="4252.7607" y2="4252.7607"/><line style="stroke: #666666; stroke-width: 1.5;" x1="640.5" x2="640.5" y1="4252.7607" y2="4270.2607"/><polygon fill="#666666" points="636.5,4260.2607,640.5,4270.2607,644.5,4260.2607,640.5,4264.2607" style="stroke: #666666; stroke-width: 1.0;"/><line style="stroke: #666666; stroke-width: 1.5;" x1="640.5" x2="640.5" y1="4304.2295" y2="4321.7295"/><line style="stroke: #666666; stroke-width: 1.5;" x1="640.5" x2="805.5" y1="4321.7295" y2="4321.7295"/><line style="stroke: #666666; stroke-width: 1.5;" x1="805.5" x2="805.5" y1="4321.7295" y2="4339.2295"/><polygon fill="#666666" points="801.5,4329.2295,805.5,4339.2295,809.5,4329.2295,805.5,4333.2295" style="stroke: #666666; stroke-width: 1.0;"/><text fill="#333333" font-family="monospace" font-size="18" lengthAdjust="spacingAndGlyphs" textLength="88" x="76.5" y="29.4531">Scenario</text><text fill="#333333" font-family="monospace" font-size="18" lengthAdjust="spacingAndGlyphs" textLength="66" x="280.5" y="29.4531">Client</text><text fill="#333333" font-family="monospace" font-size="18" lengthAdjust="spacingAndGlyphs" textLength="77" x="440" y="29.4531">Command</text><text fill="#333333" font-family="monospace" font-size="18" lengthAdjust="spacingAndGlyphs" textLength="55" x="612.5" y="29.4531">Event</text><text fill="#333333" font-family="monospace" font-size="18" lengthAdjust="spacingAndGlyphs" textLength="44" x="783" y="29.4531">View</text><text fill="#333333" font-family="monospace" font-size="18" lengthAdjust="spacingAndGlyphs" textLength="88" x="901.5" y="29.4531">Provider</text><line style="stroke: #BBBBBB; stroke-width: 2.0;" x1="10" x2="10" y1="12.7451" y2="4373.1982"/><line style="stroke: #BBBBBB; stroke-width: 2.0;" x1="231" x2="231" y1="12.7451" y2="4373.1982"/><line style="stroke: #BBBBBB; stroke-width: 2.0;" x1="396" x2="396" y1="12.7451" y2="4373.1982"/><line style="stroke: #BBBBBB; stroke-width: 2.0;" x1="561" x2="561" y1="12.7451" y2="4373.1982"/><line style="stroke: #BBBBBB; stroke-width: 2.0;" x1="719" x2="719" y1="12.7451" y2="4373.1982"/><line style="stroke: #BBBBBB; stroke-width: 2.0;" x1="891" x2="891" y1="12.7451" y2="4373.1982"/><line style="stroke: #BBBBBB; stroke-width: 2.0;" x1="1000" x2="1000" y1="12.7451" y2="4373.1982"/><!--MD5=[788066bd1889d9e95463a4b7610c1dc3]
@startuml


skinparam Default {
  FontName          Monospaced
  FontColor         #666666
  FontSize          12
}

skinparam Arrow {
  Color             #666666
}

skinparam Activity {
  BackgroundColor   #FFFFFF
  BorderColor       #666666
}

skinparam Swimlane {
  TitleFontColor    #333333
  TitleFontSize     18
  BorderColor       #BBBBBB
}

skinparam Shadowing	false

|#EEEEEE|Scenario|
|#FFFFFF|Client|
|#DBE8F9|Command|
|#FFE5D8|Event|
|#E8FBE8|View|
|#FFFFFF|Provider|



|Scenario|
:Manager adds room;
|Client|
:
**Manager**
Field 1: Text
Field 2: Text
Add Room: Button
;
|Command|
:
**Inventory**
Add Room
;
|Event|
:Room Added;
|View|
:Room Availability;
detach


|Scenario|
:Client registration;
|Client|
:
**Guest**
Username: Text
Password: Text
Register: Button
;
|Command|
:
**Auth**
Register
;
|Event|
:Registered;
detach


|Scenario|
:Guest books room;
|View|
:Room Availability;
|Client|
:
**Guest**
Date: Picker
Rooms: List
Book Room: Button
;
|Command|
:
**Inventory**
Book Room
;
|Event|
:Room Booked;
|View|
:Cleaning Schedule;
detach


|Scenario|
:Get room ready 
for guest;
|View|
:Cleaning Schedule;
|Client|
:
**Manager**
Tasks: List
Ready Room: Button
;
|Command|
:
**Inventory**
Ready Room
;
|Event|
:Room Readied;
|View|
:Cleaning Schedule;
:Guest Roster;
detach


|Scenario|
:Guest checks in;
|View|
:Guest Roster;
|Client|
:
**Manager**
Field1: Text
Field2: Text
Check In: Button
;
|Command|
:
**Inventory**
Check In
;
|Event|
:Checked In;
|View|
:Guest Roster;
detach


|Scenario|
:Guest initiates payment;
|Client|
:
**Guest**
Card Number: Text
Amount: Currency
Pay: Button
;
|Command|
:
**Payment**
Pay
;
|Event|
:Payment Requested;
|View|
:Payments to Process;
detach


|Scenario|
:Guest paid successfully;
|View|
:Payments to Process;
|Client|
:Payment Processor;
|Command|
:
**Payment**
Process Payment
;
|Event|
:Payment Succeeded;
|View|
:Payments to Process;
:Sales Report;
detach


|Scenario|
:Guest left hotel proximity;
|Provider|
:
**GPS**
Lat: Text
Long: Text
;
|Command|
:
**Inventory**
Translate Location
;
|Event|
:Guest Left Hotel;
|View|
:Guest Roster;
detach


|Scenario|
:Process checkout;
|View|
:Guest Roster;
|Client|
:Checkout Processor;
|Command|
:
**Inventory**
Check Out
;
|Event|
:Checked Out;
|View|
:Guest Roster;
detach
@enduml

PlantUML version 1.2019.11(Sun Sep 22 12:02:15 CEST 2019)
(GPL source distribution)
Java Runtime: OpenJDK Runtime Environment
JVM: OpenJDK 64-Bit Server VM
Java Version: 1.8.0_222-8u222-b10-1ubuntu1~16.04.1-b10
Operating System: Linux
Default Encoding: UTF-8
Language: en
Country: US
--></g></svg>